<?xml version="1.0" standalone="no"?>
<!DOCTYPE svg PUBLIC "-//W3C//DTD SVG 20010904//EN"
 "http://www.w3.org/TR/2001/REC-SVG-20010904/DTD/svg10.dtd">
<svg version="1.0" xmlns="http://www.w3.org/2000/svg"
 width="2400.000000pt" height="1920.000000pt" viewBox="0 0 2400.000000 1920.000000"
 preserveAspectRatio="xMidYMid meet">

<g transform="translate(0.000000,1920.000000) scale(0.100000,-0.100000)"
fill="#000000" stroke="none">
<path d="M1714 18951 c-76 -35 -110 -103 -101 -208 8 -105 58 -162 152 -176
56 -9 105 7 142 45 32 34 54 88 35 88 -6 0 -17 3 -26 6 -11 4 -16 1 -16 -11 0
-9 -15 -32 -34 -51 -27 -27 -42 -34 -72 -34 -56 0 -86 19 -111 70 -36 70 -26
165 21 209 51 48 144 43 174 -9 19 -34 62 -42 62 -12 0 47 -80 102 -150 102
-19 0 -53 -9 -76 -19z"/>
<path d="M2510 18765 c0 -188 1 -195 20 -195 12 0 20 7 20 17 0 14 2 14 20 -2
25 -23 91 -23 126 -1 76 50 69 228 -11 264 -35 16 -77 15 -101 -3 -31 -23 -34
-19 -34 50 0 58 -2 65 -20 65 -19 0 -20 -7 -20 -195z m169 29 c30 -38 29 -124
-1 -158 -33 -35 -60 -40 -91 -16 -30 24 -43 72 -33 125 14 72 85 99 125 49z"/>
<path d="M3580 18765 l0 -195 95 0 c124 0 166 16 202 78 22 38 27 58 28 116 0
85 -23 140 -74 173 -30 20 -46 23 -142 23 l-109 0 0 -195z m205 141 c45 -19
65 -61 65 -136 0 -72 -20 -122 -56 -139 -14 -6 -56 -11 -94 -11 l-70 0 0 143
c0 79 3 147 7 150 12 12 113 7 148 -7z"/>
<path d="M3970 18935 c0 -18 5 -25 20 -25 15 0 20 7 20 25 0 18 -5 25 -20 25
-15 0 -20 -7 -20 -25z"/>
<path d="M4680 18935 c0 -18 5 -25 20 -25 15 0 20 7 20 25 0 18 -5 25 -20 25
-15 0 -20 -7 -20 -25z"/>
<path d="M4980 18895 c0 -69 -3 -73 -34 -50 -28 22 -79 18 -111 -7 -74 -58
-73 -205 3 -254 34 -22 97 -22 122 1 18 16 20 16 20 2 0 -11 8 -17 25 -17 l25
0 0 195 0 195 -25 0 c-24 0 -25 -2 -25 -65z m-45 -81 c47 -18 61 -134 22 -180
-51 -59 -127 -15 -127 72 0 86 44 131 105 108z"/>
<path d="M5560 18765 c0 -188 1 -195 20 -195 19 0 20 7 20 195 0 188 -1 195
-20 195 -19 0 -20 -7 -20 -195z"/>
<path d="M6570 18765 c0 -188 1 -195 20 -195 19 0 20 7 20 195 0 188 -1 195
-20 195 -19 0 -20 -7 -20 -195z"/>
<path d="M7730 18766 l0 -196 25 0 25 0 2 162 3 163 55 -163 c52 -154 56 -163
79 -160 22 3 30 19 80 163 l56 160 3 -162 2 -163 25 0 25 0 0 195 0 195 -37 0
-38 0 -55 -159 c-30 -88 -57 -157 -60 -155 -3 3 -28 74 -56 157 l-51 152 -41
3 -42 3 0 -195z"/>
<path d="M9570 18765 l0 -195 126 0 c124 0 125 0 122 23 -3 21 -8 22 -100 25
l-98 3 0 169 0 170 -25 0 -25 0 0 -195z"/>
<path d="M7458 18939 c-12 -7 -18 -22 -18 -44 0 -28 -4 -35 -20 -35 -13 0 -20
-7 -20 -19 0 -10 9 -21 20 -24 18 -5 20 -14 20 -114 0 -71 4 -113 12 -121 13
-13 88 -17 88 -4 0 12 -14 26 -35 38 -18 10 -20 23 -23 108 l-3 96 26 0 c18 0
25 5 25 20 0 15 -7 20 -24 20 -22 0 -25 5 -28 44 -3 39 -5 44 -20 35z"/>
<path d="M2063 18845 c-30 -13 -53 -41 -53 -64 0 -21 42 -11 62 14 36 46 128
26 128 -27 0 -16 -71 -38 -121 -38 -28 0 -79 -53 -79 -82 0 -60 72 -98 139
-74 20 7 44 17 54 21 12 5 17 3 17 -9 0 -10 9 -16 23 -16 22 0 22 2 19 107 -3
122 -13 156 -48 172 -34 15 -102 13 -141 -4z m137 -161 c0 -36 -50 -84 -88
-84 -36 0 -66 31 -57 59 6 19 22 26 100 44 39 9 45 7 45 -19z"/>
<path d="M2320 18715 c0 -135 1 -145 19 -145 16 0 19 11 23 100 6 111 19 140
68 140 17 0 30 7 34 17 14 34 -51 46 -83 14 -19 -19 -19 -19 -24 0 -3 10 -12
19 -21 19 -14 0 -16 -19 -16 -145z"/>
<path d="M2853 18840 c-42 -25 -63 -68 -63 -125 0 -95 49 -149 134 -148 54 1
93 23 114 67 19 39 17 129 -4 166 -35 58 -121 77 -181 40z m116 -37 c27 -22
40 -76 30 -122 -24 -114 -159 -92 -159 25 0 71 30 113 81 114 15 0 37 -8 48
-17z"/>
<path d="M3120 18715 c0 -138 1 -145 20 -145 18 0 20 7 20 73 1 126 22 176 78
177 12 0 31 -9 42 -20 17 -17 20 -33 20 -125 l0 -105 26 0 26 0 -4 121 c-3
118 -4 121 -31 145 -36 31 -94 32 -131 3 l-26 -20 0 20 c0 14 -6 21 -20 21
-19 0 -20 -7 -20 -145z"/>
<path d="M3970 18715 c0 -138 1 -145 20 -145 19 0 20 7 20 145 0 138 -1 145
-20 145 -19 0 -20 -7 -20 -145z"/>
<path d="M4143 18840 c-42 -25 -63 -68 -63 -125 0 -95 49 -149 134 -148 54 1
93 23 114 67 19 39 17 129 -4 166 -35 58 -121 77 -181 40z m116 -37 c27 -22
40 -76 30 -122 -24 -114 -159 -92 -159 25 0 71 30 113 81 114 15 0 37 -8 48
-17z"/>
<path d="M4380 18852 c0 -4 20 -36 44 -71 l45 -63 -50 -69 c-27 -38 -49 -71
-49 -74 0 -3 12 -5 28 -5 22 0 34 11 63 57 l37 56 37 -57 c32 -47 43 -56 67
-56 l30 0 -46 64 c-25 36 -49 71 -52 79 -2 7 16 41 41 75 25 34 45 64 45 67 0
3 -11 5 -25 5 -19 0 -34 -13 -61 -50 -20 -27 -37 -50 -38 -50 -2 0 -17 23 -34
50 -24 39 -37 50 -57 50 -14 0 -25 -4 -25 -8z"/>
<path d="M4680 18715 c0 -138 1 -145 20 -145 19 0 20 7 20 145 0 138 -1 145
-20 145 -19 0 -20 -7 -20 -145z"/>
<path d="M5142 18840 c-58 -36 -78 -122 -47 -197 18 -42 37 -59 85 -73 49 -13
102 3 134 41 32 38 33 49 1 49 -14 0 -29 -8 -35 -20 -26 -49 -108 -43 -135 11
-8 15 -15 33 -15 39 0 6 39 10 106 10 l107 0 -6 46 c-7 65 -48 105 -114 111
-36 3 -56 -1 -81 -17z m127 -46 c37 -47 29 -54 -59 -54 l-80 0 11 27 c22 58
92 73 128 27z"/>
<path d="M5732 18840 c-58 -36 -78 -122 -47 -197 18 -42 37 -59 85 -73 49 -13
102 3 134 41 32 38 33 49 1 49 -14 0 -29 -8 -35 -20 -26 -49 -108 -43 -135 11
-8 15 -15 33 -15 39 0 6 39 10 106 10 l107 0 -6 46 c-7 65 -48 105 -114 111
-36 3 -56 -1 -81 -17z m127 -46 c37 -47 29 -54 -59 -54 l-80 0 11 27 c22 58
92 73 128 27z"/>
<path d="M5962 18847 c2 -7 25 -72 53 -145 46 -123 52 -133 74 -130 21 3 30
20 72 132 27 70 49 135 49 142 0 8 -9 14 -19 14 -20 0 -23 -8 -78 -160 -9 -25
-19 -48 -22 -52 -4 -4 -22 36 -40 90 -19 53 -38 103 -44 110 -12 16 -49 16
-45 -1z"/>
<path d="M6312 18840 c-58 -36 -78 -122 -47 -197 18 -42 37 -59 85 -73 49 -13
102 3 134 41 32 38 33 49 1 49 -14 0 -29 -8 -35 -20 -26 -49 -108 -43 -135 11
-8 15 -15 33 -15 39 0 6 39 10 106 10 l107 0 -6 46 c-7 65 -48 105 -114 111
-36 3 -56 -1 -81 -17z m127 -46 c37 -47 29 -54 -59 -54 l-80 0 11 27 c22 58
92 73 128 27z"/>
<path d="M6730 18853 c-34 -12 -50 -37 -50 -74 0 -46 20 -62 107 -88 50 -15
58 -21 58 -41 0 -51 -98 -61 -120 -12 -11 25 -55 31 -55 8 0 -27 44 -67 83
-75 79 -18 147 19 147 82 0 44 -24 64 -101 87 -41 12 -70 27 -74 37 -15 41 83
61 107 23 13 -20 58 -28 58 -11 0 52 -92 89 -160 64z"/>
<path d="M7163 18845 c-30 -13 -53 -41 -53 -64 0 -21 42 -11 62 14 36 46 128
26 128 -27 0 -16 -71 -38 -121 -38 -28 0 -79 -53 -79 -82 0 -60 72 -98 139
-74 20 7 44 17 54 21 12 5 17 3 17 -9 0 -10 9 -16 23 -16 22 0 22 2 19 107 -3
122 -13 156 -48 172 -34 15 -102 13 -141 -4z m137 -161 c0 -36 -50 -84 -88
-84 -36 0 -66 31 -57 59 6 19 22 26 100 44 39 9 45 7 45 -19z"/>
<path d="M8233 18845 c-30 -13 -53 -41 -53 -64 0 -21 42 -11 62 14 36 46 128
26 128 -27 0 -16 -71 -38 -121 -38 -28 0 -79 -53 -79 -82 0 -60 72 -98 139
-74 20 7 44 17 54 21 12 5 17 3 17 -9 0 -10 9 -16 23 -16 22 0 22 2 19 107 -3
122 -13 156 -48 172 -34 15 -102 13 -141 -4z m137 -161 c0 -36 -50 -84 -88
-84 -36 0 -66 31 -57 59 6 19 22 26 100 44 39 9 45 7 45 -19z"/>
<path d="M8500 18741 c0 -110 2 -122 23 -145 31 -35 74 -41 120 -17 29 15 37
16 37 5 0 -8 10 -14 25 -14 l26 0 -3 143 c-3 137 -4 142 -25 145 -20 3 -21 -1
-25 -101 -4 -124 -17 -150 -77 -145 -50 4 -61 31 -61 151 0 90 -1 97 -20 97
-19 0 -20 -7 -20 -119z"/>
<path d="M8800 18715 c0 -138 1 -145 20 -145 18 0 20 7 20 73 1 126 22 176 78
177 12 0 31 -9 42 -20 17 -17 20 -33 20 -125 l0 -105 26 0 26 0 -4 121 c-3
118 -4 121 -31 145 -36 31 -94 32 -131 3 l-26 -20 0 20 c0 14 -6 21 -20 21
-19 0 -20 -7 -20 -145z"/>
<path d="M9153 18845 c-30 -13 -53 -41 -53 -64 0 -21 42 -11 62 14 36 46 128
26 128 -27 0 -16 -71 -38 -121 -38 -28 0 -79 -53 -79 -82 0 -60 72 -98 139
-74 20 7 44 17 54 21 12 5 17 3 17 -9 0 -10 9 -16 23 -16 22 0 22 2 19 107 -3
122 -13 156 -48 172 -34 15 -102 13 -141 -4z m137 -161 c0 -36 -50 -84 -88
-84 -36 0 -66 31 -57 59 6 19 22 26 100 44 39 9 45 7 45 -19z"/>
<path d="M9913 18840 c-42 -25 -63 -68 -63 -125 0 -95 49 -149 134 -148 54 1
93 23 114 67 19 39 17 129 -4 166 -35 58 -121 77 -181 40z m116 -37 c27 -22
40 -76 30 -122 -24 -114 -159 -92 -159 25 0 71 30 113 81 114 15 0 37 -8 48
-17z"/>
<path d="M10223 18845 c-30 -13 -53 -41 -53 -64 0 -21 42 -11 62 14 36 46 128
26 128 -27 0 -16 -71 -38 -121 -38 -28 0 -79 -53 -79 -82 0 -60 72 -98 139
-74 20 7 44 17 54 21 12 5 17 3 17 -9 0 -10 9 -16 23 -16 22 0 22 2 19 107 -3
122 -13 156 -48 172 -34 15 -102 13 -141 -4z m137 -161 c0 -36 -50 -84 -88
-84 -36 0 -66 31 -57 59 6 19 22 26 100 44 39 9 45 7 45 -19z"/>
<path d="M22583 17478 c-6 -7 -18 -53 -26 -103 -42 -235 -68 -363 -82 -395
-17 -41 -38 -185 -60 -405 -9 -88 -20 -171 -24 -184 -4 -15 -13 47 -25 170
-47 525 -65 657 -91 679 -30 25 -59 -74 -75 -260 -12 -141 -32 -241 -55 -276
-7 -11 -18 -74 -25 -140 -6 -65 -20 -164 -30 -219 -10 -55 -21 -145 -25 -200
-4 -55 -11 -106 -15 -114 -9 -16 -13 23 -45 443 -14 176 -30 347 -36 380 -12
64 -29 93 -48 82 -29 -19 -40 -69 -51 -247 -6 -101 -20 -224 -30 -274 -11 -49
-24 -137 -30 -195 -6 -58 -18 -130 -25 -160 -12 -45 -65 -513 -65 -568 0 -9
-2 -13 -5 -11 -2 3 -12 97 -20 210 -21 278 -58 587 -76 637 -5 12 -15 22 -23
22 -26 0 -36 -53 -81 -435 -9 -77 -23 -152 -31 -167 -19 -35 -38 -145 -64
-373 -12 -99 -25 -193 -29 -210 -8 -33 -13 17 -52 485 -22 268 -38 352 -70
358 -17 3 -45 -48 -53 -99 -4 -19 -17 -139 -31 -267 -16 -157 -29 -237 -38
-246 -16 -17 -41 -163 -62 -376 -9 -85 -20 -166 -24 -180 -5 -16 -14 50 -25
185 -16 198 -41 407 -69 590 -10 69 -15 80 -32 80 -21 0 -20 7 -49 -206 -9
-64 -25 -152 -37 -195 -28 -110 -113 -718 -120 -858 -2 -44 -17 52 -29 179
-20 233 -58 525 -76 588 -3 9 -13 17 -23 17 -26 0 -48 -83 -61 -230 -7 -71
-24 -170 -41 -230 -29 -110 -45 -209 -79 -499 -11 -96 -22 -176 -24 -178 -8
-8 -25 134 -36 287 -19 287 -56 470 -92 458 -15 -5 -19 -17 -54 -173 -14 -66
-39 -165 -54 -220 -16 -55 -31 -129 -35 -165 -9 -90 -63 -472 -68 -476 -2 -2
-14 103 -26 233 -50 534 -61 605 -93 611 -23 4 -45 -69 -68 -221 -10 -67 -26
-169 -34 -227 -23 -152 -84 -623 -92 -709 -4 -41 -10 -67 -14 -60 -5 8 -15 93
-25 189 -25 265 -53 480 -68 530 -17 54 -42 64 -58 23 -22 -58 -50 -181 -65
-288 -8 -60 -21 -130 -29 -155 -8 -25 -28 -153 -45 -285 -17 -132 -33 -253
-37 -270 l-6 -30 -8 35 c-4 19 -15 125 -24 235 -17 208 -47 433 -65 498 -8 26
-16 37 -30 37 -11 0 -20 -3 -20 -7 0 -5 -12 -93 -26 -197 -24 -168 -30 -194
-55 -230 -27 -39 -30 -56 -64 -341 -19 -165 -35 -307 -35 -315 0 -9 -3 -11
-10 -4 -6 6 -19 125 -30 265 -25 331 -38 435 -61 487 -16 38 -22 43 -41 37
-13 -4 -26 -10 -30 -14 -4 -3 -14 -78 -23 -166 -8 -88 -20 -176 -25 -195 -21
-70 -61 -310 -85 -514 -14 -115 -27 -212 -30 -214 -8 -8 -15 45 -35 273 -36
410 -64 590 -90 590 -31 0 -51 -71 -66 -228 -8 -83 -21 -170 -29 -192 -31 -85
-59 -262 -91 -577 -9 -93 -20 -168 -24 -168 -3 0 -14 96 -24 213 -31 375 -49
505 -74 529 -18 18 -25 20 -46 10 -30 -13 -30 -16 -51 -187 -8 -71 -29 -213
-46 -315 -31 -196 -72 -478 -86 -595 l-8 -70 -23 200 c-12 110 -29 274 -37
365 -25 302 -44 364 -90 306 -17 -22 -25 -51 -34 -134 -7 -59 -24 -168 -37
-242 -56 -305 -74 -412 -90 -554 -22 -181 -28 -169 -49 104 -34 426 -52 530
-96 530 -20 0 -40 -80 -64 -253 -8 -59 -28 -167 -44 -240 -33 -145 -63 -343
-83 -540 -7 -74 -15 -121 -20 -113 -4 8 -15 92 -23 188 -30 347 -46 467 -67
493 -44 56 -50 42 -104 -227 -18 -91 -40 -192 -48 -225 -14 -56 -23 -123 -66
-452 -18 -144 -30 -196 -30 -140 -1 73 -71 681 -82 719 -18 59 -43 65 -64 14
-21 -51 -126 -598 -155 -809 -28 -204 -26 -209 -68 207 -16 158 -32 292 -36
298 -4 6 -14 9 -22 5 -9 -3 -24 1 -33 10 -14 12 -19 13 -27 3 -6 -7 -22 -89
-37 -183 -15 -96 -34 -187 -45 -210 -13 -27 -30 -121 -53 -298 -38 -297 -38
-297 -62 58 -18 250 -24 300 -58 426 -17 65 -23 78 -43 81 -13 3 -28 2 -33 -1
-6 -3 -17 -55 -26 -115 -9 -60 -23 -132 -31 -160 -23 -80 -62 -307 -80 -461
-9 -77 -19 -162 -24 -190 l-8 -50 -6 45 c-4 25 -14 122 -22 215 -30 333 -60
475 -99 475 -10 0 -19 -16 -26 -42 -6 -24 -13 -49 -15 -55 -2 -7 -16 -104 -30
-215 -15 -112 -40 -263 -56 -336 -19 -83 -39 -227 -55 -384 -22 -227 -34 -309
-34 -235 0 153 -79 797 -102 824 -33 40 -64 -39 -78 -202 -6 -71 -17 -148 -25
-170 -22 -62 -72 -325 -91 -475 -9 -74 -20 -141 -23 -148 -4 -7 -17 108 -30
255 -36 430 -53 520 -99 511 -19 -4 -65 -120 -88 -223 -14 -65 -38 -229 -96
-648 -16 -120 -25 -161 -31 -145 -5 13 -15 115 -23 228 -28 395 -56 570 -93
570 -24 0 -51 -82 -65 -198 -15 -116 -57 -361 -78 -452 -5 -25 -22 -142 -38
-260 -15 -118 -30 -208 -33 -200 -3 8 -13 98 -22 200 -20 224 -50 467 -68 535
-8 32 -17 50 -27 50 -28 0 -51 -74 -76 -242 -14 -92 -34 -202 -44 -243 -10
-41 -33 -193 -51 -337 -18 -145 -35 -263 -39 -263 -7 0 -31 220 -60 555 -21
229 -36 300 -65 300 -16 0 -23 -21 -47 -135 -15 -74 -35 -177 -43 -228 -8 -52
-21 -106 -29 -120 -7 -15 -16 -47 -19 -72 -32 -238 -61 -438 -66 -453 -6 -17
-21 138 -61 637 -15 191 -21 233 -37 254 -11 14 -25 28 -31 30 -20 6 -43 -65
-63 -188 -10 -63 -29 -166 -43 -229 -25 -107 -76 -433 -92 -586 l-8 -70 -8 50
c-4 28 -14 142 -23 255 -18 237 -43 514 -50 550 -21 122 -27 140 -44 140 -31
0 -49 -73 -80 -325 -31 -243 -51 -363 -71 -406 -6 -13 -21 -100 -34 -194 -13
-93 -26 -163 -29 -155 -3 8 -11 71 -17 140 -28 317 -68 623 -86 651 -9 15 -32
10 -38 -8 -3 -10 -10 -47 -16 -83 -7 -36 -25 -112 -40 -170 -16 -58 -34 -141
-40 -185 -6 -44 -20 -127 -30 -185 -10 -58 -27 -167 -36 -242 -10 -76 -21
-138 -26 -138 -4 0 -8 9 -8 21 0 49 -42 508 -54 598 -14 96 -34 163 -54 175
-6 3 -21 -7 -34 -23 -21 -25 -26 -46 -37 -159 -13 -132 -26 -197 -54 -262 -8
-19 -22 -96 -31 -170 -19 -158 -53 -381 -59 -386 -5 -5 -12 59 -32 306 -25
297 -56 440 -96 440 -18 0 -41 -78 -59 -195 -10 -66 -24 -144 -30 -173 -7 -29
-35 -213 -64 -410 l-52 -357 -12 110 c-6 61 -16 164 -22 230 -31 349 -64 495
-101 458 -15 -15 -36 -114 -49 -228 -20 -182 -42 -300 -57 -317 -9 -10 -26
-102 -49 -264 -18 -136 -35 -249 -37 -251 -7 -6 -27 136 -37 262 -37 435 -55
535 -94 535 -23 0 -45 -87 -62 -250 -10 -92 -31 -208 -59 -320 -24 -99 -51
-239 -61 -323 -9 -81 -19 -145 -21 -143 -2 2 -20 156 -39 342 -36 362 -57 476
-87 482 -9 2 -19 -2 -21 -10 -34 -107 -60 -227 -72 -328 -19 -164 -31 -232
-54 -305 -10 -33 -26 -134 -36 -225 -9 -91 -20 -176 -23 -188 -4 -13 -15 77
-25 200 -36 444 -68 643 -104 636 -21 -4 -36 -60 -62 -236 -11 -73 -33 -186
-49 -250 -35 -142 -35 -141 -65 -376 -14 -103 -27 -190 -28 -192 -2 -2 -14
110 -27 249 -39 431 -61 557 -97 557 -30 0 -48 -76 -69 -298 -8 -84 -19 -161
-25 -173 -13 -23 -47 -212 -87 -479 -32 -215 -31 -216 -58 118 -18 236 -48
484 -67 557 -9 32 -19 51 -30 53 -23 4 -40 -57 -78 -288 -16 -102 -39 -228
-50 -280 -11 -52 -31 -183 -46 -290 -28 -215 -33 -244 -39 -238 -2 2 -13 120
-25 263 -39 490 -55 585 -94 585 -33 0 -61 -112 -115 -466 -45 -290 -85 -524
-92 -524 -6 0 -20 119 -53 468 -19 196 -27 247 -41 262 -23 25 -41 25 -55 1
-20 -39 -50 -189 -65 -331 -9 -80 -24 -170 -34 -200 -10 -30 -26 -109 -35
-175 -9 -66 -23 -171 -31 -234 -14 -105 -25 -152 -25 -105 0 11 -16 174 -35
363 -19 188 -35 344 -35 347 0 2 -11 4 -25 4 -14 0 -25 -5 -25 -11 0 -5 -4 -8
-9 -5 -27 17 -64 -104 -81 -269 -7 -60 -20 -139 -30 -175 -10 -36 -33 -170
-51 -298 -19 -128 -35 -229 -36 -225 -1 4 -14 141 -28 303 -15 162 -32 338
-38 390 l-12 95 -33 3 c-30 3 -34 0 -51 -40 -11 -25 -29 -113 -41 -208 -12
-91 -30 -187 -40 -215 -15 -40 -80 -453 -80 -506 0 -8 -3 -10 -10 -3 -5 5 -16
97 -25 204 -18 227 -49 473 -68 545 -10 38 -18 50 -32 50 -15 0 -22 -12 -32
-55 -18 -75 -50 -301 -63 -438 -6 -62 -17 -130 -25 -150 -18 -47 -39 -174 -61
-370 -10 -84 -21 -147 -25 -140 -6 13 -18 127 -40 414 -6 77 -23 199 -38 270
-23 111 -29 129 -47 132 -32 5 -51 -28 -63 -108 -6 -41 -20 -118 -31 -170 -20
-94 -83 -476 -96 -578 -4 -29 -10 -54 -14 -57 -8 -5 -12 30 -40 330 -33 361
-52 455 -90 455 -21 0 -41 -75 -65 -238 -8 -57 -19 -111 -24 -121 -20 -36 -44
-153 -76 -374 -32 -214 -45 -275 -45 -216 0 13 -11 137 -25 274 -24 253 -68
542 -85 559 -24 24 -59 -59 -75 -179 -4 -27 -17 -104 -30 -170 -13 -66 -26
-149 -30 -185 -7 -73 -26 -150 -59 -254 l-23 -70 -7 84 c-25 286 -66 578 -87
622 -41 81 -51 63 -89 -167 -17 -105 -38 -217 -45 -250 -14 -62 -88 -488 -101
-585 l-8 -55 -7 49 c-4 27 -15 118 -24 201 -13 134 -56 408 -71 458 -9 28 -32
19 -53 -21 -13 -26 -22 -79 -31 -182 -8 -97 -17 -151 -27 -162 -18 -20 -64
-226 -93 -418 -12 -80 -23 -146 -24 -147 -1 -1 -12 111 -24 250 -35 387 -59
517 -98 517 -19 0 -23 -10 -44 -129 -11 -61 -36 -155 -55 -208 -24 -67 -45
-157 -66 -283 -28 -172 -46 -256 -48 -220 -2 34 -51 470 -61 544 -15 103 -36
155 -68 167 -15 6 -29 6 -34 1 -5 -5 -16 -54 -24 -108 -8 -54 -34 -205 -59
-334 -24 -129 -49 -271 -55 -315 -6 -44 -14 -91 -17 -105 -5 -21 -7 -19 -14
20 -4 25 -17 146 -28 270 -27 303 -58 445 -97 445 -25 0 -38 -48 -75 -275 -16
-102 -36 -203 -44 -225 -8 -22 -20 -71 -26 -110 -12 -80 -49 -383 -49 -404 0
-8 -2 -12 -5 -9 -7 7 -22 135 -40 348 -23 272 -38 358 -69 389 -16 16 -29 22
-35 16 -14 -16 -39 -104 -51 -185 -17 -105 -37 -190 -70 -297 -16 -51 -39
-167 -52 -260 -12 -92 -24 -159 -25 -148 -2 11 -19 163 -38 338 -45 403 -61
483 -93 463 -18 -11 -41 -99 -56 -216 -9 -70 -26 -147 -44 -195 -30 -82 -50
-185 -78 -405 -9 -69 -17 -126 -18 -127 -1 -2 -12 109 -25 245 -40 444 -58
542 -101 542 -40 0 -50 -23 -65 -140 -7 -63 -25 -171 -39 -240 -14 -69 -34
-181 -45 -250 -11 -69 -27 -150 -36 -180 -8 -30 -15 -73 -16 -95 l-1 -40 -13
52 c-7 28 -18 136 -24 240 -13 205 -22 257 -53 320 -23 46 -35 54 -67 46 -23
-6 -26 -13 -41 -128 -6 -44 -18 -98 -26 -120 -7 -22 -23 -85 -34 -140 -56
-286 -78 -379 -83 -355 -3 14 -11 84 -17 155 -37 440 -67 605 -107 605 -21 0
-43 -61 -63 -175 -10 -55 -30 -136 -44 -180 -14 -45 -40 -178 -58 -302 -18
-123 -35 -223 -38 -223 -4 0 -12 55 -19 122 -6 68 -23 238 -37 378 -30 312
-52 406 -85 373 -16 -16 -27 -70 -49 -248 -23 -174 -35 -235 -57 -279 -8 -16
-29 -114 -47 -219 -20 -119 -35 -182 -39 -167 -11 50 -27 179 -37 315 -17 231
-57 415 -90 415 -23 0 -50 -70 -70 -184 -12 -67 -28 -152 -36 -191 -8 -38 -33
-162 -56 -274 -27 -135 -44 -198 -49 -185 -4 10 -15 102 -24 204 -17 194 -46
407 -68 500 -10 43 -17 55 -32 55 -17 0 -22 -19 -47 -162 -15 -89 -46 -244
-69 -345 -23 -101 -52 -246 -64 -323 -25 -165 -25 -165 -50 155 -35 436 -63
596 -103 588 -21 -4 -36 -67 -57 -248 -9 -74 -29 -178 -45 -230 -34 -113 -90
-360 -90 -398 0 -15 -4 -33 -9 -41 -10 -16 -22 65 -56 383 -26 236 -34 266
-75 266 -19 0 -42 -65 -60 -170 -6 -36 -20 -85 -30 -110 -25 -57 -56 -207 -81
-384 -11 -77 -22 -142 -24 -145 -3 -2 -5 0 -5 6 0 39 -32 301 -44 358 -7 39
-19 111 -26 160 -13 93 -41 165 -63 165 -38 0 -48 -24 -62 -155 -8 -72 -15
-133 -15 -137 0 -5 11 -8 24 -8 23 0 24 4 31 91 4 50 11 103 15 118 7 26 7 25
13 -9 27 -149 59 -366 71 -475 20 -174 38 -234 68 -222 19 7 44 106 63 252 21
157 51 299 75 355 11 25 27 87 36 138 9 51 18 91 20 89 3 -2 16 -109 29 -238
28 -269 39 -338 66 -431 35 -121 54 -106 74 63 18 148 56 330 96 455 22 72 59
292 59 353 0 6 4 11 8 11 9 0 25 -136 42 -350 25 -321 42 -454 62 -487 39 -65
49 -44 82 183 14 94 37 220 52 280 14 60 41 183 59 274 18 91 35 158 38 150
10 -27 36 -249 58 -500 21 -240 32 -291 58 -265 15 15 57 180 91 355 17 85 35
169 40 185 6 17 24 109 40 205 17 95 32 175 34 178 13 12 34 -125 51 -336 15
-176 43 -371 66 -455 14 -54 41 -47 51 13 59 360 82 489 93 511 21 39 42 142
55 259 22 204 22 203 60 -210 41 -445 55 -520 96 -520 23 0 29 29 68 300 20
142 47 288 61 330 13 41 33 124 44 184 12 61 23 111 25 113 8 8 45 -314 71
-617 9 -102 21 -189 26 -194 14 -15 58 10 64 36 3 13 18 93 35 178 45 236 78
391 94 435 8 22 17 70 21 108 4 37 11 67 15 67 22 0 39 -88 49 -255 17 -250
49 -444 82 -479 21 -23 36 19 49 136 7 68 19 141 27 162 7 21 22 97 33 169 11
71 31 184 44 251 14 66 30 165 37 219 6 54 13 96 16 94 11 -11 31 -191 68
-597 22 -241 49 -340 85 -304 5 5 16 77 25 159 26 249 62 454 93 540 17 46 35
124 43 185 17 136 19 127 64 -285 49 -459 41 -415 80 -415 38 0 32 -22 66 240
13 110 34 212 60 305 22 77 49 194 60 260 11 66 22 121 24 124 9 8 31 -144 40
-269 18 -244 47 -475 61 -491 14 -16 49 -16 58 0 4 6 22 135 62 431 9 69 25
148 34 175 10 28 23 86 29 130 21 156 45 276 51 263 14 -26 29 -135 40 -278
26 -349 67 -546 106 -507 9 9 22 75 44 232 12 83 41 254 65 380 25 127 47 256
51 288 4 31 11 57 15 57 5 0 9 -3 9 -7 0 -5 5 -37 11 -73 6 -36 25 -199 43
-363 19 -164 36 -300 39 -304 13 -12 58 9 67 31 5 13 25 120 44 237 26 152 49
252 81 350 25 76 45 149 45 163 0 14 4 26 8 26 11 0 26 -124 52 -430 26 -302
31 -334 51 -338 33 -6 51 47 79 242 33 227 76 426 95 440 10 8 18 54 26 148 7
76 14 137 15 135 8 -7 38 -218 59 -402 34 -302 36 -313 52 -319 8 -3 24 4 37
17 18 18 24 42 35 137 13 114 92 579 110 649 6 20 19 94 31 165 11 72 22 131
24 133 4 5 44 -319 62 -507 16 -172 24 -208 53 -235 25 -22 36 -5 50 79 7 38
23 102 37 143 14 41 31 122 40 181 13 95 56 345 72 412 11 50 39 -158 77 -565
21 -234 21 -234 51 -241 14 -4 30 -2 35 3 5 5 21 85 34 179 50 328 66 420 90
491 13 39 30 113 36 165 7 51 15 102 19 112 7 20 31 -169 50 -394 27 -316 44
-390 91 -390 19 0 21 9 84 410 35 216 77 452 94 515 12 46 48 -165 61 -360 22
-317 40 -458 63 -482 11 -13 26 -23 33 -23 16 0 17 8 49 270 30 238 49 353 65
395 7 17 20 104 30 195 19 178 41 333 45 328 8 -8 36 -238 45 -368 5 -80 17
-205 27 -279 15 -120 19 -134 40 -144 30 -14 49 3 56 51 59 412 80 538 91 560
7 15 19 70 25 122 21 159 43 284 52 294 6 6 9 2 9 -10 0 -10 7 -77 14 -149 8
-71 25 -249 37 -395 12 -146 26 -275 30 -287 7 -18 13 -20 36 -14 26 7 29 12
40 87 6 43 25 176 43 294 17 118 37 235 45 260 8 25 19 90 25 145 13 114 38
246 50 258 10 11 13 -14 50 -393 41 -417 38 -400 61 -400 41 0 61 72 88 315
18 161 41 297 57 339 9 22 22 99 30 170 14 126 40 285 48 293 6 6 14 -55 26
-192 15 -171 60 -568 65 -576 8 -12 55 -17 62 -6 6 11 71 387 108 632 27 177
66 388 70 383 6 -6 26 -195 45 -443 29 -365 41 -449 62 -453 32 -6 55 31 62
104 18 170 59 451 86 584 17 80 39 206 50 280 12 74 23 136 24 138 9 8 30
-177 51 -433 18 -225 34 -388 41 -432 4 -28 9 -33 34 -33 16 0 31 3 34 8 2 4
16 95 31 202 14 107 32 225 40 261 8 36 21 111 29 165 9 55 22 116 30 135 7
19 20 99 26 179 7 80 16 156 20 170 9 33 23 -82 60 -472 16 -169 31 -312 35
-318 3 -5 14 -10 23 -10 42 1 40 -7 97 416 9 66 22 147 30 180 54 240 66 299
76 377 6 48 13 87 14 85 8 -9 47 -396 80 -805 8 -91 22 -108 54 -67 25 32 25
34 57 304 14 124 30 233 35 242 15 28 38 153 54 291 8 73 23 161 32 197 17 64
17 64 24 30 4 -19 24 -201 44 -405 37 -360 38 -371 63 -393 20 -19 27 -21 37
-10 7 7 24 107 39 223 17 136 42 274 71 390 29 121 48 224 56 313 6 73 15 130
19 125 4 -4 20 -141 34 -303 25 -276 63 -509 86 -534 20 -20 38 4 44 61 31
256 79 569 90 586 19 30 34 109 56 293 10 85 20 158 23 160 5 5 26 -184 58
-511 28 -299 27 -293 72 -276 20 8 27 19 31 53 34 252 110 766 121 813 7 33
18 96 25 140 20 145 22 148 36 80 8 -33 22 -166 33 -295 36 -413 44 -451 92
-403 22 21 52 182 84 448 11 86 28 174 45 226 17 52 33 131 40 195 12 118 19
159 25 152 6 -6 33 -233 45 -378 24 -301 43 -465 56 -479 10 -12 16 -10 36 12
21 22 27 48 46 194 40 293 80 534 114 670 17 73 34 131 36 129 6 -6 20 -125
52 -451 36 -358 37 -365 56 -365 28 0 52 60 64 163 21 174 49 339 70 417 11
41 34 183 51 315 16 131 31 241 33 242 6 6 14 -77 36 -337 23 -284 48 -556 57
-612 4 -27 11 -38 22 -38 44 0 50 19 76 225 32 250 59 419 90 560 14 61 31
154 39 209 13 87 26 135 26 95 0 -63 79 -960 86 -970 3 -5 12 -9 19 -9 36 0
60 103 109 466 13 100 31 195 39 210 7 16 19 67 26 114 7 47 21 121 30 165
l18 80 6 -50 c4 -27 9 -86 12 -130 15 -195 68 -671 77 -682 13 -16 68 10 68
32 0 44 82 648 94 695 8 30 24 118 36 195 24 158 29 189 34 184 7 -7 35 -254
61 -524 29 -310 32 -325 51 -325 35 0 50 57 78 287 16 126 48 332 71 458 24
127 49 281 56 343 7 62 16 107 20 100 8 -16 35 -277 50 -493 14 -202 32 -292
64 -325 17 -16 28 -21 35 -14 5 5 16 62 24 125 71 560 114 830 145 900 18 40
20 41 25 19 10 -49 17 -113 36 -343 32 -368 42 -456 54 -460 21 -8 55 12 60
35 3 13 17 110 31 217 24 182 67 412 99 527 8 27 17 94 21 147 4 54 9 96 12
94 11 -11 35 -218 63 -527 17 -184 32 -345 35 -358 4 -15 12 -22 22 -20 31 6
51 106 82 413 19 189 39 337 55 400 13 55 36 192 51 305 14 113 30 214 34 225
10 25 34 -156 61 -475 21 -241 30 -290 50 -290 32 0 63 135 90 390 14 132 55
363 80 455 10 39 22 98 26 133 4 34 10 62 14 62 9 0 39 -140 45 -215 3 -33 14
-181 25 -330 26 -355 27 -365 50 -365 28 0 47 73 75 290 42 332 56 414 72 439
9 14 26 89 38 168 22 138 28 163 41 151 3 -3 18 -131 34 -284 29 -271 46 -399
56 -416 3 -4 16 -8 30 -8 34 0 39 17 64 215 11 94 46 303 76 465 58 309 62
326 69 318 2 -2 16 -119 30 -259 57 -577 63 -608 113 -526 15 25 28 98 56 327
21 162 44 324 52 360 9 36 31 141 50 234 19 93 36 171 38 173 4 5 24 -168 41
-377 19 -214 31 -295 52 -337 16 -33 41 -50 53 -36 4 4 19 121 34 258 30 280
46 380 83 540 22 97 62 335 63 374 0 8 2 12 4 10 8 -7 25 -161 41 -374 16
-202 38 -376 50 -395 8 -13 52 -13 60 0 3 5 15 85 26 177 24 206 41 314 79
508 16 83 37 207 46 278 9 70 19 125 21 123 3 -2 13 -100 23 -218 17 -202 52
-528 68 -648 14 -109 68 -61 83 74 25 220 42 354 64 486 44 272 75 475 81 545
8 88 19 112 28 59 11 -67 34 -298 57 -564 24 -291 36 -326 77 -242 19 36 40
171 62 402 18 180 50 380 75 459 14 44 26 118 31 176 3 55 10 109 14 119 7 20
30 -159 50 -389 15 -173 40 -416 46 -442 2 -13 11 -23 19 -23 41 0 72 116 95
355 12 122 63 429 85 515 8 30 19 109 25 175 6 65 13 121 15 123 11 11 28
-147 50 -453 14 -187 23 -266 41 -357 7 -33 33 -37 58 -9 17 18 49 242 87 591
10 98 16 121 40 156 23 34 31 64 46 162 9 67 19 119 21 118 7 -8 22 -141 37
-331 19 -239 39 -351 68 -382 44 -49 47 -39 92 303 19 154 43 304 51 334 8 30
24 114 34 185 18 123 38 211 45 203 5 -5 33 -243 50 -423 29 -308 48 -395 90
-395 18 0 21 13 40 185 23 215 82 662 110 840 14 88 28 177 31 198 3 21 7 37
9 35 2 -2 13 -104 24 -228 28 -295 60 -599 66 -627 3 -14 13 -23 24 -23 37 0
47 48 111 545 11 83 31 191 44 240 14 50 35 131 48 182 12 51 23 91 25 90 7
-8 25 -159 38 -332 14 -179 24 -260 41 -348 6 -30 50 -55 66 -39 5 5 20 99 34
208 43 351 62 477 89 567 14 49 30 143 37 212 6 69 13 123 15 121 7 -6 35
-231 53 -421 10 -110 24 -235 31 -278 10 -69 15 -80 36 -88 45 -17 44 -22 68
234 19 199 89 689 105 733 6 17 19 78 29 135 l17 104 12 -75 c7 -41 21 -178
32 -305 36 -397 43 -449 61 -453 10 -2 26 9 37 25 16 23 24 74 46 273 31 285
48 384 68 408 11 12 22 86 38 242 12 124 25 243 29 265 l8 40 7 -55 c3 -30 18
-190 31 -355 30 -360 48 -532 57 -541 15 -14 37 7 48 43 16 58 37 199 60 393
24 210 37 286 55 314 13 19 43 224 60 404 4 40 9 72 10 70 6 -6 44 -361 55
-518 6 -85 18 -199 26 -252 8 -54 14 -100 14 -103 0 -3 8 -5 19 -5 30 0 48 89
75 375 14 143 35 303 45 355 11 52 25 142 31 200 7 58 18 130 25 160 12 47 33
275 36 382 l1 33 8 -30 c5 -16 13 -102 20 -190 32 -464 61 -728 81 -750 12
-13 33 11 48 55 7 19 19 105 27 190 8 85 21 189 29 230 8 41 20 131 26 200 7
75 19 139 29 160 24 48 38 121 55 278 8 74 16 137 19 140 4 3 6 -2 6 -10 0 -8
7 -80 15 -159 8 -79 26 -270 40 -424 17 -181 31 -285 39 -293 11 -11 18 -8 40
18 14 17 26 39 26 49 0 27 59 541 69 601 5 31 16 71 25 90 8 19 22 78 31 131
8 53 23 130 32 170 l17 74 18 -195 c20 -222 56 -554 63 -587 8 -36 34 -27 54
20 13 29 23 96 33 205 l13 162 -21 0 c-23 0 -24 -4 -40 -180 -4 -41 -9 -70
-10 -65 -5 14 -41 373 -55 540 -15 178 -44 263 -76 223z"/>
<path d="M800 14243 c-14 -18 -17 -30 -11 -36 7 -7 17 -2 31 16 34 43 80 30
80 -21 0 -17 -8 -27 -30 -35 -38 -14 -38 -21 2 -32 35 -10 44 -30 34 -70 -11
-42 -78 -45 -91 -4 -7 21 -35 26 -35 6 0 -26 45 -57 81 -57 69 0 112 94 60
129 -18 11 -19 15 -6 28 8 8 15 27 15 43 0 60 -91 83 -130 33z"/>
<path d="M1011 14244 c-58 -73 24 -188 91 -127 10 9 20 14 23 12 10 -11 -17
-79 -36 -89 -23 -13 -55 -5 -63 15 -3 8 -12 15 -21 15 -13 0 -14 -4 -4 -22 16
-30 28 -38 62 -38 39 0 62 14 75 47 29 75 20 164 -19 196 -33 26 -83 22 -108
-9z m91 -11 c20 -18 24 -73 6 -91 -7 -7 -24 -12 -38 -12 -35 0 -50 17 -50 56
0 23 7 38 22 48 28 20 37 20 60 -1z"/>
<path d="M1232 14263 c-58 -23 -55 -224 3 -247 33 -12 66 -5 90 19 22 21 25
33 25 95 0 74 -16 123 -45 134 -19 7 -54 7 -73 -1z m68 -33 c27 -27 29 -153 3
-182 -44 -48 -83 -4 -83 94 0 55 4 72 20 88 11 11 25 20 30 20 6 0 19 -9 30
-20z"/>
<path d="M1470 14150 c0 -18 7 -20 55 -20 48 0 55 2 55 20 0 18 -7 20 -55 20
-48 0 -55 -2 -55 -20z"/>
<path d="M378 10879 c-58 -9 -152 -58 -156 -81 -3 -15 5 -14 55 10 51 24 70
27 158 27 89 0 106 -3 153 -27 62 -33 62 -32 62 -14 0 20 -134 83 -185 88 -22
3 -61 1 -87 -3z"/>
<path d="M332 10704 c-27 -18 -30 -78 -6 -105 15 -16 15 -20 0 -41 -20 -29
-21 -82 0 -99 14 -11 14 -13 0 -21 -9 -5 -16 -16 -16 -23 0 -12 22 -15 120
-15 113 0 120 1 120 20 0 18 -7 20 -74 20 -91 0 -123 11 -132 45 -11 45 8 55
112 55 87 0 94 1 94 20 0 18 -7 20 -74 20 -41 0 -86 4 -99 9 -30 12 -42 43
-27 71 10 18 20 20 105 20 88 0 95 1 95 20 0 19 -7 20 -98 20 -72 0 -103 -4
-120 -16z"/>
<path d="M383 10339 c-59 -17 -91 -87 -63 -140 7 -13 7 -19 0 -19 -5 0 -10 -9
-10 -20 0 -19 7 -20 165 -20 158 0 165 1 165 20 0 18 -7 20 -57 20 -44 0 -54
3 -45 12 19 19 14 82 -8 111 -12 15 -38 31 -58 37 -43 11 -46 11 -89 -1z m115
-55 c14 -10 22 -26 22 -44 0 -38 -32 -60 -86 -60 -77 0 -124 68 -72 104 12 9
43 16 68 16 25 0 56 -7 68 -16z"/>
<path d="M383 10089 c-59 -17 -91 -87 -63 -140 7 -13 7 -19 0 -19 -5 0 -10 -9
-10 -20 0 -19 7 -20 165 -20 158 0 165 1 165 20 0 18 -7 20 -57 20 -44 0 -54
3 -45 12 19 19 14 82 -8 111 -12 15 -38 31 -58 37 -43 11 -46 11 -89 -1z m115
-55 c14 -10 22 -26 22 -44 0 -38 -32 -60 -86 -60 -77 0 -124 68 -72 104 12 9
43 16 68 16 25 0 56 -7 68 -16z"/>
<path d="M220 9818 c0 -17 56 -53 114 -72 93 -32 218 -11 291 48 44 35 26 40
-40 10 -85 -37 -174 -42 -263 -15 -39 12 -74 26 -77 31 -9 14 -25 12 -25 -2z"/>
<path d="M800 9563 c-14 -18 -17 -30 -11 -36 7 -7 17 -2 31 16 34 43 80 30 80
-21 0 -17 -8 -27 -30 -35 -38 -14 -38 -21 2 -32 35 -10 44 -30 34 -70 -11 -42
-78 -45 -91 -4 -7 21 -35 26 -35 6 0 -26 45 -57 81 -57 69 0 112 94 60 129
-18 11 -19 15 -6 28 8 8 15 27 15 43 0 60 -91 83 -130 33z"/>
<path d="M1015 9558 c-25 -30 -27 -37 -23 -111 3 -68 6 -81 27 -98 48 -39 129
-13 132 44 3 46 -3 63 -27 85 -29 26 -52 28 -80 7 -29 -22 -33 -18 -23 22 13
60 54 80 86 43 18 -21 43 -27 43 -10 0 22 -41 50 -74 50 -26 0 -41 -8 -61 -32z
m101 -117 c19 -37 -7 -90 -43 -91 -21 0 -53 38 -53 64 0 55 72 75 96 27z"/>
<path d="M1232 9583 c-58 -23 -55 -224 3 -247 33 -12 66 -5 90 19 22 21 25 33
25 95 0 74 -16 123 -45 134 -19 7 -54 7 -73 -1z m68 -33 c27 -27 29 -153 3
-182 -44 -48 -83 -4 -83 94 0 55 4 72 20 88 11 11 25 20 30 20 6 0 19 -9 30
-20z"/>
<path d="M255 9526 c-51 -51 -41 -141 17 -169 18 -9 36 -13 40 -11 17 11 7 35
-17 44 -32 12 -45 46 -33 82 22 63 80 45 166 -51 34 -38 75 -74 92 -79 l30
-11 0 110 c0 102 -1 109 -20 109 -18 0 -20 -7 -20 -82 l0 -83 -61 68 c-91 100
-146 121 -194 73z"/>
<path d="M1470 9470 c0 -18 7 -20 55 -20 48 0 55 2 55 20 0 18 -7 20 -55 20
-48 0 -55 -2 -55 -20z"/>
<path d="M348 9300 c-77 -14 -128 -73 -128 -148 0 -99 61 -157 165 -157 102 0
167 59 167 150 0 109 -89 176 -204 155z m108 -56 c58 -28 78 -88 49 -144 -20
-39 -63 -60 -120 -60 -80 0 -128 42 -128 110 0 89 105 138 199 94z"/>
<path d="M440 8920 c0 -11 12 -26 29 -34 56 -30 64 -110 15 -157 -19 -18 -39
-24 -87 -27 -78 -4 -121 19 -136 74 -12 45 6 99 38 109 25 8 28 33 4 42 -11 4
-27 -5 -50 -30 -27 -31 -33 -44 -33 -83 0 -120 98 -186 223 -150 78 23 109 64
109 143 0 49 -18 85 -55 111 -41 27 -57 28 -57 2z"/>
<path d="M800 4883 c-14 -18 -17 -30 -11 -36 7 -7 17 -2 31 16 34 43 80 30 80
-21 0 -17 -8 -27 -30 -35 -38 -14 -38 -21 2 -32 35 -10 44 -30 34 -70 -11 -42
-78 -45 -91 -4 -7 21 -35 26 -35 6 0 -26 45 -57 81 -57 69 0 112 94 60 129
-18 11 -19 15 -6 28 8 8 15 27 15 43 0 60 -91 83 -130 33z"/>
<path d="M1010 4883 c-14 -18 -17 -30 -11 -36 7 -7 17 -2 31 16 34 43 80 30
80 -21 0 -17 -8 -27 -30 -35 -38 -14 -38 -21 2 -32 35 -10 44 -30 34 -70 -11
-42 -78 -45 -91 -4 -7 21 -35 26 -35 6 0 -26 45 -57 81 -57 69 0 112 94 60
129 -18 11 -19 15 -6 28 8 8 15 27 15 43 0 60 -91 83 -130 33z"/>
<path d="M1232 4903 c-58 -23 -55 -224 3 -247 33 -12 66 -5 90 19 22 21 25 33
25 95 0 74 -16 123 -45 134 -19 7 -54 7 -73 -1z m68 -33 c27 -27 29 -153 3
-182 -44 -48 -83 -4 -83 94 0 55 4 72 20 88 11 11 25 20 30 20 6 0 19 -9 30
-20z"/>
<path d="M1470 4790 c0 -18 7 -20 55 -20 48 0 55 2 55 20 0 18 -7 20 -55 20
-48 0 -55 -2 -55 -20z"/>
<path d="M3180 1255 c0 -48 2 -55 20 -55 18 0 20 7 20 55 0 48 -2 55 -20 55
-18 0 -20 -7 -20 -55z"/>
<path d="M6510 1255 c0 -48 2 -55 20 -55 18 0 20 7 20 55 0 48 -2 55 -20 55
-18 0 -20 -7 -20 -55z"/>
<path d="M9830 1255 c0 -48 2 -55 20 -55 18 0 20 7 20 55 0 48 -2 55 -20 55
-18 0 -20 -7 -20 -55z"/>
<path d="M13160 1255 c0 -48 2 -55 20 -55 18 0 20 7 20 55 0 48 -2 55 -20 55
-18 0 -20 -7 -20 -55z"/>
<path d="M16480 1255 c0 -48 2 -55 20 -55 18 0 20 7 20 55 0 48 -2 55 -20 55
-18 0 -20 -7 -20 -55z"/>
<path d="M19800 1255 c0 -52 1 -55 25 -55 24 0 25 3 25 55 0 52 -1 55 -25 55
-24 0 -25 -3 -25 -55z"/>
<path d="M23130 1255 c0 -48 2 -55 20 -55 18 0 20 7 20 55 0 48 -2 55 -20 55
-18 0 -20 -7 -20 -55z"/>
<path d="M2893 1087 c-4 -8 -20 -22 -35 -32 -16 -9 -28 -24 -28 -31 0 -12 5
-12 30 1 16 8 31 15 35 15 3 0 5 -45 5 -100 0 -82 3 -100 15 -100 13 0 15 21
15 130 0 107 -3 130 -15 130 -7 0 -18 -6 -22 -13z"/>
<path d="M3031 1074 c-58 -73 24 -188 91 -127 10 9 20 14 23 12 10 -11 -17
-79 -36 -89 -23 -13 -55 -5 -63 15 -3 8 -12 15 -21 15 -13 0 -14 -4 -4 -22 16
-30 28 -38 62 -38 39 0 62 14 75 47 29 75 20 164 -19 196 -33 26 -83 22 -108
-9z m91 -11 c20 -18 24 -73 6 -91 -7 -7 -24 -12 -38 -12 -35 0 -50 17 -50 56
0 23 7 38 22 48 28 20 37 20 60 -1z"/>
<path d="M3245 1068 c-25 -30 -27 -37 -23 -111 3 -68 6 -81 27 -98 48 -39 129
-13 132 44 3 46 -3 63 -27 85 -29 26 -52 28 -80 7 -29 -22 -33 -18 -23 22 13
60 54 80 86 43 18 -21 43 -27 43 -10 0 22 -41 50 -74 50 -26 0 -41 -8 -61 -32z
m101 -117 c19 -37 -7 -90 -43 -91 -21 0 -53 38 -53 64 0 55 72 75 96 27z"/>
<path d="M3462 1093 c-58 -23 -55 -224 3 -247 33 -12 66 -5 90 19 22 21 25 33
25 95 0 74 -16 123 -45 134 -19 7 -54 7 -73 -1z m68 -33 c27 -27 29 -153 3
-182 -44 -48 -83 -4 -83 94 0 55 4 72 20 88 11 11 25 20 30 20 6 0 19 -9 30
-20z"/>
<path d="M6213 1087 c-4 -8 -20 -22 -35 -32 -16 -9 -28 -24 -28 -31 0 -12 5
-12 30 1 16 8 31 15 35 15 3 0 5 -45 5 -100 0 -82 3 -100 15 -100 13 0 15 21
15 130 0 107 -3 130 -15 130 -7 0 -18 -6 -22 -13z"/>
<path d="M6361 1074 c-58 -73 24 -188 91 -127 10 9 20 14 23 12 10 -11 -17
-79 -36 -89 -23 -13 -55 -5 -63 15 -3 8 -12 15 -21 15 -13 0 -14 -4 -4 -22 16
-30 28 -38 62 -38 39 0 62 14 75 47 29 75 20 164 -19 196 -33 26 -83 22 -108
-9z m91 -11 c20 -18 24 -73 6 -91 -7 -7 -24 -12 -38 -12 -35 0 -50 17 -50 56
0 23 7 38 22 48 28 20 37 20 60 -1z"/>
<path d="M6540 1085 c0 -12 13 -15 60 -15 33 0 60 -3 60 -6 0 -3 -9 -19 -21
-35 -25 -36 -59 -129 -59 -164 0 -16 6 -25 15 -25 8 0 15 8 15 18 0 39 32 123
65 172 19 29 35 56 35 61 0 5 -38 9 -85 9 -69 0 -85 -3 -85 -15z"/>
<path d="M6792 1093 c-58 -23 -55 -224 3 -247 33 -12 66 -5 90 19 22 21 25 33
25 95 0 74 -16 123 -45 134 -19 7 -54 7 -73 -1z m68 -33 c27 -27 29 -153 3
-182 -44 -48 -83 -4 -83 94 0 55 4 72 20 88 11 11 25 20 30 20 6 0 19 -9 30
-20z"/>
<path d="M9543 1087 c-4 -8 -20 -22 -35 -32 -16 -9 -28 -24 -28 -31 0 -12 5
-12 30 1 16 8 31 15 35 15 3 0 5 -45 5 -100 0 -82 3 -100 15 -100 13 0 15 21
15 130 0 107 -3 130 -15 130 -7 0 -18 -6 -22 -13z"/>
<path d="M9681 1074 c-58 -73 24 -188 91 -127 10 9 20 14 23 12 10 -11 -17
-79 -36 -89 -23 -13 -55 -5 -63 15 -3 8 -12 15 -21 15 -13 0 -14 -4 -4 -22 16
-30 28 -38 62 -38 39 0 62 14 75 47 29 75 20 164 -19 196 -33 26 -83 22 -108
-9z m91 -11 c20 -18 24 -73 6 -91 -7 -7 -24 -12 -38 -12 -35 0 -50 17 -50 56
0 23 7 38 22 48 28 20 37 20 60 -1z"/>
<path d="M9902 1084 c-26 -18 -30 -65 -7 -84 14 -12 13 -15 -5 -35 -59 -63 19
-152 105 -119 43 17 48 113 8 128 -14 6 -14 8 2 20 10 7 18 25 18 41 0 55 -72
84 -121 49z m76 -16 c34 -34 -6 -90 -48 -68 -35 19 -20 80 20 80 9 0 21 -5 28
-12z m6 -111 c37 -27 13 -97 -33 -97 -23 0 -51 31 -51 56 0 45 47 68 84 41z"/>
<path d="M10112 1093 c-58 -23 -55 -224 3 -247 33 -12 66 -5 90 19 22 21 25
33 25 95 0 74 -16 123 -45 134 -19 7 -54 7 -73 -1z m68 -33 c27 -27 29 -153 3
-182 -44 -48 -83 -4 -83 94 0 55 4 72 20 88 11 11 25 20 30 20 6 0 19 -9 30
-20z"/>
<path d="M12863 1087 c-4 -8 -20 -22 -35 -32 -16 -9 -28 -24 -28 -31 0 -12 5
-12 30 1 16 8 31 15 35 15 3 0 5 -45 5 -100 0 -82 3 -100 15 -100 13 0 15 21
15 130 0 107 -3 130 -15 130 -7 0 -18 -6 -22 -13z"/>
<path d="M13011 1074 c-58 -73 24 -188 91 -127 10 9 20 14 23 12 10 -11 -17
-79 -36 -89 -23 -13 -55 -5 -63 15 -3 8 -12 15 -21 15 -13 0 -14 -4 -4 -22 16
-30 28 -38 62 -38 39 0 62 14 75 47 29 75 20 164 -19 196 -33 26 -83 22 -108
-9z m91 -11 c20 -18 24 -73 6 -91 -7 -7 -24 -12 -38 -12 -35 0 -50 17 -50 56
0 23 7 38 22 48 28 20 37 20 60 -1z"/>
<path d="M13211 1074 c-58 -73 24 -188 91 -127 10 9 20 14 23 12 10 -11 -17
-79 -36 -89 -23 -13 -55 -5 -63 15 -3 8 -12 15 -21 15 -13 0 -14 -4 -4 -22 16
-30 28 -38 62 -38 39 0 62 14 75 47 29 75 20 164 -19 196 -33 26 -83 22 -108
-9z m91 -11 c20 -18 24 -73 6 -91 -7 -7 -24 -12 -38 -12 -35 0 -50 17 -50 56
0 23 7 38 22 48 28 20 37 20 60 -1z"/>
<path d="M13442 1093 c-58 -23 -55 -224 3 -247 33 -12 66 -5 90 19 22 21 25
33 25 95 0 74 -16 123 -45 134 -19 7 -54 7 -73 -1z m68 -33 c27 -27 29 -153 3
-182 -44 -48 -83 -4 -83 94 0 55 4 72 20 88 11 11 25 20 30 20 6 0 19 -9 30
-20z"/>
<path d="M16131 1074 c-38 -49 -17 -63 23 -17 21 24 27 26 52 18 21 -8 30 -18
32 -38 3 -22 -8 -40 -59 -92 -35 -35 -67 -73 -71 -85 -7 -19 -4 -20 77 -20 68
0 85 3 85 15 0 10 -16 15 -61 17 l-61 3 61 61 c68 68 79 106 41 144 -31 31
-93 27 -119 -6z"/>
<path d="M16352 1093 c-58 -23 -55 -224 3 -247 33 -12 66 -5 90 19 22 21 25
33 25 95 0 74 -16 123 -45 134 -19 7 -54 7 -73 -1z m68 -33 c27 -27 29 -153 3
-182 -44 -48 -83 -4 -83 94 0 55 4 72 20 88 11 11 25 20 30 20 6 0 19 -9 30
-20z"/>
<path d="M16562 1093 c-58 -23 -55 -224 3 -247 33 -12 66 -5 90 19 22 21 25
33 25 95 0 74 -16 123 -45 134 -19 7 -54 7 -73 -1z m68 -33 c27 -27 29 -153 3
-182 -44 -48 -83 -4 -83 94 0 55 4 72 20 88 11 11 25 20 30 20 6 0 19 -9 30
-20z"/>
<path d="M16762 1093 c-58 -23 -55 -224 3 -247 33 -12 66 -5 90 19 22 21 25
33 25 95 0 74 -16 123 -45 134 -19 7 -54 7 -73 -1z m68 -33 c27 -27 29 -153 3
-182 -44 -48 -83 -4 -83 94 0 55 4 72 20 88 11 11 25 20 30 20 6 0 19 -9 30
-20z"/>
<path d="M19451 1074 c-38 -49 -17 -63 23 -17 21 24 27 26 52 18 21 -8 30 -18
32 -38 3 -22 -8 -40 -59 -92 -35 -35 -67 -73 -71 -85 -7 -19 -4 -20 77 -20 68
0 85 3 85 15 0 10 -16 15 -61 17 l-61 3 61 61 c68 68 79 106 41 144 -31 31
-93 27 -119 -6z"/>
<path d="M19682 1093 c-58 -23 -55 -224 3 -247 33 -12 66 -5 90 19 22 21 25
33 25 95 0 74 -16 123 -45 134 -19 7 -54 7 -73 -1z m68 -33 c27 -27 29 -153 3
-182 -44 -48 -83 -4 -83 94 0 55 4 72 20 88 11 11 25 20 30 20 6 0 19 -9 30
-20z"/>
<path d="M19923 1087 c-4 -8 -20 -22 -35 -32 -16 -9 -28 -24 -28 -31 0 -12 5
-12 30 1 16 8 31 15 35 15 3 0 5 -45 5 -100 0 -82 3 -100 15 -100 13 0 15 21
15 130 0 107 -3 130 -15 130 -7 0 -18 -6 -22 -13z"/>
<path d="M20092 1093 c-58 -23 -55 -224 3 -247 33 -12 66 -5 90 19 22 21 25
33 25 95 0 74 -16 123 -45 134 -19 7 -54 7 -73 -1z m68 -33 c27 -27 29 -153 3
-182 -44 -48 -83 -4 -83 94 0 55 4 72 20 88 11 11 25 20 30 20 6 0 19 -9 30
-20z"/>
<path d="M22781 1074 c-38 -49 -17 -63 23 -17 21 24 27 26 52 18 21 -8 30 -18
32 -38 3 -22 -8 -40 -59 -92 -35 -35 -67 -73 -71 -85 -7 -19 -4 -20 77 -20 68
0 85 3 85 15 0 10 -16 15 -61 17 l-61 3 61 61 c68 68 79 106 41 144 -31 31
-93 27 -119 -6z"/>
<path d="M23002 1093 c-58 -23 -55 -224 3 -247 33 -12 66 -5 90 19 22 21 25
33 25 95 0 74 -16 123 -45 134 -19 7 -54 7 -73 -1z m68 -33 c27 -27 29 -153 3
-182 -44 -48 -83 -4 -83 94 0 55 4 72 20 88 11 11 25 20 30 20 6 0 19 -9 30
-20z"/>
<path d="M23191 1074 c-38 -49 -17 -63 23 -17 21 24 27 26 52 18 21 -8 30 -18
32 -38 3 -22 -8 -40 -59 -92 -35 -35 -67 -73 -71 -85 -7 -19 -4 -20 77 -20 68
0 85 3 85 15 0 10 -16 15 -61 17 l-61 3 61 61 c68 68 79 106 41 144 -31 31
-93 27 -119 -6z"/>
<path d="M23412 1093 c-58 -23 -55 -224 3 -247 33 -12 66 -5 90 19 22 21 25
33 25 95 0 74 -16 123 -45 134 -19 7 -54 7 -73 -1z m68 -33 c27 -27 29 -153 3
-182 -44 -48 -83 -4 -83 94 0 55 4 72 20 88 11 11 25 20 30 20 6 0 19 -9 30
-20z"/>
<path d="M12125 538 c4 -13 25 -67 46 -121 32 -83 36 -102 27 -123 -6 -13 -22
-27 -35 -30 -26 -7 -31 -29 -7 -38 20 -8 50 9 64 35 15 27 110 279 110 290 0
5 -8 9 -18 9 -13 0 -26 -23 -52 -97 l-34 -97 -31 95 c-26 78 -35 95 -54 97
-20 3 -22 1 -16 -20z"/>
<path d="M12404 542 c-31 -25 -44 -55 -44 -102 0 -47 21 -95 49 -110 11 -5 40
-10 66 -10 35 0 51 6 70 25 29 28 31 40 9 49 -10 4 -23 -3 -36 -19 -27 -34
-70 -33 -97 1 -38 48 -30 54 70 54 79 0 90 2 85 16 -3 9 -6 24 -6 34 0 10 -13
32 -29 49 -24 26 -37 31 -73 31 -26 0 -52 -7 -64 -18z m106 -32 c38 -38 27
-50 -45 -50 -36 0 -65 4 -65 9 0 4 9 20 21 35 25 31 61 34 89 6z"/>
<path d="M12656 539 c-29 -22 -35 -49 -11 -49 8 0 24 9 35 20 33 33 100 20
100 -20 0 -20 -10 -25 -79 -35 -24 -4 -52 -16 -62 -26 -24 -24 -24 -71 -1 -92
24 -22 100 -22 130 -1 20 14 22 14 22 0 0 -10 9 -16 21 -16 17 0 20 4 15 23
-3 12 -6 57 -6 100 0 64 -3 80 -20 97 -28 28 -108 28 -144 -1z m108 -170 c-35
-39 -124 -12 -97 29 5 10 32 22 59 28 48 10 49 10 52 -14 2 -13 -4 -32 -14
-43z"/>
<path d="M12880 440 c0 -113 1 -120 20 -120 18 0 20 7 20 78 0 87 16 122 54
122 23 0 41 22 29 34 -11 10 -61 7 -69 -5 -4 -8 -9 -8 -17 0 -6 6 -17 11 -24
11 -10 0 -13 -28 -13 -120z"/>
<path d="M13045 535 c-47 -46 -24 -86 62 -111 30 -9 57 -22 60 -30 17 -45 -72
-61 -104 -19 -13 18 -22 22 -33 15 -12 -7 -12 -12 0 -34 36 -69 180 -42 180
34 0 35 -24 56 -82 70 -57 15 -76 33 -58 55 19 22 66 19 84 -6 9 -13 21 -19
30 -16 21 8 20 23 -4 47 -30 30 -103 28 -135 -5z"/>
</g>
</svg>
