<?xml version="1.0" standalone="no"?>
<!DOCTYPE svg PUBLIC "-//W3C//DTD SVG 20010904//EN"
 "http://www.w3.org/TR/2001/REC-SVG-20010904/DTD/svg10.dtd">
<svg version="1.0" xmlns="http://www.w3.org/2000/svg"
 width="1200.000000pt" height="960.000000pt" viewBox="0 0 1200.000000 960.000000"
 preserveAspectRatio="xMidYMid meet">

<g transform="translate(0.000000,960.000000) scale(0.100000,-0.100000)"
fill="#000000" stroke="none">
<path d="M850 9467 c-53 -27 -58 -136 -7 -172 44 -31 127 -8 127 36 0 25 -8
24 -32 -6 -35 -44 -93 -27 -104 31 -8 44 7 81 41 96 22 10 30 8 55 -10 16 -12
32 -22 35 -22 12 0 4 21 -15 40 -23 23 -63 26 -100 7z"/>
<path d="M1256 9473 c-3 -3 -6 -48 -6 -99 l0 -92 38 0 c55 -1 69 6 80 38 21
59 -25 123 -70 99 -15 -8 -18 -6 -18 20 0 30 -11 46 -24 34z m90 -98 c12 -48
-14 -85 -50 -72 -23 9 -22 83 1 95 23 13 42 4 49 -23z"/>
<path d="M1790 9380 l0 -100 55 0 c75 0 105 28 105 97 -1 73 -34 103 -114 103
l-46 0 0 -100z m121 54 c7 -9 14 -34 14 -56 0 -47 -30 -78 -76 -78 l-29 0 0
75 0 75 39 0 c23 0 44 -6 52 -16z"/>
<path d="M1990 9465 c0 -8 5 -15 10 -15 6 0 10 7 10 15 0 8 -4 15 -10 15 -5 0
-10 -7 -10 -15z"/>
<path d="M2340 9465 c0 -8 5 -15 10 -15 6 0 10 7 10 15 0 8 -4 15 -10 15 -5 0
-10 -7 -10 -15z"/>
<path d="M2490 9445 c0 -33 -1 -34 -26 -25 -53 21 -96 -64 -58 -118 12 -18 24
-22 60 -20 l44 1 0 99 c0 59 -4 98 -10 98 -5 0 -10 -16 -10 -35z m-16 -51 c32
-32 15 -94 -26 -94 -38 0 -43 88 -6 103 7 3 14 6 15 6 1 1 9 -6 17 -15z"/>
<path d="M2780 9381 c0 -84 3 -101 15 -101 13 0 15 15 13 97 -2 66 -7 98 -15
101 -10 3 -13 -21 -13 -97z"/>
<path d="M3290 9380 c0 -60 4 -100 10 -100 6 0 10 40 10 100 0 60 -4 100 -10
100 -6 0 -10 -40 -10 -100z"/>
<path d="M6810 9380 c0 -82 3 -100 15 -100 11 0 15 12 15 45 l0 45 45 0 c25 0
45 5 45 10 0 6 -20 10 -45 10 -43 0 -45 1 -45 29 0 29 2 30 53 33 75 4 64 22
-15 26 l-68 3 0 -101z"/>
<path d="M8059 9451 c-33 -34 -39 -83 -14 -130 16 -32 33 -41 79 -41 36 0 83
40 71 60 -4 7 -15 2 -30 -15 -48 -50 -105 -21 -105 53 0 72 56 106 101 61 11
-11 25 -19 32 -16 7 2 1 14 -15 30 -37 37 -81 36 -119 -2z"/>
<path d="M8480 9382 l0 -99 44 -1 c52 -2 76 21 76 75 0 43 -25 66 -67 61 -32
-4 -33 -3 -33 29 0 18 -4 33 -10 33 -6 0 -10 -39 -10 -98z m91 -5 c7 -15 7
-31 0 -50 -18 -47 -71 -30 -71 23 0 50 52 69 71 27z"/>
<path d="M9020 9381 l0 -101 49 0 c38 0 56 6 78 24 24 21 28 31 27 76 -1 69
-24 92 -98 98 l-56 4 0 -101z m114 53 c9 -9 16 -32 16 -55 0 -50 -27 -79 -75
-79 l-35 0 0 75 0 75 39 0 c23 0 46 -7 55 -16z"/>
<path d="M9210 9465 c0 -8 5 -15 10 -15 6 0 10 7 10 15 0 8 -4 15 -10 15 -5 0
-10 -7 -10 -15z"/>
<path d="M9567 9473 c-12 -11 -8 -23 8 -23 8 0 15 7 15 15 0 16 -12 20 -23 8z"/>
<path d="M9717 9473 c-4 -3 -7 -19 -7 -35 0 -25 -3 -27 -18 -19 -12 7 -26 6
-43 -2 -19 -10 -25 -22 -27 -56 -4 -59 16 -81 74 -79 l44 2 0 98 c0 90 -5 110
-23 91z m-6 -99 c18 -50 -25 -96 -59 -62 -17 17 -15 64 3 82 20 19 44 10 56
-20z"/>
<path d="M3728 9464 c-5 -4 -8 -15 -8 -25 0 -9 -6 -20 -12 -22 -10 -4 -10 -7
-1 -14 6 -5 13 -33 15 -63 3 -48 6 -55 26 -58 25 -4 30 13 7 22 -22 8 -20 85
3 102 16 12 16 13 0 14 -10 0 -18 10 -20 26 -2 14 -6 22 -10 18z"/>
<path d="M7818 9464 c-5 -4 -8 -15 -8 -25 0 -9 -6 -20 -12 -22 -10 -4 -10 -7
-1 -14 6 -5 13 -33 15 -63 3 -48 6 -55 26 -58 25 -4 30 13 7 22 -22 8 -20 85
3 102 16 12 16 13 0 14 -10 0 -18 10 -20 26 -2 14 -6 22 -10 18z"/>
<path d="M1037 9417 c-15 -5 -27 -15 -27 -23 0 -18 10 -17 34 1 13 10 24 11
37 4 30 -15 23 -26 -26 -38 -85 -21 -72 -75 17 -77 l54 -1 -4 56 c-2 31 -5 61
-7 67 -5 16 -46 22 -78 11z m63 -80 c0 -20 -22 -37 -47 -37 -30 0 -30 28 0 40
32 13 47 12 47 -3z"/>
<path d="M1200 9420 c-7 -4 -19 -6 -27 -3 -10 4 -13 -11 -13 -66 0 -55 3 -71
15 -71 10 0 15 15 17 58 3 50 6 57 26 60 12 2 22 7 22 12 0 12 -25 19 -40 10z"/>
<path d="M1450 9422 c-48 -15 -66 -75 -34 -120 19 -28 74 -30 97 -4 45 49 -3
143 -63 124z m56 -56 c14 -57 -56 -95 -76 -41 -11 28 1 70 22 78 21 7 47 -11
54 -37z"/>
<path d="M1605 9420 c-11 -4 -26 -5 -32 -3 -10 4 -13 -13 -13 -66 0 -41 4 -71
10 -71 6 0 10 21 10 48 0 58 10 75 41 70 22 -3 24 -9 27 -60 2 -32 7 -58 13
-58 6 0 9 27 7 66 -3 56 -6 68 -23 74 -11 4 -29 4 -40 0z"/>
<path d="M2090 9422 c-48 -15 -66 -75 -34 -120 19 -28 74 -30 97 -4 45 49 -3
143 -63 124z m56 -56 c14 -57 -56 -95 -76 -41 -11 28 1 70 22 78 21 7 47 -11
54 -37z"/>
<path d="M2590 9418 c-32 -12 -40 -25 -40 -69 0 -44 25 -69 67 -69 33 0 59 22
47 41 -5 8 -9 7 -16 -5 -11 -20 -51 -21 -68 -1 -19 23 -2 35 51 35 l49 0 -13
31 c-15 37 -42 50 -77 37z m60 -43 c0 -10 -11 -15 -34 -15 -43 0 -53 14 -25
34 25 17 59 6 59 -19z"/>
<path d="M2880 9418 c-32 -12 -40 -25 -40 -69 0 -44 25 -69 67 -69 33 0 59 22
47 41 -5 8 -9 7 -16 -5 -11 -20 -51 -21 -68 -1 -19 23 -2 35 51 35 l49 0 -13
31 c-15 37 -42 50 -77 37z m60 -43 c0 -10 -11 -15 -34 -15 -43 0 -53 14 -25
34 25 17 59 6 59 -19z"/>
<path d="M3170 9418 c-32 -12 -40 -25 -40 -69 0 -44 25 -69 67 -69 33 0 59 22
47 41 -5 8 -9 7 -16 -5 -11 -20 -51 -21 -68 -1 -19 23 -2 35 51 35 l49 0 -13
31 c-15 37 -42 50 -77 37z m60 -43 c0 -10 -11 -15 -34 -15 -43 0 -53 14 -25
34 25 17 59 6 59 -19z"/>
<path d="M3374 9419 c-46 -17 -33 -63 21 -77 17 -5 30 -15 30 -23 0 -21 -44
-24 -59 -3 -9 12 -15 14 -20 5 -24 -38 71 -58 98 -20 20 30 10 47 -35 60 -39
12 -51 32 -25 42 7 3 24 -1 35 -10 25 -17 40 -10 22 11 -16 19 -42 25 -67 15z"/>
<path d="M3605 9422 c-38 -8 -62 -42 -30 -42 8 0 15 4 15 9 0 13 27 21 45 15
25 -10 17 -33 -12 -39 -46 -10 -58 -21 -58 -51 0 -29 1 -29 58 -30 l57 -1 0
57 c0 68 -23 93 -75 82z m43 -94 c-2 -18 -10 -23 -33 -23 -37 0 -41 26 -5 36
39 11 42 10 38 -13z"/>
<path d="M7020 9422 c-48 -15 -66 -75 -34 -120 19 -28 74 -30 97 -4 45 49 -3
143 -63 124z m56 -56 c14 -57 -56 -95 -76 -41 -11 28 1 70 22 78 21 7 47 -11
54 -37z"/>
<path d="M7170 9420 c-7 -4 -19 -6 -27 -3 -10 4 -13 -11 -13 -66 0 -55 3 -71
15 -71 10 0 15 15 17 58 3 50 6 57 26 60 12 2 22 7 22 12 0 12 -25 19 -40 10z"/>
<path d="M7260 9418 c-32 -12 -40 -25 -40 -69 0 -44 25 -69 67 -69 33 0 59 22
47 41 -5 8 -9 7 -16 -5 -11 -20 -51 -21 -68 -1 -19 23 -2 35 51 35 l49 0 -13
31 c-15 37 -42 50 -77 37z m60 -43 c0 -10 -11 -15 -34 -15 -43 0 -53 14 -25
34 25 17 59 6 59 -19z"/>
<path d="M7410 9423 c-26 -9 -40 -35 -40 -73 0 -43 24 -70 62 -70 22 0 58 26
58 43 0 14 -28 7 -34 -8 -7 -19 -40 -19 -55 -1 -17 20 -10 67 11 80 12 7 24 6
42 -4 30 -16 41 -10 23 12 -14 19 -46 28 -67 21z"/>
<path d="M7555 9422 c-38 -8 -62 -42 -30 -42 8 0 15 4 15 9 0 13 27 21 45 15
25 -10 17 -33 -12 -39 -46 -10 -58 -21 -58 -51 0 -29 1 -29 58 -30 l57 -1 0
57 c0 68 -23 93 -75 82z m43 -94 c-2 -18 -10 -23 -33 -23 -37 0 -41 26 -5 36
39 11 42 10 38 -13z"/>
<path d="M7694 9419 c-46 -17 -33 -63 21 -77 17 -5 30 -15 30 -23 0 -21 -44
-24 -59 -3 -9 12 -15 14 -20 5 -24 -38 71 -58 98 -20 20 30 10 47 -35 60 -39
12 -51 32 -25 42 7 3 24 -1 35 -10 25 -17 40 -10 22 11 -16 19 -42 25 -67 15z"/>
<path d="M8275 9422 c-38 -8 -62 -42 -30 -42 8 0 15 4 15 9 0 13 27 21 45 15
25 -10 17 -33 -12 -39 -46 -10 -58 -21 -58 -51 0 -29 1 -29 58 -30 l57 -1 0
57 c0 68 -23 93 -75 82z m43 -94 c-2 -18 -10 -23 -33 -23 -37 0 -41 26 -5 36
39 11 42 10 38 -13z"/>
<path d="M8420 9420 c-7 -4 -19 -6 -27 -3 -10 4 -13 -11 -13 -66 0 -55 3 -71
15 -71 10 0 15 15 17 58 3 50 6 57 26 60 12 2 22 7 22 12 0 12 -25 19 -40 10z"/>
<path d="M8670 9422 c-48 -15 -66 -75 -34 -120 19 -28 74 -30 97 -4 45 49 -3
143 -63 124z m56 -56 c14 -57 -56 -95 -76 -41 -11 28 1 70 22 78 21 7 47 -11
54 -37z"/>
<path d="M9310 9422 c-48 -15 -66 -75 -34 -120 19 -28 74 -30 97 -4 45 49 -3
143 -63 124z m56 -56 c14 -57 -56 -95 -76 -41 -11 28 1 70 22 78 21 7 47 -11
54 -37z"/>
<path d="M9810 9418 c-32 -12 -40 -25 -40 -69 0 -44 25 -69 67 -69 33 0 59 22
47 41 -5 8 -9 7 -16 -5 -11 -20 -51 -21 -68 -1 -19 23 -2 35 51 35 l49 0 -13
31 c-15 37 -42 50 -77 37z m60 -43 c0 -10 -11 -15 -34 -15 -43 0 -53 14 -25
34 25 17 59 6 59 -19z"/>
<path d="M1990 9350 c0 -40 4 -70 10 -70 6 0 10 30 10 70 0 40 -4 70 -10 70
-6 0 -10 -30 -10 -70z"/>
<path d="M2200 9414 c0 -3 9 -18 20 -33 l19 -28 -25 -34 c-30 -41 -12 -54 20
-14 l22 27 17 -26 c10 -14 25 -26 33 -26 13 0 11 8 -11 35 -27 37 -27 43 1 83
22 30 -1 30 -26 0 l-17 -22 -14 22 c-12 20 -39 31 -39 16z"/>
<path d="M2340 9350 c0 -40 4 -70 10 -70 6 0 10 30 10 70 0 40 -4 70 -10 70
-6 0 -10 -30 -10 -70z"/>
<path d="M2990 9413 c0 -24 48 -128 59 -128 11 0 35 49 57 118 9 28 -16 19
-27 -10 -33 -85 -30 -83 -48 -29 -15 43 -41 74 -41 49z"/>
<path d="M7880 9410 c0 -5 7 -10 15 -10 8 0 15 5 15 10 0 6 -7 10 -15 10 -8 0
-15 -4 -15 -10z"/>
<path d="M8780 9348 c0 -53 3 -68 15 -68 10 0 15 15 17 58 3 54 4 57 31 60 27
3 27 3 27 -57 0 -48 3 -61 15 -61 12 0 15 13 15 59 0 70 -10 81 -73 79 l-47
-2 0 -68z"/>
<path d="M9210 9350 c0 -40 4 -70 10 -70 6 0 10 30 10 70 0 40 -4 70 -10 70
-6 0 -10 -30 -10 -70z"/>
<path d="M9420 9414 c0 -3 9 -18 20 -33 l19 -28 -25 -34 c-30 -41 -12 -54 20
-14 l22 27 17 -26 c10 -14 25 -26 33 -26 13 0 11 8 -11 35 -27 37 -27 43 1 83
22 30 -1 30 -26 0 l-17 -22 -14 22 c-12 20 -39 31 -39 16z"/>
<path d="M9560 9350 c0 -56 3 -70 15 -70 12 0 15 14 15 70 0 56 -3 70 -15 70
-12 0 -15 -14 -15 -70z"/>
<path d="M7887 9303 c-12 -11 -8 -23 8 -23 8 0 15 7 15 15 0 16 -12 20 -23 8z"/>
<path d="M890 9090 c0 -82 3 -100 15 -100 12 0 15 15 16 73 l1 72 25 -72 c13
-40 30 -73 37 -73 7 0 24 33 39 73 l26 72 0 -72 c1 -58 4 -73 16 -73 12 0 15
18 15 100 0 90 -2 100 -18 100 -13 0 -22 -12 -31 -40 -6 -22 -20 -59 -30 -82
l-18 -43 -27 83 c-22 65 -32 82 -47 82 -17 0 -19 -8 -19 -100z"/>
<path d="M1810 9090 l0 -100 60 0 c33 0 60 4 60 10 0 6 -22 10 -50 10 l-50 0
0 90 c0 53 -4 90 -10 90 -6 0 -10 -40 -10 -100z"/>
<path d="M6890 9091 l0 -101 60 0 c33 0 60 4 60 10 0 6 -20 10 -45 10 l-44 0
-3 87 c-2 58 -7 88 -15 91 -10 3 -13 -21 -13 -97z"/>
<path d="M7480 9091 c0 -84 3 -101 15 -101 13 0 15 15 13 97 -2 66 -7 98 -15
101 -10 3 -13 -21 -13 -97z"/>
<path d="M8070 9091 c0 -119 18 -138 22 -24 l3 77 26 -74 c15 -42 32 -75 39
-75 8 0 25 33 39 75 l26 75 3 -77 c4 -115 22 -96 22 23 0 88 -2 100 -17 97
-11 -2 -26 -31 -44 -83 -16 -47 -29 -74 -33 -65 -3 8 -16 44 -28 80 -15 42
-29 66 -41 68 -15 3 -17 -7 -17 -97z"/>
<path d="M8990 9090 l0 -100 60 0 c33 0 60 4 60 10 0 6 -22 10 -50 10 l-50 0
0 90 c0 53 -4 90 -10 90 -6 0 -10 -40 -10 -100z"/>
<path d="M7917 9173 c-4 -3 -7 -15 -7 -25 0 -10 -5 -18 -12 -18 -9 0 -9 -3 0
-12 7 -7 12 -31 12 -54 0 -23 3 -49 6 -58 7 -17 44 -22 44 -6 0 6 -4 10 -10
10 -15 0 -12 97 3 104 10 5 10 7 0 12 -7 3 -13 17 -13 30 0 23 -10 31 -23 17z"/>
<path d="M1155 9132 c-38 -8 -62 -42 -30 -42 8 0 15 4 15 9 0 13 27 21 45 15
25 -10 17 -33 -12 -39 -46 -10 -58 -21 -58 -51 0 -29 1 -29 58 -30 l57 -1 0
57 c0 68 -23 93 -75 82z m43 -94 c-2 -18 -10 -23 -33 -23 -37 0 -41 26 -5 36
39 11 42 10 38 -13z"/>
<path d="M1615 9132 c-38 -8 -62 -42 -30 -42 8 0 15 4 15 9 0 13 27 21 45 15
25 -10 17 -33 -12 -39 -46 -10 -58 -21 -58 -51 0 -29 1 -29 58 -30 l57 -1 0
57 c0 68 -23 93 -75 82z m43 -94 c-2 -18 -10 -23 -33 -23 -37 0 -41 26 -5 36
39 11 42 10 38 -13z"/>
<path d="M2000 9132 c-48 -15 -66 -75 -34 -120 19 -28 74 -30 97 -4 45 49 -3
143 -63 124z m56 -56 c14 -57 -56 -95 -76 -41 -11 28 1 70 22 78 21 7 47 -11
54 -37z"/>
<path d="M2137 9127 c-15 -5 -27 -15 -27 -23 0 -18 10 -17 34 1 13 10 24 11
37 4 30 -15 23 -26 -26 -38 -85 -21 -72 -75 17 -77 l54 -1 -4 56 c-2 31 -5 61
-7 67 -5 16 -46 22 -78 11z m63 -80 c0 -20 -22 -37 -47 -37 -30 0 -30 28 0 40
32 13 47 12 47 -3z"/>
<path d="M7073 9129 c-42 -15 -56 -76 -27 -117 20 -29 74 -30 99 -2 14 16 15
20 4 20 -8 0 -20 -5 -26 -11 -18 -18 -58 -7 -61 19 -3 20 0 22 47 22 43 0 51
3 51 18 0 35 -50 65 -87 51z m57 -44 c0 -10 -11 -15 -35 -15 -38 0 -48 22 -18
39 21 11 53 -3 53 -24z"/>
<path d="M7363 9129 c-42 -15 -56 -76 -27 -117 20 -29 74 -30 99 -2 14 16 15
20 4 20 -8 0 -20 -5 -26 -11 -18 -18 -58 -7 -61 19 -3 20 0 22 47 22 43 0 51
3 51 18 0 35 -50 65 -87 51z m57 -44 c0 -10 -11 -15 -35 -15 -38 0 -48 22 -18
39 21 11 53 -3 53 -24z"/>
<path d="M7563 9130 c-40 -16 -30 -53 20 -76 23 -10 42 -23 42 -29 0 -18 -48
-18 -61 0 -8 11 -14 13 -19 5 -12 -20 17 -41 53 -38 66 6 69 60 5 82 -40 14
-51 25 -34 35 15 10 51 3 51 -10 0 -5 5 -9 10 -9 21 0 9 31 -16 40 -14 6 -26
10 -27 9 -1 0 -12 -4 -24 -9z"/>
<path d="M7787 9127 c-15 -5 -27 -15 -27 -23 0 -18 10 -17 34 1 13 10 24 11
37 4 30 -15 23 -26 -26 -38 -85 -21 -72 -75 17 -77 l54 -1 -4 56 c-2 31 -5 61
-7 67 -5 16 -46 22 -78 11z m63 -80 c0 -20 -22 -37 -47 -37 -30 0 -30 28 0 40
32 13 47 12 47 -3z"/>
<path d="M8335 9132 c-38 -8 -62 -42 -30 -42 8 0 15 4 15 9 0 13 27 21 45 15
25 -10 17 -33 -12 -39 -46 -10 -58 -21 -58 -51 0 -29 1 -29 58 -30 l57 -1 0
57 c0 68 -23 93 -75 82z m43 -94 c-2 -18 -10 -23 -33 -23 -37 0 -41 26 -5 36
39 11 42 10 38 -13z"/>
<path d="M8645 9130 c-11 -4 -26 -5 -32 -3 -10 4 -13 -13 -13 -66 0 -41 4 -71
10 -71 6 0 10 21 10 48 0 58 10 75 41 70 22 -3 24 -9 27 -60 2 -32 7 -58 13
-58 6 0 9 27 7 66 -3 56 -6 68 -23 74 -11 4 -29 4 -40 0z"/>
<path d="M8795 9132 c-38 -8 -62 -42 -30 -42 8 0 15 4 15 9 0 13 27 21 45 15
25 -10 17 -33 -12 -39 -46 -10 -58 -21 -58 -51 0 -29 1 -29 58 -30 l57 -1 0
57 c0 68 -23 93 -75 82z m43 -94 c-2 -18 -10 -23 -33 -23 -37 0 -41 26 -5 36
39 11 42 10 38 -13z"/>
<path d="M9172 9132 c-46 -7 -60 -108 -20 -134 27 -16 66 -8 87 18 45 57 4
128 -67 116z m54 -46 c13 -52 -18 -92 -53 -70 -21 13 -27 36 -19 70 5 19 13
24 36 24 23 0 31 -5 36 -24z"/>
<path d="M9317 9127 c-15 -5 -27 -15 -27 -23 0 -18 10 -17 34 1 13 10 24 11
37 4 30 -15 23 -26 -26 -38 -85 -21 -72 -75 17 -77 l54 -1 -4 56 c-2 31 -5 61
-7 67 -5 16 -46 22 -78 11z m63 -80 c0 -20 -22 -37 -47 -37 -30 0 -30 28 0 40
32 13 47 12 47 -3z"/>
<path d="M1270 9071 c0 -69 10 -81 68 -78 l42 1 0 68 c0 39 -4 68 -10 68 -5 0
-10 -22 -10 -48 0 -50 -12 -72 -41 -72 -21 0 -29 20 -29 76 0 24 -4 44 -10 44
-6 0 -10 -26 -10 -59z"/>
<path d="M1420 9058 c0 -53 3 -68 15 -68 10 0 15 15 17 58 3 54 4 57 31 60 27
3 27 3 27 -57 0 -48 3 -61 15 -61 12 0 15 13 15 59 0 70 -10 81 -73 79 l-47
-2 0 -68z"/>
<path d="M7205 9064 c14 -37 25 -68 25 -70 0 -13 29 -1 33 14 2 9 14 41 26 70
16 41 18 52 7 52 -8 0 -22 -22 -32 -52 l-17 -53 -18 40 c-10 22 -19 46 -19 53
0 6 -7 12 -15 12 -12 0 -10 -12 10 -66z"/>
<path d="M8440 9079 c0 -28 5 -59 10 -70 12 -22 59 -26 78 -7 9 9 12 9 12 0 0
-7 5 -12 10 -12 6 0 10 30 10 70 0 54 -3 70 -15 70 -10 0 -15 -15 -17 -57 -3
-54 -5 -58 -28 -58 -23 0 -25 4 -28 58 -2 42 -7 57 -17 57 -11 0 -15 -13 -15
-51z"/>
<path d="M5606 8449 c-2 -8 -10 -79 -16 -159 -7 -80 -16 -151 -20 -159 -4 -8
-9 33 -12 92 -3 101 -10 129 -25 113 -4 -4 -11 -55 -15 -114 -4 -59 -11 -152
-15 -207 l-8 -100 -6 60 c-4 33 -7 92 -8 132 -1 64 -12 95 -28 79 -3 -3 -10
-87 -15 -188 -5 -101 -13 -214 -16 -253 l-8 -70 -7 114 c-4 63 -10 117 -13
120 -13 13 -22 -29 -28 -132 -11 -187 -18 -249 -27 -235 -5 7 -9 49 -10 93 0
44 -4 89 -8 100 -8 19 -8 19 -19 -2 -7 -12 -12 -46 -12 -75 0 -29 -6 -114 -12
-188 l-13 -135 -10 128 c-6 72 -14 127 -20 127 -5 0 -13 -32 -16 -72 -3 -40
-12 -140 -19 -223 -6 -82 -13 -151 -14 -153 -2 -1 -6 48 -9 109 -3 61 -9 114
-12 117 -14 14 -22 -25 -30 -131 -4 -62 -11 -143 -14 -182 l-7 -70 -8 80 c-9
94 -15 120 -26 109 -9 -11 -39 -241 -41 -315 -1 -30 -6 4 -10 76 -5 71 -11
136 -14 144 -14 37 -25 -18 -36 -189 -12 -189 -28 -270 -29 -149 0 108 -18
164 -34 107 -3 -13 -12 -97 -18 -188 l-13 -165 -10 124 c-6 69 -15 126 -20
128 -7 2 -16 -45 -24 -124 -7 -71 -17 -157 -21 -193 l-7 -65 -1 86 c-2 104
-10 149 -27 149 -11 0 -35 -212 -35 -315 0 -79 -14 -20 -20 85 -4 61 -10 113
-13 117 -15 14 -21 -12 -29 -120 -4 -61 -12 -152 -17 -202 -7 -75 -8 -81 -10
-35 -2 97 -13 160 -27 160 -14 0 -18 -27 -34 -255 -6 -82 -13 -151 -14 -153
-2 -1 -5 56 -8 128 -3 71 -8 133 -12 137 -17 17 -25 -24 -37 -182 -7 -93 -14
-165 -16 -160 -2 6 -6 50 -11 99 -4 51 -12 91 -18 93 -13 4 -17 -26 -36 -252
l-13 -160 -7 94 c-3 51 -11 98 -17 104 -15 15 -19 -1 -31 -138 -6 -66 -13
-142 -17 -170 -7 -45 -8 -40 -13 53 -4 56 -11 107 -17 113 -15 15 -19 -12 -36
-196 l-13 -140 -8 80 c-9 96 -12 108 -29 103 -7 -3 -15 -37 -19 -94 -4 -49
-12 -114 -17 -144 l-9 -55 -1 75 c-5 177 -32 211 -50 60 -6 -55 -11 -120 -12
-143 -1 -59 -17 -19 -18 45 -1 51 -8 78 -21 78 -11 0 -16 -44 -32 -260 -11
-146 -14 -166 -19 -120 -4 30 -7 78 -8 107 -1 46 -13 74 -27 60 -3 -3 -10 -67
-16 -143 -12 -166 -27 -208 -28 -79 0 84 -10 128 -25 113 -13 -13 -24 -86 -32
-208 -6 -103 -8 -117 -14 -80 -4 25 -8 70 -8 100 -1 55 -14 91 -27 77 -4 -4
-11 -61 -16 -128 -5 -67 -12 -153 -16 -192 l-8 -72 -8 115 c-7 108 -18 152
-31 119 -2 -8 -11 -90 -19 -183 -8 -92 -17 -171 -20 -174 -4 -3 -6 37 -6 89 0
102 -8 169 -20 169 -11 0 -17 -38 -32 -210 l-13 -155 -10 154 c-7 102 -14 156
-22 158 -13 5 -16 -12 -35 -217 l-13 -135 -7 148 c-7 154 -12 187 -28 171 -7
-7 -30 -270 -30 -342 0 -7 -4 -11 -9 -8 -4 3 -10 51 -13 106 -5 94 -10 121
-24 108 -3 -3 -13 -84 -23 -179 l-17 -174 -7 115 c-7 105 -17 144 -33 127 -3
-3 -10 -57 -15 -119 -5 -62 -13 -138 -17 -168 -8 -52 -8 -50 -13 53 -6 104
-11 128 -26 113 -9 -9 -31 -223 -33 -316 -2 -84 -8 -68 -18 53 -9 93 -15 117
-28 105 -3 -3 -10 -62 -15 -130 -6 -67 -13 -154 -17 -193 l-8 -70 -6 124 c-7
114 -17 157 -31 134 -3 -5 -11 -77 -17 -159 -6 -82 -15 -153 -19 -157 -5 -5
-10 41 -13 102 -2 61 -8 114 -12 118 -15 15 -25 -23 -31 -116 -3 -53 -9 -125
-14 -161 l-7 -65 -8 100 c-4 55 -10 108 -12 118 -10 34 -22 16 -28 -40 -3 -32
-11 -112 -18 -178 l-13 -120 -6 113 c-4 63 -10 116 -12 119 -17 16 -25 -25
-37 -187 -7 -99 -15 -179 -17 -176 -2 2 -8 61 -13 131 -8 123 -13 145 -26 132
-4 -4 -14 -93 -23 -199 l-17 -193 -8 132 c-7 125 -15 158 -32 132 -4 -6 -13
-86 -20 -176 -7 -91 -16 -168 -19 -171 -3 -3 -5 44 -5 104 0 108 -9 149 -29
129 -7 -8 -24 -171 -32 -322 -2 -42 -17 35 -18 95 -1 34 -5 62 -10 62 -22 0
-30 -35 -43 -180 -9 -109 -14 -137 -15 -95 -5 125 -14 185 -28 185 -14 0 -19
-29 -30 -187 -11 -142 -21 -150 -27 -20 -5 112 -10 138 -24 124 -7 -7 -18
-121 -30 -302 l-8 -110 -11 122 c-6 67 -14 125 -17 128 -15 16 -26 -35 -37
-170 -7 -82 -14 -152 -17 -154 -2 -2 -4 31 -4 75 0 185 -31 255 -44 102 -4
-46 -11 -114 -15 -153 l-7 -70 -7 45 c-3 25 -9 81 -12 124 -3 44 -7 82 -10 84
-13 13 -19 -19 -32 -160 -7 -84 -15 -157 -16 -163 -2 -5 -7 48 -10 119 -6 113
-16 161 -31 145 -2 -2 -12 -89 -21 -194 -9 -104 -18 -191 -19 -193 -2 -1 -6
44 -10 100 -4 56 -9 104 -11 106 -12 12 -25 -15 -26 -51 0 -23 -6 -89 -13
-147 l-13 -105 -7 90 c-4 50 -10 98 -12 108 -10 34 -23 16 -29 -41 -4 -31 -13
-95 -19 -142 l-12 -85 -7 105 c-5 66 -12 110 -21 118 -17 17 -22 -9 -32 -156
-4 -57 -10 -100 -14 -95 -4 4 -10 47 -12 96 -2 48 -9 92 -15 98 -16 16 -20 -5
-35 -181 l-12 -155 -11 99 c-11 108 -30 138 -39 64 -3 -24 -11 -90 -18 -148
l-12 -105 -8 115 c-5 63 -11 121 -13 128 -12 34 -23 -8 -35 -129 -13 -139 -30
-158 -30 -33 0 65 -19 122 -32 98 -3 -5 -11 -85 -19 -179 l-14 -170 -6 98 c-7
97 -21 137 -38 108 -5 -7 -12 -58 -16 -112 -8 -120 -25 -141 -25 -32 0 99 -9
153 -25 153 -9 0 -17 -40 -26 -135 -7 -74 -14 -133 -16 -131 -2 2 -8 61 -12
130 -8 121 -13 147 -27 133 -3 -3 -10 -57 -15 -119 -5 -62 -13 -138 -18 -168
l-9 -55 -1 80 c-3 103 -13 167 -27 172 -13 4 -20 -34 -30 -169 -7 -101 -24
-118 -24 -25 0 83 -11 167 -21 167 -12 0 -16 -25 -31 -190 l-12 -145 -12 145
c-13 163 -11 150 -23 150 -5 0 -12 -35 -15 -77 -4 -43 -12 -123 -19 -178 l-12
-100 -6 97 c-12 171 -31 171 -50 1 -13 -113 -29 -133 -29 -36 0 59 -16 111
-30 97 -14 -15 -15 -134 -1 -143 8 -5 15 -48 20 -119 7 -106 13 -133 27 -119
3 3 10 61 16 129 13 164 26 211 28 103 2 -110 13 -178 28 -183 8 -2 12 10 12
45 0 62 18 224 27 243 4 8 10 -42 13 -112 3 -69 9 -130 13 -134 15 -15 27 20
28 81 0 33 6 107 13 165 l12 105 8 -130 c13 -218 26 -209 51 35 9 91 19 167
21 169 2 2 4 -40 5 -95 2 -216 31 -291 43 -112 4 57 10 128 14 158 l6 55 7
-45 c4 -25 8 -81 8 -125 1 -77 12 -117 27 -102 4 4 13 81 20 173 12 167 24
225 24 122 0 -117 13 -238 25 -238 9 0 16 41 25 133 15 173 28 212 29 91 1
-117 11 -186 25 -181 13 4 12 -8 27 202 7 93 14 165 15 160 2 -6 7 -74 12
-153 9 -132 14 -163 27 -150 3 2 10 76 16 163 12 176 27 245 28 130 3 -211 33
-282 45 -103 10 150 18 208 27 208 5 0 9 -46 9 -102 0 -101 8 -137 27 -125 6
4 13 59 17 124 4 65 10 150 14 188 l6 70 11 -132 c11 -123 17 -154 30 -141 3
3 10 70 16 149 13 180 27 239 28 123 1 -108 11 -176 25 -171 11 4 17 48 32
212 10 109 22 66 23 -82 1 -90 4 -113 15 -113 16 0 22 32 31 170 11 161 20
181 29 60 7 -98 19 -142 30 -109 3 8 12 101 20 208 9 107 18 196 21 199 3 3 5
-33 6 -79 0 -98 10 -160 24 -159 11 1 33 149 36 245 l2 60 7 -65 c4 -36 8
-102 9 -147 1 -72 11 -106 28 -90 2 3 11 80 18 172 8 92 15 169 18 171 2 2 7
-53 10 -123 6 -112 16 -157 32 -142 2 3 10 84 17 180 13 190 25 196 27 12 1
-112 12 -170 31 -158 5 3 10 30 10 58 0 29 6 124 12 212 l13 160 10 -119 c11
-136 30 -166 39 -64 3 35 12 124 19 198 l14 135 2 -90 c2 -135 12 -226 25
-222 10 3 33 220 35 331 2 81 16 21 21 -90 3 -63 9 -115 15 -117 13 -3 22 57
36 253 7 91 13 161 15 155 1 -5 6 -63 9 -128 5 -84 11 -117 20 -117 14 0 21
49 31 218 4 62 11 115 16 118 4 3 8 -44 8 -104 0 -123 7 -175 24 -169 9 3 21
119 37 367 3 58 17 -72 18 -177 1 -74 4 -93 15 -93 17 0 20 20 36 235 6 82 13
151 14 153 2 2 7 -49 11 -113 6 -104 15 -139 29 -117 2 4 10 82 16 172 15 206
29 238 31 70 0 -69 4 -136 8 -150 7 -24 8 -24 18 -5 6 11 14 76 18 145 4 69
10 159 14 200 7 74 7 73 15 -66 8 -132 16 -177 31 -163 3 4 10 69 15 146 16
225 25 252 33 103 6 -107 16 -155 31 -139 2 2 8 77 15 167 13 195 30 248 31
95 0 -96 11 -134 29 -104 4 6 13 104 20 218 7 115 14 209 16 211 1 1 6 -56 10
-128 6 -117 13 -147 29 -121 3 5 11 75 17 157 14 200 27 242 29 99 3 -258 32
-239 51 35 15 210 16 211 27 16 4 -84 11 -131 19 -133 7 -3 13 17 17 59 3 35
11 126 19 203 l14 140 2 -91 c2 -142 12 -245 25 -241 12 4 20 66 31 250 4 65
10 116 13 112 3 -3 9 -73 12 -155 6 -141 11 -172 27 -157 4 4 10 62 15 130 5
67 12 151 16 187 8 61 9 56 16 -83 8 -138 15 -173 31 -146 4 6 11 81 17 167
16 256 23 282 30 108 7 -145 10 -167 25 -152 7 7 30 264 33 371 2 73 19 7 19
-80 1 -91 9 -127 25 -122 7 2 15 72 23 196 16 264 17 268 27 84 6 -122 11
-163 21 -163 13 0 19 38 31 224 10 152 22 169 24 36 1 -63 5 -137 9 -165 7
-46 8 -48 18 -25 5 14 15 118 22 232 13 237 29 314 30 146 1 -98 10 -135 26
-108 4 6 11 77 16 158 17 263 24 279 32 82 7 -162 17 -219 30 -174 3 11 8 64
11 119 11 173 18 235 27 235 5 0 9 -35 9 -77 0 -89 8 -125 24 -120 7 2 15 63
23 158 17 233 18 235 27 77 6 -111 12 -148 21 -148 14 0 17 18 35 274 6 83 12
151 14 153 2 2 6 -49 9 -113 5 -100 16 -150 31 -133 2 2 9 89 15 194 14 213
30 277 31 120 0 -98 8 -133 27 -122 6 4 13 71 18 149 13 243 20 265 29 90 7
-137 15 -178 29 -154 3 4 11 88 17 187 20 302 25 324 32 151 4 -81 10 -151 13
-154 14 -14 23 27 29 136 3 65 9 158 13 207 6 83 8 87 14 45 4 -25 8 -84 8
-132 1 -78 11 -112 28 -95 3 3 12 97 19 209 8 112 16 208 17 213 2 6 6 -50 10
-123 3 -74 8 -137 11 -140 18 -17 27 31 37 188 12 199 28 256 30 110 0 -52 4
-105 7 -118 14 -50 27 -24 34 68 4 52 10 140 14 195 9 117 11 112 22 -52 8
-115 14 -144 27 -131 3 3 12 108 21 234 8 126 16 234 18 239 1 6 6 -57 9 -139
4 -82 9 -151 12 -155 13 -13 23 26 29 122 13 213 19 267 27 267 5 0 9 -43 9
-96 0 -91 11 -141 29 -129 5 2 12 73 16 156 4 83 10 172 14 198 6 39 9 29 15
-72 7 -103 17 -140 31 -125 3 2 9 81 15 174 5 93 13 198 17 234 7 60 8 54 14
-78 4 -79 10 -147 14 -150 14 -14 23 26 29 136 10 183 17 246 27 231 5 -8 9
-60 9 -116 0 -93 9 -129 25 -103 3 5 11 81 16 167 6 87 14 185 18 218 6 54 7
47 14 -75 7 -128 20 -181 31 -129 3 13 10 114 16 224 14 272 23 316 30 153 6
-121 12 -150 26 -135 4 4 13 98 20 209 7 112 14 210 15 218 4 36 18 -83 18
-162 1 -81 11 -113 26 -87 4 6 11 83 17 172 14 246 23 281 31 123 7 -128 10
-146 25 -132 13 14 19 180 7 191 -8 6 -14 54 -17 123 -3 65 -9 117 -16 124 -8
8 -12 8 -16 -3z"/>
<path d="M6418 8406 c-16 -24 -28 -46 -28 -50 0 -3 14 -6 30 -6 22 0 30 -5 31
-17 0 -14 2 -15 6 -3 3 8 11 18 17 22 8 5 7 8 -1 8 -9 0 -13 16 -13 45 0 25
-3 45 -7 45 -5 0 -20 -20 -35 -44z m28 -32 c-6 -17 -36 -19 -36 -2 0 6 8 20
18 31 15 17 17 17 20 3 2 -10 1 -24 -2 -32z"/>
<path d="M6525 8430 c-16 -18 -16 -20 -2 -15 13 6 17 -2 20 -47 3 -51 3 -50 5
15 1 37 0 67 -1 67 -2 0 -12 -9 -22 -20z"/>
<path d="M6606 8428 c-10 -38 -7 -44 22 -43 21 0 28 -5 30 -23 4 -27 -22 -40
-45 -21 -14 12 -16 12 -11 -1 8 -24 55 -25 68 0 17 32 4 60 -30 60 -23 0 -27
4 -23 19 3 12 16 22 32 24 24 4 23 4 -5 6 -25 1 -33 -4 -38 -21z"/>
<path d="M6740 8390 c0 -5 11 -10 25 -10 14 0 25 5 25 10 0 6 -11 10 -25 10
-14 0 -25 -4 -25 -10z"/>
<path d="M11381 8233 c-11 -49 -28 -160 -36 -248 -18 -178 -56 -433 -85 -570
-41 -191 -77 -516 -63 -554 8 -20 12 -7 22 70 7 52 23 137 36 189 32 131 61
303 85 510 19 158 42 271 61 293 21 26 63 -330 114 -978 9 -110 25 -278 36
-372 10 -95 19 -179 19 -185 0 -7 9 1 20 19 36 59 77 574 62 778 l-7 90 -14
-150 c-10 -109 -20 -165 -36 -204 -22 -53 -23 -54 -28 -25 -11 55 -46 379 -62
569 -32 404 -56 634 -76 743 -12 61 -23 112 -24 112 -2 0 -12 -39 -24 -87z"/>
<path d="M10880 7338 c-6 -46 -27 -166 -45 -268 -19 -102 -41 -239 -51 -305
-9 -69 -25 -137 -37 -160 -24 -49 -48 -212 -82 -560 -58 -592 -74 -706 -89
-614 -6 39 -23 227 -66 754 -49 595 -78 813 -106 822 -22 7 -53 -161 -74 -402
-22 -259 -49 -413 -85 -485 -18 -37 -25 -81 -39 -245 -10 -110 -28 -263 -41
-340 -13 -77 -34 -256 -45 -397 -12 -142 -27 -274 -34 -295 -12 -36 -13 -34
-29 91 -16 115 -57 653 -88 1126 -12 192 -47 431 -64 437 -6 1 -20 -15 -32
-36 -20 -36 -24 -68 -43 -372 -15 -246 -27 -366 -45 -454 -13 -66 -31 -199
-40 -295 -9 -96 -27 -227 -40 -290 -25 -116 -34 -203 -80 -725 -23 -264 -41
-403 -51 -393 -9 10 -35 279 -54 553 -25 379 -80 898 -105 1013 -18 80 -59
-106 -85 -383 -34 -378 -59 -554 -86 -610 -27 -58 -53 -224 -84 -550 -25 -256
-57 -503 -74 -570 -12 -49 -12 -48 -29 120 -9 94 -35 415 -57 715 -38 519 -51
626 -85 704 l-13 31 -26 -58 c-23 -51 -29 -92 -55 -355 -17 -163 -35 -362 -42
-441 -11 -122 -16 -148 -34 -170 -27 -32 -56 -208 -85 -521 -30 -325 -60 -583
-70 -600 -7 -12 -10 -10 -14 10 -6 31 -29 293 -61 700 -20 263 -81 797 -100
878 -5 19 -25 33 -25 16 0 -3 -9 -85 -21 -182 -25 -223 -52 -388 -84 -522 -36
-153 -131 -907 -164 -1309 -27 -317 -31 -324 -61 -90 -11 85 -29 267 -40 404
-27 331 -79 768 -106 893 -19 91 -62 -86 -85 -357 -14 -160 -26 -251 -43 -311
-54 -189 -82 -372 -126 -810 -20 -196 -43 -402 -56 -483 -19 -120 -57 122 -84
523 -31 464 -70 740 -111 784 -15 16 -19 3 -40 -120 -23 -134 -77 -377 -119
-534 -19 -70 -36 -174 -50 -310 -12 -113 -30 -263 -40 -335 -10 -71 -29 -218
-41 -325 -30 -273 -41 -286 -63 -78 -10 89 -20 165 -22 167 -15 16 -15 -31 0
-187 24 -243 28 -252 65 -156 14 37 28 118 41 233 11 97 31 255 44 351 14 96
32 252 41 345 11 110 27 207 45 275 16 58 31 121 35 140 4 19 22 100 40 180
19 80 39 181 46 225 l13 80 13 -33 c21 -51 60 -398 78 -687 13 -217 40 -472
60 -561 4 -19 52 -50 62 -41 5 6 38 275 63 518 47 464 74 639 125 819 18 60
31 152 45 315 19 209 36 322 47 312 15 -15 75 -519 98 -817 14 -188 44 -471
60 -566 4 -24 12 -34 31 -38 15 -4 28 -5 31 -3 2 3 15 132 28 288 37 423 131
1175 164 1306 25 97 55 277 76 448 14 114 25 169 25 122 0 -9 14 -121 30 -249
17 -128 39 -352 50 -498 11 -146 29 -368 40 -495 29 -327 29 -327 70 -261 24
39 32 100 80 587 37 384 59 521 87 551 19 20 24 51 42 258 54 592 69 710 91
710 18 0 34 -134 70 -610 38 -501 74 -912 86 -992 3 -21 9 -38 14 -38 14 0 51
169 71 325 10 82 30 261 44 397 32 324 59 490 83 531 23 36 48 221 82 582 21
235 39 346 50 323 8 -14 31 -186 55 -413 9 -77 27 -297 40 -490 30 -429 57
-665 74 -665 17 0 52 179 67 339 8 91 26 294 39 451 15 160 36 338 50 405 14
66 34 210 45 320 12 110 30 241 41 290 16 75 59 616 59 745 0 14 6 35 14 45
12 16 15 9 30 -71 9 -49 28 -251 41 -449 40 -588 64 -881 85 -1034 25 -185 28
-188 61 -75 13 46 28 161 45 349 13 154 31 314 39 355 8 41 26 186 39 321 19
196 28 254 45 287 34 67 59 212 85 487 14 143 30 278 37 300 l12 40 13 -65
c15 -76 55 -483 84 -855 39 -503 58 -685 70 -685 4 0 18 17 30 38 25 41 30 76
80 592 38 384 64 569 90 626 10 25 31 122 45 217 15 94 35 213 45 262 10 50
24 129 31 178 7 48 15 87 19 87 16 0 30 -97 45 -315 18 -256 55 -667 85 -939
11 -99 20 -181 20 -183 0 -1 4 -3 10 -3 5 0 20 37 34 83 20 66 28 131 42 329
15 218 15 273 0 257 -2 -2 -13 -124 -25 -271 -12 -147 -26 -280 -33 -295 -11
-26 -12 -24 -19 37 -18 141 -70 700 -90 970 -18 232 -26 296 -44 344 -12 33
-26 61 -32 63 -6 2 -15 -30 -23 -79z"/>
<path d="M6418 7096 c-16 -24 -28 -46 -28 -50 0 -3 14 -6 30 -6 22 0 30 -5 31
-17 0 -14 2 -15 6 -3 3 8 11 18 17 22 8 5 7 8 -1 8 -9 0 -13 16 -13 45 0 25
-3 45 -7 45 -5 0 -20 -20 -35 -44z m28 -32 c-6 -17 -36 -19 -36 -2 0 6 8 20
18 31 15 17 17 17 20 3 2 -10 1 -24 -2 -32z"/>
<path d="M6525 7120 c-16 -18 -16 -20 -2 -15 13 6 17 -2 20 -47 3 -51 3 -50 5
15 1 37 0 67 -1 67 -2 0 -12 -9 -22 -20z"/>
<path d="M6610 7125 c-19 -22 -16 -83 4 -104 36 -35 83 38 55 87 -18 32 -41
39 -59 17z m45 -50 c0 -43 -3 -50 -20 -50 -16 0 -21 8 -23 39 -4 49 3 68 25
64 14 -3 18 -14 18 -53z"/>
<path d="M6740 7085 c0 -9 9 -15 25 -15 16 0 25 6 25 15 0 9 -9 15 -25 15 -16
0 -25 -6 -25 -15z"/>
<path d="M406 6895 c-4 -12 -2 -13 15 -2 16 10 21 9 29 -3 7 -10 5 -18 -5 -26
-19 -14 -19 -24 0 -24 20 0 20 -39 0 -46 -8 -4 -23 0 -32 7 -14 12 -16 12 -11
-1 2 -8 16 -16 31 -18 31 -4 56 30 38 52 -6 8 -9 21 -5 30 8 20 -12 46 -36 46
-10 0 -20 -7 -24 -15z"/>
<path d="M501 6888 c-13 -33 5 -61 35 -55 19 3 24 0 24 -15 0 -24 -26 -34 -47
-17 -14 12 -16 12 -11 -1 14 -42 78 -5 78 45 0 54 -62 87 -79 43z m54 -18 c0
-16 -6 -26 -18 -28 -19 -4 -32 20 -23 44 9 25 41 13 41 -16z"/>
<path d="M610 6895 c-19 -22 -16 -83 4 -104 36 -35 83 38 55 87 -18 32 -41 39
-59 17z m45 -50 c0 -43 -3 -50 -20 -50 -16 0 -21 8 -23 39 -4 49 3 68 25 64
14 -3 18 -14 18 -53z"/>
<path d="M740 6850 c0 -5 11 -10 25 -10 14 0 25 5 25 10 0 6 -11 10 -25 10
-14 0 -25 -4 -25 -10z"/>
<path d="M6418 5796 c-16 -24 -28 -46 -28 -50 0 -3 14 -6 30 -6 22 0 30 -5 31
-17 0 -14 2 -15 6 -3 3 8 11 18 17 22 8 5 7 8 -1 8 -9 0 -13 16 -13 45 0 25
-3 45 -7 45 -5 0 -20 -20 -35 -44z m28 -32 c-6 -17 -36 -19 -36 -2 0 6 8 20
18 31 15 17 17 17 20 3 2 -10 1 -24 -2 -32z"/>
<path d="M6510 5825 c-19 -22 -16 -83 4 -104 36 -35 83 38 55 87 -18 32 -41
39 -59 17z m45 -50 c0 -43 -3 -50 -20 -50 -16 0 -21 8 -23 39 -4 49 3 68 25
64 14 -3 18 -14 18 -53z"/>
<path d="M6606 5818 c-10 -38 -7 -44 22 -43 21 0 28 -5 30 -23 4 -27 -22 -40
-45 -21 -14 12 -16 12 -11 -1 8 -24 55 -25 68 0 17 32 4 60 -30 60 -23 0 -27
4 -23 19 3 12 16 22 32 24 24 4 23 4 -5 6 -25 1 -33 -4 -38 -21z"/>
<path d="M6740 5780 c0 -5 11 -10 25 -10 14 0 25 5 25 10 0 6 -11 10 -25 10
-14 0 -25 -4 -25 -10z"/>
<path d="M164 5280 c-17 -6 -38 -18 -45 -27 -12 -15 -12 -16 6 -9 56 23 103
27 146 12 51 -18 59 -15 25 7 -32 21 -93 29 -132 17z"/>
<path d="M6164 5280 c-17 -6 -38 -18 -45 -27 -12 -15 -12 -16 6 -9 56 23 103
27 146 12 51 -18 59 -15 25 7 -32 21 -93 29 -132 17z"/>
<path d="M178 5203 c-21 -5 -31 -30 -19 -51 6 -10 6 -23 0 -34 -6 -12 -6 -25
0 -37 6 -10 7 -21 4 -25 -3 -3 19 -6 50 -6 31 0 57 5 57 10 0 6 -20 10 -44 10
-25 0 -48 5 -52 12 -11 17 26 38 69 38 23 0 36 4 32 10 -3 6 -26 10 -51 10
-32 0 -46 5 -51 16 -8 22 14 34 65 34 26 0 41 4 37 10 -6 10 -64 12 -97 3z"/>
<path d="M6178 5203 c-21 -5 -31 -30 -19 -51 6 -10 6 -23 0 -34 -6 -12 -6 -25
0 -37 6 -10 7 -21 4 -25 -3 -3 19 -6 50 -6 32 0 57 5 57 10 0 6 -20 10 -44 10
-25 0 -48 5 -52 12 -11 17 26 38 69 38 23 0 36 4 32 10 -3 6 -26 10 -51 10
-32 0 -46 5 -51 16 -8 22 14 34 65 34 26 0 41 4 37 10 -6 10 -64 12 -97 3z"/>
<path d="M183 5020 c-21 -9 -29 -29 -23 -55 1 -5 3 -16 3 -22 0 -16 157 -19
157 -3 0 6 -12 10 -26 10 -20 0 -24 4 -20 18 13 39 -45 71 -91 52z m58 -20
c44 -24 -1 -72 -47 -51 -28 13 -31 36 -6 50 22 13 29 13 53 1z"/>
<path d="M6183 5020 c-21 -9 -29 -29 -23 -55 1 -5 3 -16 3 -22 0 -16 157 -19
157 -3 0 6 -12 10 -26 10 -20 0 -24 4 -20 18 13 39 -45 71 -91 52z m58 -20
c44 -24 -1 -72 -47 -51 -28 13 -31 36 -6 50 22 13 29 13 53 1z"/>
<path d="M183 4890 c-21 -9 -29 -29 -23 -55 1 -5 3 -16 3 -22 0 -16 157 -19
157 -3 0 6 -12 10 -26 10 -20 0 -24 4 -20 18 13 39 -45 71 -91 52z m58 -20
c44 -24 -1 -72 -47 -51 -28 13 -31 36 -6 50 22 13 29 13 53 1z"/>
<path d="M6183 4890 c-21 -9 -29 -29 -23 -55 1 -5 3 -16 3 -22 0 -16 157 -19
157 -3 0 6 -12 10 -26 10 -20 0 -24 4 -20 18 13 39 -45 71 -91 52z m58 -20
c44 -24 -1 -72 -47 -51 -28 13 -31 36 -6 50 22 13 29 13 53 1z"/>
<path d="M125 4745 c45 -36 113 -38 174 -5 34 18 22 20 -34 6 -45 -12 -69 -11
-135 8 -24 7 -24 7 -5 -9z"/>
<path d="M6125 4745 c45 -36 113 -38 174 -5 34 18 22 20 -34 6 -45 -12 -69
-11 -135 8 -24 7 -24 7 -5 -9z"/>
<path d="M406 4635 c-4 -12 -2 -13 15 -2 16 10 21 9 29 -3 7 -10 5 -18 -5 -26
-19 -14 -19 -24 0 -24 20 0 20 -39 0 -46 -8 -4 -23 0 -32 7 -14 12 -16 12 -11
-1 2 -8 16 -16 31 -18 31 -4 56 30 38 52 -6 8 -9 21 -5 30 8 20 -12 46 -36 46
-10 0 -20 -7 -24 -15z"/>
<path d="M510 4635 c-18 -21 -18 -78 -1 -99 32 -38 84 1 60 45 -8 15 -18 20
-35 16 -25 -4 -30 7 -14 33 8 13 13 13 31 2 18 -11 20 -11 17 0 -7 20 -43 21
-58 3z m45 -75 c0 -16 -6 -26 -18 -28 -19 -4 -32 20 -23 44 9 25 41 13 41 -16z"/>
<path d="M610 4635 c-19 -22 -16 -83 4 -104 36 -35 83 38 55 87 -18 32 -41 39
-59 17z m45 -50 c0 -43 -3 -50 -20 -50 -16 0 -21 8 -23 39 -4 49 3 68 25 64
14 -3 18 -14 18 -53z"/>
<path d="M261 4593 c-1 -24 -4 -43 -7 -43 -3 0 -20 16 -38 35 -48 50 -106 45
-106 -10 0 -24 36 -63 47 -52 4 4 -1 13 -11 20 -23 17 -17 51 9 55 13 2 35
-12 60 -38 52 -53 64 -52 58 8 -6 65 -11 75 -12 25z"/>
<path d="M6261 4593 c-1 -24 -4 -43 -7 -43 -3 0 -20 16 -38 35 -48 50 -106 45
-106 -10 0 -24 36 -63 47 -52 4 4 -1 13 -11 20 -23 17 -17 51 9 55 13 2 35
-12 60 -38 52 -53 64 -52 58 8 -6 65 -11 75 -12 25z"/>
<path d="M740 4590 c0 -5 11 -10 25 -10 14 0 25 5 25 10 0 6 -11 10 -25 10
-14 0 -25 -4 -25 -10z"/>
<path d="M6418 4486 c-16 -24 -28 -46 -28 -50 0 -3 14 -6 30 -6 22 0 30 -5 31
-17 0 -14 2 -15 6 -3 3 8 11 18 17 22 8 5 7 8 -1 8 -9 0 -13 16 -13 45 0 25
-3 45 -7 45 -5 0 -20 -20 -35 -44z m28 -32 c-6 -17 -36 -19 -36 -2 0 6 8 20
18 31 15 17 17 17 20 3 2 -10 1 -24 -2 -32z"/>
<path d="M6510 4515 c-19 -22 -16 -83 4 -104 36 -35 83 38 55 87 -18 32 -41
39 -59 17z m45 -50 c0 -43 -3 -50 -20 -50 -16 0 -21 8 -23 39 -4 49 3 68 25
64 14 -3 18 -14 18 -53z"/>
<path d="M6610 4515 c-19 -22 -16 -83 4 -104 36 -35 83 38 55 87 -18 32 -41
39 -59 17z m45 -50 c0 -43 -3 -50 -20 -50 -16 0 -21 8 -23 39 -4 49 3 68 25
64 14 -3 18 -14 18 -53z"/>
<path d="M153 4490 c-26 -10 -43 -39 -43 -72 0 -83 128 -105 160 -27 29 69
-42 129 -117 99z m102 -51 c17 -51 -40 -92 -92 -67 -31 14 -43 59 -23 83 25
30 104 19 115 -16z"/>
<path d="M6153 4490 c-26 -10 -43 -39 -43 -72 0 -83 128 -105 160 -27 29 69
-42 129 -117 99z m102 -51 c17 -51 -40 -92 -92 -67 -31 14 -43 59 -23 83 25
30 104 19 115 -16z"/>
<path d="M6740 4470 c0 -5 11 -10 25 -10 14 0 25 5 25 10 0 6 -11 10 -25 10
-14 0 -25 -4 -25 -10z"/>
<path d="M127 4302 c-24 -27 -21 -69 8 -97 65 -66 180 15 131 90 -9 14 -23 25
-31 25 -21 0 -19 -9 7 -29 49 -41 -19 -108 -81 -78 -31 14 -40 57 -17 77 17
14 21 30 8 30 -5 0 -16 -8 -25 -18z"/>
<path d="M6127 4302 c-24 -27 -21 -69 8 -97 65 -66 180 15 131 90 -9 14 -23
25 -31 25 -21 0 -19 -9 7 -29 49 -41 -19 -108 -81 -78 -31 14 -40 57 -17 77
17 14 21 30 8 30 -5 0 -16 -8 -25 -18z"/>
<path d="M6406 3205 c-4 -12 -2 -13 15 -2 16 10 21 9 29 -3 7 -10 5 -18 -5
-26 -19 -14 -19 -24 0 -24 20 0 20 -39 0 -46 -8 -4 -23 0 -32 7 -14 12 -16 12
-11 -1 2 -8 16 -16 31 -18 31 -4 56 30 38 52 -6 8 -9 21 -5 30 8 20 -12 46
-36 46 -10 0 -20 -7 -24 -15z"/>
<path d="M6501 3198 c-13 -33 5 -61 35 -55 19 3 24 0 24 -15 0 -24 -26 -34
-47 -17 -14 12 -16 12 -11 -1 14 -42 78 -5 78 45 0 54 -62 87 -79 43z m54 -18
c0 -16 -6 -26 -18 -28 -19 -4 -32 20 -23 44 9 25 41 13 41 -16z"/>
<path d="M6606 3198 c-10 -38 -7 -44 22 -43 21 0 28 -5 30 -23 4 -27 -22 -40
-45 -21 -14 12 -16 12 -11 -1 8 -24 55 -25 68 0 17 32 4 60 -30 60 -23 0 -27
4 -23 19 3 12 16 22 32 24 24 4 23 4 -5 6 -25 1 -33 -4 -38 -21z"/>
<path d="M6740 3160 c0 -5 11 -10 25 -10 14 0 25 5 25 10 0 6 -11 10 -25 10
-14 0 -25 -4 -25 -10z"/>
<path d="M406 2385 c-4 -12 -2 -13 15 -2 16 10 21 9 29 -3 7 -10 5 -18 -5 -26
-19 -14 -19 -24 0 -24 20 0 20 -39 0 -46 -8 -4 -23 0 -32 7 -14 12 -16 12 -11
-1 2 -8 16 -16 31 -18 31 -4 56 30 38 52 -6 8 -9 21 -5 30 8 20 -12 46 -36 46
-10 0 -20 -7 -24 -15z"/>
<path d="M506 2385 c-4 -12 -2 -13 15 -2 16 10 21 9 29 -3 7 -10 5 -18 -5 -26
-19 -14 -19 -24 0 -24 20 0 20 -39 0 -46 -8 -4 -23 0 -32 7 -14 12 -16 12 -11
-1 2 -8 16 -16 31 -18 31 -4 56 30 38 52 -6 8 -9 21 -5 30 8 20 -12 46 -36 46
-10 0 -20 -7 -24 -15z"/>
<path d="M610 2385 c-19 -22 -16 -83 4 -104 36 -35 83 38 55 87 -18 32 -41 39
-59 17z m45 -50 c0 -43 -3 -50 -20 -50 -16 0 -21 8 -23 39 -4 49 3 68 25 64
14 -3 18 -14 18 -53z"/>
<path d="M740 2340 c0 -5 11 -10 25 -10 14 0 25 5 25 10 0 6 -11 10 -25 10
-14 0 -25 -4 -25 -10z"/>
<path d="M6406 1895 c-4 -12 -2 -13 15 -2 16 10 21 9 29 -3 7 -10 5 -18 -5
-26 -19 -14 -19 -24 0 -24 20 0 20 -39 0 -46 -8 -4 -23 0 -32 7 -14 12 -16 12
-11 -1 2 -8 16 -16 31 -18 31 -4 56 30 38 52 -6 8 -9 21 -5 30 8 20 -12 46
-36 46 -10 0 -20 -7 -24 -15z"/>
<path d="M6501 1888 c-13 -33 5 -61 35 -55 19 3 24 0 24 -15 0 -24 -26 -34
-47 -17 -14 12 -16 12 -11 -1 14 -42 78 -5 78 45 0 54 -62 87 -79 43z m54 -18
c0 -29 -32 -41 -41 -16 -9 24 4 48 23 44 12 -2 18 -12 18 -28z"/>
<path d="M6610 1895 c-19 -22 -16 -83 4 -104 36 -35 83 38 55 87 -18 32 -41
39 -59 17z m45 -50 c0 -43 -3 -50 -20 -50 -16 0 -21 8 -23 39 -4 49 3 68 25
64 14 -3 18 -14 18 -53z"/>
<path d="M6740 1860 c0 -5 11 -10 25 -10 14 0 25 5 25 10 0 6 -11 10 -25 10
-14 0 -25 -4 -25 -10z"/>
<path d="M1160 629 c0 -17 4 -28 10 -24 6 3 10 17 10 31 0 13 -4 24 -10 24 -5
0 -10 -14 -10 -31z"/>
<path d="M1920 630 c0 -16 5 -30 10 -30 6 0 10 14 10 30 0 17 -4 30 -10 30 -5
0 -10 -13 -10 -30z"/>
<path d="M2680 630 c0 -16 5 -30 10 -30 6 0 10 14 10 30 0 17 -4 30 -10 30 -5
0 -10 -13 -10 -30z"/>
<path d="M3440 636 c0 -14 5 -28 10 -31 6 -4 10 7 10 24 0 17 -4 31 -10 31 -5
0 -10 -11 -10 -24z"/>
<path d="M4210 629 c0 -17 4 -28 10 -24 6 3 10 17 10 31 0 13 -4 24 -10 24 -5
0 -10 -14 -10 -31z"/>
<path d="M4970 630 c0 -16 5 -30 10 -30 6 0 10 14 10 30 0 17 -4 30 -10 30 -5
0 -10 -13 -10 -30z"/>
<path d="M5730 636 c0 -14 5 -28 10 -31 6 -4 10 7 10 24 0 17 -4 31 -10 31 -5
0 -10 -11 -10 -24z"/>
<path d="M7972 635 c4 -33 22 -33 26 0 2 18 -1 25 -13 25 -12 0 -15 -7 -13
-25z"/>
<path d="M9230 629 c0 -17 4 -28 10 -24 6 3 10 17 10 31 0 13 -4 24 -10 24 -5
0 -10 -14 -10 -31z"/>
<path d="M10480 629 c0 -17 4 -28 10 -24 6 3 10 17 10 31 0 13 -4 24 -10 24
-5 0 -10 -14 -10 -31z"/>
<path d="M11730 629 c0 -17 4 -28 10 -24 6 3 10 17 10 31 0 13 -4 24 -10 24
-5 0 -10 -14 -10 -31z"/>
<path d="M995 528 c-17 -18 -18 -20 -2 -15 15 6 17 0 17 -43 0 -28 5 -50 10
-50 6 0 10 28 10 65 0 36 -3 65 -7 64 -5 0 -17 -10 -28 -21z"/>
<path d="M1080 535 c-7 -9 -10 -25 -6 -41 6 -22 11 -25 37 -22 22 4 29 1 27
-10 -4 -22 -39 -41 -45 -24 -3 6 -9 12 -15 12 -6 0 -6 -6 2 -15 31 -38 70 -6
70 57 0 53 -41 78 -70 43z m49 -9 c15 -18 3 -46 -19 -46 -22 0 -30 19 -18 43
11 21 22 22 37 3z"/>
<path d="M1190 535 c-18 -21 -18 -78 -1 -99 32 -38 84 1 60 45 -8 15 -18 20
-35 16 -25 -4 -30 7 -14 33 8 13 13 13 31 2 18 -11 20 -11 17 0 -7 20 -43 21
-58 3z m45 -75 c0 -29 -32 -41 -41 -16 -9 24 4 48 23 44 12 -2 18 -12 18 -28z"/>
<path d="M1290 535 c-19 -22 -16 -83 4 -104 36 -35 83 38 55 87 -18 32 -41 39
-59 17z m45 -50 c0 -43 -3 -50 -20 -50 -16 0 -21 8 -23 39 -4 49 3 68 25 64
14 -3 18 -14 18 -53z"/>
<path d="M1755 528 c-17 -18 -18 -20 -2 -15 15 6 17 0 17 -43 0 -28 5 -50 10
-50 6 0 10 28 10 65 0 36 -3 65 -7 64 -5 0 -17 -10 -28 -21z"/>
<path d="M1841 528 c-13 -33 5 -61 35 -55 19 3 24 0 24 -15 0 -24 -26 -34 -47
-17 -14 12 -16 12 -11 -1 14 -42 78 -5 78 45 0 54 -62 87 -79 43z m54 -18 c0
-16 -6 -26 -18 -28 -19 -4 -32 20 -23 44 9 25 41 13 41 -16z"/>
<path d="M1963 543 c27 -4 35 -21 18 -38 -12 -13 -31 -85 -22 -85 3 0 13 20
20 45 7 24 19 49 27 56 24 20 15 29 -28 28 -30 -2 -35 -3 -15 -6z"/>
<path d="M2050 531 c-22 -43 -5 -111 28 -111 27 0 42 20 42 58 0 43 -16 72
-40 72 -11 0 -24 -9 -30 -19z m48 -3 c17 -17 15 -73 -4 -89 -31 -26 -57 38
-34 82 12 22 21 24 38 7z"/>
<path d="M2525 530 c-16 -18 -16 -20 -2 -15 13 6 17 -2 20 -47 3 -51 3 -50 5
15 1 37 0 67 -1 67 -2 0 -12 -9 -22 -20z"/>
<path d="M2601 528 c-13 -33 5 -61 35 -55 19 3 24 0 24 -15 0 -24 -26 -34 -47
-17 -14 12 -16 12 -11 -1 14 -42 78 -5 78 45 0 54 -62 87 -79 43z m54 -18 c0
-16 -6 -26 -18 -28 -19 -4 -32 20 -23 44 9 25 41 13 41 -16z"/>
<path d="M2715 539 c-4 -5 -4 -21 -1 -35 4 -14 2 -24 -4 -24 -15 0 -12 -36 5
-50 32 -27 80 13 58 49 -8 13 -9 21 -1 29 8 8 8 15 -2 27 -14 17 -46 20 -55 4z
m43 -22 c2 -12 -3 -17 -17 -17 -12 0 -21 6 -21 13 0 31 32 34 38 4z m8 -48 c3
-6 -1 -18 -9 -27 -13 -12 -19 -13 -31 -3 -8 7 -12 19 -9 27 6 17 39 19 49 3z"/>
<path d="M2810 531 c-22 -43 -5 -111 28 -111 27 0 42 20 42 58 0 43 -16 72
-40 72 -11 0 -24 -9 -30 -19z m48 -3 c17 -17 15 -73 -4 -89 -31 -26 -57 38
-34 82 12 22 21 24 38 7z"/>
<path d="M3285 528 c-17 -18 -18 -20 -2 -15 15 6 17 0 17 -43 0 -28 5 -50 10
-50 6 0 10 28 10 65 0 36 -3 65 -7 64 -5 0 -17 -10 -28 -21z"/>
<path d="M3370 535 c-7 -9 -10 -25 -6 -41 6 -22 11 -25 37 -22 22 4 29 1 27
-10 -4 -22 -39 -41 -45 -24 -3 6 -9 12 -15 12 -6 0 -6 -6 2 -15 31 -38 70 -6
70 57 0 53 -41 78 -70 43z m49 -9 c15 -18 3 -46 -19 -46 -22 0 -30 19 -18 43
11 21 22 22 37 3z"/>
<path d="M3470 535 c-7 -9 -10 -25 -6 -41 6 -22 11 -25 37 -22 22 4 29 1 27
-10 -4 -22 -39 -41 -45 -24 -3 6 -9 12 -15 12 -6 0 -6 -6 2 -15 31 -38 70 -6
70 57 0 53 -41 78 -70 43z m49 -9 c15 -18 3 -46 -19 -46 -22 0 -30 19 -18 43
11 21 22 22 37 3z"/>
<path d="M3580 535 c-19 -22 -16 -83 4 -104 36 -35 83 38 55 87 -18 32 -41 39
-59 17z m45 -50 c0 -43 -3 -50 -20 -50 -16 0 -21 8 -23 39 -4 49 3 68 25 64
14 -3 18 -14 18 -53z"/>
<path d="M4032 538 c-21 -21 -13 -32 8 -13 19 17 22 17 36 3 15 -14 13 -19
-20 -56 -20 -21 -36 -42 -36 -46 0 -3 19 -5 43 -4 36 1 38 2 10 5 -39 5 -42
15 -9 37 14 8 27 25 31 36 12 39 -34 67 -63 38z"/>
<path d="M4140 535 c-19 -22 -16 -83 4 -104 36 -35 83 38 55 87 -18 32 -41 39
-59 17z m45 -50 c0 -43 -3 -50 -20 -50 -16 0 -21 8 -23 39 -4 49 3 68 25 64
14 -3 18 -14 18 -53z"/>
<path d="M4240 535 c-19 -22 -16 -83 4 -104 36 -35 83 38 55 87 -18 32 -41 39
-59 17z m45 -50 c0 -43 -3 -50 -20 -50 -16 0 -21 8 -23 39 -4 49 3 68 25 64
14 -3 18 -14 18 -53z"/>
<path d="M4340 535 c-19 -22 -16 -83 4 -104 36 -35 83 38 55 87 -18 32 -41 39
-59 17z m45 -50 c0 -43 -3 -50 -20 -50 -16 0 -21 8 -23 39 -4 49 3 68 25 64
14 -3 18 -14 18 -53z"/>
<path d="M4797 543 c-4 -3 -7 -13 -7 -22 1 -14 2 -13 11 2 12 21 38 22 45 2 4
-9 -8 -31 -30 -55 -20 -22 -36 -42 -36 -45 0 -3 21 -4 48 -3 36 1 39 2 15 5
-18 2 -33 7 -33 10 0 3 14 21 30 40 25 28 28 38 20 53 -10 19 -49 27 -63 13z"/>
<path d="M4900 535 c-19 -22 -16 -83 4 -104 36 -35 83 38 55 87 -18 32 -41 39
-59 17z m45 -50 c0 -43 -3 -50 -20 -50 -16 0 -21 8 -23 39 -4 49 3 68 25 64
14 -3 18 -14 18 -53z"/>
<path d="M5015 528 c-17 -18 -18 -20 -2 -15 15 6 17 0 17 -43 0 -28 5 -50 10
-50 6 0 10 28 10 65 0 36 -3 65 -7 64 -5 0 -17 -10 -28 -21z"/>
<path d="M5100 531 c-22 -43 -5 -111 28 -111 27 0 42 20 42 58 0 43 -16 72
-40 72 -11 0 -24 -9 -30 -19z m48 -3 c17 -17 15 -73 -4 -89 -31 -26 -57 38
-34 82 12 22 21 24 38 7z"/>
<path d="M5557 543 c-4 -3 -7 -13 -7 -22 1 -14 2 -13 11 2 12 21 38 22 45 2 4
-9 -8 -31 -30 -55 -20 -22 -36 -42 -36 -45 0 -3 21 -4 48 -3 36 1 39 2 15 5
-18 2 -33 7 -33 10 0 3 14 21 30 40 25 28 28 38 20 53 -10 19 -49 27 -63 13z"/>
<path d="M5660 531 c-22 -43 -5 -111 28 -111 27 0 42 20 42 58 0 43 -16 72
-40 72 -11 0 -24 -9 -30 -19z m48 -3 c17 -17 15 -73 -4 -89 -31 -26 -57 38
-34 82 12 22 21 24 38 7z"/>
<path d="M5762 538 c-21 -21 -13 -32 8 -13 19 17 22 17 36 3 15 -14 13 -19
-20 -56 -20 -21 -36 -42 -36 -46 0 -3 19 -5 43 -4 36 1 38 2 10 5 -39 5 -42
15 -9 37 14 8 27 25 31 36 12 39 -34 67 -63 38z"/>
<path d="M5870 535 c-19 -22 -16 -83 4 -104 36 -35 83 38 55 87 -18 32 -41 39
-59 17z m45 -50 c0 -43 -3 -50 -20 -50 -16 0 -21 8 -23 39 -4 49 3 68 25 64
14 -3 18 -14 18 -53z"/>
<path d="M7722 538 c-21 -21 -13 -32 8 -13 19 17 22 17 36 3 15 -14 13 -19
-20 -56 -20 -21 -36 -42 -36 -46 0 -3 19 -5 43 -4 36 1 38 2 10 5 -39 5 -42
15 -9 37 14 8 27 25 31 36 12 39 -34 67 -63 38z"/>
<path d="M7830 535 c-19 -22 -16 -83 4 -104 36 -35 83 38 55 87 -18 32 -41 39
-59 17z m45 -50 c0 -43 -3 -50 -20 -50 -16 0 -21 8 -23 39 -4 49 3 68 25 64
14 -3 18 -14 18 -53z"/>
<path d="M7945 530 c-16 -18 -16 -20 -2 -15 13 6 17 -2 20 -47 3 -51 3 -50 5
15 1 37 0 67 -1 67 -2 0 -12 -9 -22 -20z"/>
<path d="M8032 538 c-21 -21 -13 -32 8 -13 19 17 22 17 36 3 15 -14 13 -19
-20 -56 -20 -21 -36 -42 -36 -46 0 -3 19 -5 43 -4 36 1 38 2 10 5 -39 5 -42
15 -9 37 14 8 27 25 31 36 12 39 -34 67 -63 38z"/>
<path d="M8180 531 c0 -11 -3 -26 -6 -35 -5 -13 -1 -15 24 -10 21 4 31 2 35
-10 13 -33 -21 -64 -38 -36 -3 6 -11 10 -17 10 -7 0 -6 -6 2 -15 26 -31 70
-11 70 32 0 24 -26 43 -48 35 -9 -3 -13 2 -10 14 2 11 15 21 33 25 29 6 29 7
-7 8 -31 1 -38 -2 -38 -18z"/>
<path d="M8977 543 c-4 -3 -7 -13 -7 -22 1 -14 2 -13 11 2 12 21 38 22 45 2 4
-9 -8 -31 -30 -55 -20 -22 -36 -42 -36 -45 0 -3 21 -4 48 -3 36 1 39 2 15 5
-18 2 -33 7 -33 10 0 3 14 21 30 40 25 28 28 38 20 53 -10 19 -49 27 -63 13z"/>
<path d="M9080 535 c-19 -22 -16 -83 4 -104 36 -35 83 38 55 87 -18 32 -41 39
-59 17z m45 -50 c0 -43 -3 -50 -20 -50 -16 0 -21 8 -23 39 -4 49 3 68 25 64
14 -3 18 -14 18 -53z"/>
<path d="M9195 530 c-16 -18 -16 -20 -2 -15 13 6 17 -2 20 -47 3 -51 3 -50 5
15 1 37 0 67 -1 67 -2 0 -12 -9 -22 -20z"/>
<path d="M9280 531 c0 -11 -3 -26 -6 -35 -5 -13 -1 -15 24 -10 21 4 31 2 35
-10 13 -33 -21 -64 -38 -36 -3 6 -11 10 -17 10 -7 0 -6 -6 2 -15 26 -31 70
-11 70 32 0 24 -26 43 -48 35 -9 -3 -13 2 -10 14 2 11 15 21 33 25 29 6 29 7
-7 8 -31 1 -38 -2 -38 -18z"/>
<path d="M9430 531 c-22 -43 -5 -111 28 -111 27 0 42 20 42 58 0 43 -16 72
-40 72 -11 0 -24 -9 -30 -19z m48 -3 c17 -17 15 -73 -4 -89 -31 -26 -57 38
-34 82 12 22 21 24 38 7z"/>
<path d="M10227 543 c-4 -3 -7 -13 -7 -22 1 -14 2 -13 11 2 12 21 38 22 45 2
4 -9 -8 -31 -30 -55 -20 -22 -36 -42 -36 -45 0 -3 21 -4 48 -3 36 1 39 2 15 5
-18 2 -33 7 -33 10 0 3 14 21 30 40 25 28 28 38 20 53 -10 19 -49 27 -63 13z"/>
<path d="M10330 535 c-19 -22 -16 -83 4 -104 36 -35 83 38 55 87 -18 32 -41
39 -59 17z m45 -50 c0 -43 -3 -50 -20 -50 -16 0 -21 8 -23 39 -4 49 3 68 25
64 14 -3 18 -14 18 -53z"/>
<path d="M10445 528 c-17 -18 -18 -20 -2 -15 15 6 17 0 17 -43 0 -28 5 -50 10
-50 6 0 10 28 10 65 0 36 -3 65 -7 64 -5 0 -17 -10 -28 -21z"/>
<path d="M10548 543 c17 -2 32 -5 32 -7 0 -1 -9 -21 -20 -44 -11 -22 -20 -49
-19 -59 0 -14 3 -12 11 7 6 14 19 42 30 63 10 21 18 40 18 42 0 3 -19 4 -42 3
-37 -1 -39 -2 -10 -5z"/>
<path d="M10686 528 c-10 -38 -7 -44 22 -43 21 0 28 -5 30 -23 4 -27 -22 -40
-45 -21 -14 12 -16 12 -11 -1 8 -24 55 -25 68 0 17 32 4 60 -30 60 -23 0 -27
4 -23 19 3 12 16 22 32 24 24 4 23 4 -5 6 -25 1 -33 -4 -38 -21z"/>
<path d="M11477 543 c-4 -3 -7 -13 -7 -22 1 -14 2 -13 11 2 12 21 38 22 45 2
4 -9 -8 -31 -30 -55 -20 -22 -36 -42 -36 -45 0 -3 21 -4 48 -3 36 1 39 2 15 5
-18 2 -33 7 -33 10 0 3 14 21 30 40 25 28 28 38 20 53 -10 19 -49 27 -63 13z"/>
<path d="M11580 535 c-19 -22 -16 -83 4 -104 36 -35 83 38 55 87 -18 32 -41
39 -59 17z m45 -50 c0 -43 -3 -50 -20 -50 -16 0 -21 8 -23 39 -4 49 3 68 25
64 14 -3 18 -14 18 -53z"/>
<path d="M11682 538 c-21 -21 -13 -32 8 -13 19 17 22 17 36 3 15 -14 13 -19
-20 -56 -20 -21 -36 -42 -36 -46 0 -3 19 -5 43 -4 36 1 38 2 10 5 -39 5 -42
15 -9 37 14 8 27 25 31 36 12 39 -34 67 -63 38z"/>
<path d="M11780 531 c-22 -43 -5 -111 28 -111 27 0 42 20 42 58 0 43 -16 72
-40 72 -11 0 -24 -9 -30 -19z m48 -3 c17 -17 15 -73 -4 -89 -31 -26 -57 38
-34 82 12 22 21 24 38 7z"/>
<path d="M11939 534 c-18 -21 -15 -83 5 -103 25 -25 50 -3 54 48 5 62 -28 92
-59 55z m46 -49 c0 -43 -3 -50 -20 -50 -16 0 -21 8 -23 39 -4 49 3 68 25 64
14 -3 18 -14 18 -53z"/>
<path d="M11880 430 c0 -5 5 -10 10 -10 6 0 10 5 10 10 0 6 -4 10 -10 10 -5 0
-10 -4 -10 -10z"/>
<path d="M3063 269 c3 -8 14 -38 23 -68 18 -52 18 -54 -1 -67 -21 -15 -16 -28
7 -19 17 7 83 168 66 163 -6 -2 -18 -24 -28 -48 l-17 -44 -15 44 c-8 24 -20
46 -27 48 -8 3 -11 -1 -8 -9z"/>
<path d="M3196 264 c-34 -33 -10 -104 34 -104 29 0 50 11 50 26 0 18 -8 18
-26 -1 -12 -11 -20 -12 -35 -5 -31 17 -22 30 20 30 48 0 58 13 37 45 -19 29
-57 33 -80 9z m64 -19 c0 -10 -10 -15 -30 -15 -29 0 -38 9 -23 23 13 13 53 7
53 -8z"/>
<path d="M3333 273 c-7 -2 -13 -12 -13 -21 0 -12 3 -13 12 -4 17 17 58 15 58
-3 0 -9 -9 -15 -23 -15 -32 0 -60 -23 -55 -46 3 -16 12 -19 53 -20 l50 -1 -4
51 c-2 28 -8 54 -15 58 -12 9 -44 9 -63 1z m57 -68 c0 -17 -29 -34 -47 -28
-20 7 -15 23 10 33 31 13 37 12 37 -5z"/>
<path d="M3440 218 c0 -32 4 -58 10 -58 6 0 10 21 10 46 0 37 4 47 20 51 30 8
24 22 -10 21 -30 -1 -30 -1 -30 -60z"/>
<path d="M3527 274 c-18 -18 -5 -46 28 -60 19 -8 35 -18 35 -23 0 -17 -28 -19
-50 -4 -20 14 -22 14 -18 -3 2 -13 13 -20 34 -22 59 -6 72 54 14 68 -13 3 -26
12 -28 19 -4 11 3 13 27 8 24 -5 31 -3 29 6 -5 13 -60 22 -71 11z"/>
<path d="M9063 269 c3 -8 14 -38 23 -68 18 -52 18 -54 -1 -67 -21 -15 -16 -28
7 -19 17 7 83 168 66 163 -6 -2 -18 -24 -28 -48 l-17 -44 -15 44 c-8 24 -20
46 -27 48 -8 3 -11 -1 -8 -9z"/>
<path d="M9196 264 c-34 -33 -10 -104 34 -104 29 0 50 11 50 26 0 18 -8 18
-26 -1 -12 -11 -20 -12 -35 -5 -31 17 -22 30 20 30 48 0 58 13 37 45 -19 29
-57 33 -80 9z m64 -19 c0 -10 -10 -15 -30 -15 -29 0 -38 9 -23 23 13 13 53 7
53 -8z"/>
<path d="M9333 273 c-7 -2 -13 -12 -13 -21 0 -12 3 -13 12 -4 17 17 58 15 58
-3 0 -9 -9 -15 -23 -15 -32 0 -60 -23 -55 -46 3 -16 12 -19 53 -20 l50 -1 -4
51 c-2 28 -8 54 -15 58 -12 9 -44 9 -63 1z m57 -68 c0 -17 -29 -34 -47 -28
-20 7 -15 23 10 33 31 13 37 12 37 -5z"/>
<path d="M9440 218 c0 -32 4 -58 10 -58 6 0 10 21 10 46 0 37 4 47 20 51 30 8
24 22 -10 21 -30 -1 -30 -1 -30 -60z"/>
<path d="M9527 274 c-18 -18 -5 -46 28 -60 19 -8 35 -18 35 -23 0 -17 -28 -19
-50 -4 -20 14 -22 14 -18 -3 2 -13 13 -20 34 -22 59 -6 72 54 14 68 -13 3 -26
12 -28 19 -4 11 3 13 27 8 24 -5 31 -3 29 6 -5 13 -60 22 -71 11z"/>
</g>
</svg>
