<?xml version="1.0" standalone="no"?>
<!DOCTYPE svg PUBLIC "-//W3C//DTD SVG 20010904//EN"
 "http://www.w3.org/TR/2001/REC-SVG-20010904/DTD/svg10.dtd">
<svg version="1.0" xmlns="http://www.w3.org/2000/svg"
 width="1200.000000pt" height="960.000000pt" viewBox="0 0 1200.000000 960.000000"
 preserveAspectRatio="xMidYMid meet">

<g transform="translate(0.000000,960.000000) scale(0.100000,-0.100000)"
fill="#000000" stroke="none">
<path d="M1160 9380 c0 -104 17 -140 22 -49 3 55 21 78 52 66 12 -5 16 -20 16
-62 0 -30 5 -55 10 -55 6 0 10 28 10 65 0 59 -2 67 -22 74 -13 5 -33 5 -45 0
-21 -8 -23 -6 -23 26 0 19 -4 35 -10 35 -6 0 -10 -40 -10 -100z"/>
<path d="M1607 9473 c-4 -3 -7 -48 -7 -100 0 -76 3 -93 15 -93 10 0 15 10 15
29 0 44 15 46 40 6 12 -19 28 -35 36 -35 11 0 7 12 -15 43 l-30 44 27 26 c36
36 7 36 -30 0 l-28 -27 0 57 c0 53 -7 67 -23 50z"/>
<path d="M2200 9465 c0 -8 5 -15 10 -15 6 0 10 7 10 15 0 8 -4 15 -10 15 -5 0
-10 -7 -10 -15z"/>
<path d="M2350 9445 c0 -33 -1 -34 -26 -25 -53 21 -96 -64 -58 -118 12 -18 24
-22 60 -20 l44 1 0 99 c0 59 -4 98 -10 98 -5 0 -10 -16 -10 -35z m-16 -51 c32
-32 15 -94 -26 -94 -38 0 -43 88 -6 103 7 3 14 6 15 6 1 1 9 -6 17 -15z"/>
<path d="M2720 9380 c0 -60 4 -100 10 -100 6 0 10 40 10 100 0 60 -4 100 -10
100 -6 0 -10 -40 -10 -100z"/>
<path d="M1060 9423 c-26 -9 -40 -35 -40 -73 0 -43 24 -70 62 -70 22 0 58 26
58 43 0 14 -28 7 -34 -8 -7 -19 -40 -19 -55 -1 -17 20 -10 67 11 80 12 7 24 6
42 -4 30 -16 41 -10 23 12 -14 19 -46 28 -67 21z"/>
<path d="M1350 9418 c-32 -12 -40 -25 -40 -69 0 -44 25 -69 67 -69 33 0 59 22
47 41 -5 8 -9 7 -16 -5 -11 -20 -51 -21 -68 -1 -19 23 -2 35 51 35 l49 0 -13
31 c-15 37 -42 50 -77 37z m60 -43 c0 -10 -11 -15 -34 -15 -43 0 -53 14 -25
34 25 17 59 6 59 -19z"/>
<path d="M1500 9423 c-26 -9 -40 -35 -40 -73 0 -43 24 -70 62 -70 22 0 58 26
58 43 0 14 -28 7 -34 -8 -7 -19 -40 -19 -55 -1 -17 20 -10 67 11 80 12 7 24 6
42 -4 30 -16 41 -10 23 12 -14 19 -46 28 -67 21z"/>
<path d="M1943 9419 c-42 -15 -56 -76 -27 -117 20 -29 74 -30 99 -2 14 16 15
20 4 20 -8 0 -20 -5 -26 -11 -18 -18 -58 -7 -61 19 -3 20 0 22 47 22 43 0 51
3 51 18 0 35 -50 65 -87 51z m57 -44 c0 -10 -11 -15 -35 -15 -38 0 -48 22 -18
39 21 11 53 -3 53 -24z"/>
<path d="M2083 9420 c-40 -16 -30 -53 20 -76 23 -10 42 -23 42 -29 0 -18 -48
-18 -61 0 -8 11 -14 13 -19 5 -12 -20 17 -41 53 -38 66 6 69 60 5 82 -40 14
-51 25 -34 35 15 10 51 3 51 -10 0 -5 5 -9 10 -9 21 0 9 31 -16 40 -14 6 -26
10 -27 9 -1 0 -12 -4 -24 -9z"/>
<path d="M2605 9422 c-38 -8 -62 -42 -30 -42 8 0 15 4 15 9 0 13 27 21 45 15
25 -10 17 -33 -12 -39 -46 -10 -58 -21 -58 -51 0 -29 1 -29 58 -30 l57 -1 0
57 c0 68 -23 93 -75 82z m43 -94 c-2 -18 -10 -23 -33 -23 -37 0 -41 26 -5 36
39 11 42 10 38 -13z"/>
<path d="M2804 9419 c-46 -17 -33 -63 21 -77 17 -5 30 -15 30 -23 0 -21 -44
-24 -59 -3 -9 12 -15 14 -20 5 -24 -38 71 -58 98 -20 20 30 10 47 -35 60 -39
12 -51 32 -25 42 7 3 24 -1 35 -10 25 -17 40 -10 22 11 -16 19 -42 25 -67 15z"/>
<path d="M1820 9348 c0 -80 18 -92 22 -15 2 43 7 54 26 62 32 14 27 25 -13 23
l-35 -1 0 -69z"/>
<path d="M2200 9350 c0 -40 4 -70 10 -70 6 0 10 30 10 70 0 40 -4 70 -10 70
-6 0 -10 -30 -10 -70z"/>
<path d="M2410 9369 c0 -28 5 -59 10 -70 12 -22 59 -26 78 -7 9 9 12 9 12 0 0
-7 5 -12 10 -12 6 0 10 30 10 70 0 54 -3 70 -15 70 -10 0 -15 -15 -17 -57 -3
-54 -5 -58 -28 -58 -23 0 -25 4 -28 58 -2 42 -7 57 -17 57 -11 0 -15 -13 -15
-51z"/>
<path d="M2920 9410 c0 -5 7 -10 15 -10 8 0 15 5 15 10 0 6 -7 10 -15 10 -8 0
-15 -4 -15 -10z"/>
<path d="M2927 9303 c-12 -11 -8 -23 8 -23 8 0 15 7 15 15 0 16 -12 20 -23 8z"/>
<path d="M4587 8923 c-4 -58 -8 -224 -9 -367 -1 -144 -3 -240 -5 -213 -4 52
-18 62 -27 20 -3 -16 -10 -161 -16 -323 -6 -162 -13 -299 -14 -305 -2 -5 -6
71 -10 170 -4 99 -10 182 -12 184 -10 10 -13 -12 -20 -139 -3 -74 -7 -136 -9
-138 -1 -1 -5 98 -9 220 -6 211 -17 298 -35 298 -8 0 -21 -150 -21 -246 0 -29
-6 -64 -14 -79 l-15 -28 -3 37 c-5 60 -23 41 -29 -31 -5 -62 -6 -59 -7 38 -1
73 -6 111 -16 125 -8 10 -17 16 -21 12 -4 -3 -10 -55 -14 -115 l-7 -108 -8
120 c-9 149 -9 150 -21 150 -12 0 -23 -69 -24 -151 -1 -42 -6 -66 -16 -74 -9
-8 -15 -30 -15 -56 0 -37 -3 -44 -19 -44 -21 0 -23 11 -41 230 -13 158 -23
216 -35 213 -6 -2 -12 -134 -16 -340 -3 -186 -7 -340 -8 -343 -13 -22 -36 328
-44 648 -2 95 -17 124 -28 55 -6 -36 -6 -35 -8 14 -3 124 -31 103 -32 -25 -1
-53 -3 -88 -6 -77 -2 11 -6 30 -9 43 -9 42 -24 12 -25 -51 -2 -49 -4 -40 -9
41 -8 106 -13 123 -31 105 -14 -14 -47 -238 -51 -348 -1 -27 -6 74 -12 225
-14 343 -30 365 -34 45 -1 -139 -6 -225 -12 -225 -6 0 -10 -7 -10 -17 0 -30
-12 -5 -25 49 -13 59 -27 68 -36 23 -8 -43 -16 -18 -29 103 -12 96 -28 136
-32 75 0 -16 -2 -32 -3 -38 -2 -5 -4 -134 -5 -285 -3 -254 -4 -266 -12 -160
-5 63 -11 125 -14 138 -7 35 -22 26 -27 -15 -2 -21 -4 23 -5 98 -2 150 -10
229 -23 229 -5 0 -9 -7 -9 -15 0 -8 -6 -14 -12 -12 -13 2 -16 -44 -28 -358 -2
-50 -7 -17 -16 115 -7 102 -16 197 -21 212 -17 58 -28 26 -35 -99 -4 -71 -10
-139 -13 -153 -4 -14 -10 -50 -14 -80 -6 -42 -8 -20 -10 96 -1 104 -5 154 -13
162 -8 8 -14 53 -16 122 -3 61 -8 110 -12 110 -10 0 -20 -79 -20 -166 0 -41
-4 -74 -10 -74 -5 0 -11 60 -12 147 -2 106 -6 147 -15 151 -9 2 -13 -10 -13
-41 0 -37 -3 -45 -17 -43 -16 1 -19 -17 -24 -196 -4 -108 -11 -202 -15 -210
-12 -19 -23 49 -24 152 -1 105 -17 186 -35 169 -2 -3 -8 -78 -13 -168 -5 -99
-12 -165 -19 -169 -6 -4 -13 -21 -16 -37 -2 -17 -5 13 -6 65 -2 157 -14 320
-22 320 -4 0 -11 -16 -15 -35 -3 -19 -10 -38 -15 -41 -5 -3 -9 -16 -9 -29 0
-12 -7 -25 -15 -29 -12 -4 -15 -32 -17 -153 l-2 -148 -6 130 c-5 130 -18 167
-32 90 -4 -22 -8 -69 -9 -105 -2 -60 -3 -58 -10 35 -5 55 -11 162 -15 238 -4
97 -10 137 -18 134 -18 -6 -24 -79 -25 -287 -1 -209 -12 -240 -32 -90 -6 47
-17 99 -25 117 -9 20 -14 68 -14 137 0 58 -4 106 -9 106 -12 0 -21 -26 -21
-60 0 -16 -4 -32 -10 -35 -5 -3 -10 -27 -10 -53 0 -34 -3 -43 -10 -32 -5 8
-10 52 -10 98 0 48 -4 82 -10 82 -5 0 -10 7 -10 15 0 7 -7 18 -15 22 -12 7
-15 52 -17 273 -2 170 -7 264 -13 263 -9 -3 -17 -306 -24 -868 -1 -147 -19
-145 -28 3 -3 56 -9 102 -13 102 -10 0 -20 -113 -22 -250 -1 -127 -5 -113 -16
60 -7 113 -7 115 -32 119 -14 1 -28 8 -32 14 -14 23 -19 -4 -25 -129 -9 -177
-23 -126 -32 119 -7 168 -12 209 -25 196 -2 -2 -9 -85 -15 -183 -6 -99 -16
-184 -21 -191 -5 -6 -13 -45 -16 -86 -4 -41 -10 -83 -14 -93 -7 -20 -20 324
-20 539 0 114 -9 161 -24 136 -10 -16 -25 -217 -27 -356 -1 -66 -4 -108 -6
-92 -2 15 -8 27 -12 27 -9 0 -21 -49 -21 -86 0 -13 -4 -24 -10 -24 -6 0 -11
79 -12 203 -2 155 -6 201 -15 199 -9 -1 -13 13 -13 47 0 53 -14 75 -24 38 -3
-12 -6 -83 -6 -158 0 -239 -14 -258 -20 -27 -4 183 -10 232 -24 217 -2 -2 -7
-136 -11 -296 -4 -161 -12 -293 -16 -293 -5 0 -10 42 -10 93 -1 50 -4 236 -8
412 -8 405 -24 427 -31 43 -3 -150 -7 -266 -8 -257 -1 9 -9 30 -17 45 -11 22
-15 65 -15 177 0 134 -7 174 -24 131 -3 -9 -6 -67 -6 -129 0 -74 -4 -115 -11
-117 -7 -2 -13 -54 -17 -138 -3 -74 -8 -127 -10 -117 -3 17 -21 24 -23 10 0
-5 -9 -82 -19 -173 l-18 -165 -2 150 c-1 83 -3 161 -5 175 -1 14 -8 151 -14
305 -16 359 -14 338 -28 343 -10 3 -13 -19 -13 -85 -1 -220 -29 -777 -39 -767
-3 3 -8 134 -11 290 -4 206 -9 287 -17 292 -8 5 -13 45 -15 115 -2 63 -7 107
-13 107 -6 0 -12 -78 -15 -202 -3 -112 -7 -166 -8 -121 -2 73 -12 107 -25 86
-3 -5 -9 -114 -13 -243 -8 -216 -9 -229 -18 -157 -5 42 -12 77 -16 77 -12 0
-32 -89 -39 -170 -7 -74 -11 78 -27 843 -4 163 -10 297 -14 297 -12 0 -20
-178 -21 -470 -1 -151 -5 -318 -9 -370 -6 -82 -7 -68 -8 103 -2 168 -4 197
-17 197 -13 0 -15 -20 -15 -122 0 -68 -3 -234 -7 -371 l-6 -247 24 3 c23 4 24
8 32 108 4 57 11 145 15 194 l8 90 7 -125 c4 -69 11 -248 16 -398 8 -254 12
-294 26 -280 3 3 9 140 12 304 6 304 15 352 26 141 6 -113 19 -172 31 -137 2
8 8 83 13 165 4 83 9 135 11 118 4 -44 16 -42 29 5 l10 37 2 -37 c0 -21 6 -38
11 -38 6 0 10 -31 10 -73 0 -61 3 -75 20 -90 12 -10 25 -15 29 -13 4 3 14 119
20 258 7 139 13 262 15 273 5 47 17 -171 24 -450 6 -267 9 -300 23 -303 15 -3
18 13 23 115 8 132 23 265 25 216 0 -17 5 -35 11 -38 11 -7 18 20 23 85 3 33
4 28 5 -22 3 -99 32 -101 32 -2 0 24 5 44 10 44 6 0 11 17 12 38 2 46 15 -210
17 -330 0 -51 5 -88 11 -88 6 0 10 39 10 98 0 53 5 104 10 112 7 11 10 7 10
-17 0 -18 4 -33 9 -33 12 0 21 37 21 92 0 26 4 50 10 53 6 3 11 25 11 48 1 32
3 26 10 -26 13 -114 26 -107 38 19 l8 89 2 -67 c0 -37 6 -70 11 -73 6 -4 10
-56 10 -123 0 -134 10 -252 20 -252 4 0 11 91 15 203 8 200 22 239 24 65 1
-88 14 -117 24 -55 4 17 10 145 14 282 l8 250 7 -195 c12 -296 19 -400 28
-400 9 0 13 22 36 220 9 80 20 149 25 155 5 5 10 25 10 45 l2 35 8 -40 c5 -22
14 -74 20 -115 7 -41 13 -77 15 -79 2 -2 10 2 19 9 11 9 15 34 15 101 0 53 4
89 10 89 6 0 10 -41 10 -103 0 -163 12 -377 22 -377 4 0 8 21 8 48 0 26 3 92
7 147 l7 100 11 -93 c5 -51 15 -94 20 -95 6 -1 12 42 15 108 3 61 8 103 12 95
3 -8 9 -95 11 -193 5 -163 9 -198 21 -186 3 2 9 110 14 239 7 183 9 208 10
113 1 -74 6 -123 12 -123 6 0 10 34 10 83 0 68 3 84 15 84 13 0 15 -21 15
-124 0 -96 3 -123 13 -123 11 0 15 53 21 268 4 147 11 296 15 332 6 55 8 40
14 -104 4 -93 7 -200 7 -238 0 -125 29 -70 31 61 l2 66 8 -75 c4 -41 12 -135
17 -208 9 -124 14 -153 27 -140 3 3 9 146 13 319 l8 314 8 -223 c8 -197 10
-223 25 -220 12 2 17 20 22 73 l5 70 2 -80 c3 -132 14 -215 27 -215 17 0 25
70 25 224 0 78 4 136 10 142 6 6 14 73 18 150 l7 139 6 -115 c4 -63 7 -179 8
-257 1 -115 4 -143 15 -143 16 0 26 30 26 79 0 19 6 39 14 45 11 8 17 48 24
141 7 102 9 115 11 60 2 -106 19 -208 36 -218 8 -4 15 -21 15 -37 0 -17 5 -30
10 -30 6 0 10 35 11 83 0 45 4 105 9 132 7 48 7 48 9 -27 0 -45 5 -78 11 -78
6 0 10 21 10 46 0 43 2 46 23 40 12 -3 25 -6 30 -6 4 0 7 -11 7 -25 0 -14 4
-25 8 -25 5 0 12 -55 16 -122 6 -116 15 -152 33 -134 5 4 11 71 15 149 3 78
11 169 16 202 6 33 12 89 13 125 3 84 16 -254 18 -472 1 -134 4 -168 14 -168
11 0 15 37 20 168 6 183 25 352 38 352 5 0 9 -72 9 -160 0 -136 2 -160 15
-160 11 0 15 12 16 48 1 26 4 58 8 72 9 30 18 -88 27 -363 5 -129 10 -187 18
-184 8 3 13 137 17 443 3 241 7 440 7 442 1 2 6 1 10 -2 5 -3 12 -157 16 -343
4 -185 9 -339 11 -342 16 -15 20 42 24 327 3 189 8 295 12 262 4 -30 7 -92 8
-137 1 -54 5 -83 13 -85 9 -3 13 -59 16 -201 4 -183 11 -230 26 -174 3 12 7
94 8 182 l2 160 6 -150 c6 -179 24 -200 27 -33 4 189 23 611 29 651 13 74 24
35 24 -81 0 -65 3 -121 6 -125 17 -17 34 9 35 52 1 52 5 42 14 -41 9 -77 25
-74 26 5 1 34 5 73 9 87 8 24 8 24 9 -7 1 -17 5 -33 10 -35 5 -1 12 -64 16
-138 3 -74 11 -171 16 -215 6 -44 14 -191 18 -328 7 -227 12 -270 26 -255 9 9
25 391 26 653 2 328 16 283 29 -88 5 -143 11 -261 14 -265 13 -12 16 11 23
169 4 90 9 154 11 142 5 -31 22 -29 22 2 0 14 7 28 15 31 11 4 15 22 16 63 0
31 4 79 8 106 6 42 8 29 14 -79 4 -71 9 -131 12 -134 13 -13 21 19 31 131 l11
122 2 -113 c1 -108 10 -152 31 -152 6 0 11 17 11 38 1 20 5 51 9 67 l8 30 1
-27 c0 -16 5 -28 10 -28 10 0 21 59 21 122 0 26 5 50 10 53 6 3 10 36 10 72 0
37 2 64 5 61 3 -3 10 -138 16 -299 5 -162 12 -301 15 -309 4 -13 6 -13 14 0 6
8 10 26 11 40 2 24 2 24 6 2 3 -13 10 -21 16 -19 18 6 35 156 43 380 4 108 9
195 11 193 2 -2 7 -98 11 -212 11 -330 26 -263 32 141 3 193 8 342 13 332 4
-10 7 -74 7 -143 0 -68 7 -219 15 -336 8 -117 16 -244 17 -282 2 -45 7 -71 16
-74 9 -3 12 24 12 115 0 65 3 161 6 213 6 84 9 96 25 96 17 0 19 -10 19 -116
0 -63 3 -139 6 -167 12 -97 24 -43 25 115 2 135 3 146 9 80 5 -55 13 -82 27
-97 16 -18 21 -42 26 -134 4 -61 7 -142 7 -179 0 -67 13 -97 24 -55 3 12 6 90
7 172 3 243 12 388 27 393 8 2 12 -10 12 -42 0 -34 4 -46 15 -46 12 0 15 -14
15 -67 0 -89 11 -173 21 -173 5 0 9 9 9 20 0 11 7 20 15 20 11 0 15 12 15 45
0 33 4 45 15 45 12 0 15 16 15 80 0 44 4 80 9 80 5 0 13 15 18 33 6 25 9 7 13
-78 8 -168 25 -137 28 50 2 143 4 157 16 133 11 -20 16 -98 22 -297 4 -149 10
-271 14 -271 12 0 20 98 20 255 0 177 12 215 28 89 7 -48 14 -89 17 -92 20
-20 34 64 36 218 2 115 3 125 9 70 4 -36 12 -83 18 -105 6 -22 15 -148 21
-280 6 -132 14 -259 17 -282 11 -86 22 -39 28 120 3 89 11 275 18 412 11 231
12 246 23 197 14 -61 20 -69 38 -53 12 9 15 -1 20 -56 4 -38 7 -126 7 -196 0
-101 3 -132 15 -143 8 -9 15 -33 15 -53 0 -57 11 -101 25 -101 10 0 15 42 20
165 4 91 11 165 16 165 5 0 9 -16 9 -35 0 -19 4 -35 10 -35 5 0 11 -44 12 -97
2 -57 7 -98 13 -98 6 0 12 131 16 363 3 199 9 365 12 369 4 3 7 -23 7 -58 1
-35 5 -98 11 -139 5 -41 13 -171 17 -287 7 -190 13 -236 26 -222 5 5 26 199
35 319 l6 85 11 -128 c11 -120 17 -148 29 -135 3 2 8 67 12 144 3 76 7 134 9
129 1 -6 9 -35 17 -65 11 -39 17 -127 21 -309 3 -140 8 -256 11 -259 14 -14
17 28 25 290 11 356 13 370 20 170 6 -183 22 -218 30 -65 l6 98 4 -74 c3 -47
10 -76 18 -79 8 -2 12 12 14 50 l1 53 6 -54 c8 -77 30 -80 33 -4 1 51 2 53 5
13 5 -72 13 -110 23 -110 6 0 10 24 11 53 1 83 13 99 27 36 7 -30 13 -67 15
-84 1 -16 7 -30 12 -30 6 0 12 99 15 267 5 280 20 381 20 142 1 -202 14 -345
34 -360 13 -9 16 -32 16 -123 0 -61 4 -111 9 -111 11 0 21 110 21 240 0 188
15 201 20 17 3 -101 9 -167 15 -167 11 0 19 109 31 435 8 224 17 229 32 20 5
-78 10 -100 22 -100 8 0 17 11 21 25 6 23 7 22 14 -12 12 -61 23 -44 29 45 12
155 13 163 14 95 2 -53 5 -68 17 -68 8 0 15 -4 15 -10 0 -18 20 -11 21 8 0 14
2 14 9 -3 5 -11 9 -55 9 -97 1 -81 13 -101 27 -45 7 29 8 27 12 -25 3 -58 13
-72 30 -42 7 12 12 -9 17 -70 5 -64 10 -86 21 -86 11 0 14 18 14 79 0 50 4 81
11 83 6 2 14 28 17 58 6 51 7 46 17 -59 14 -154 31 -157 37 -6 5 117 11 141
29 115 7 -12 11 -12 17 -2 5 7 12 -118 16 -284 3 -164 9 -300 11 -303 11 -11
14 13 21 174 4 94 11 173 15 176 5 3 13 44 18 91 4 47 12 92 17 99 5 8 14 61
19 119 11 104 11 102 19 -178 7 -258 14 -318 29 -277 4 8 9 158 13 335 4 176
9 318 11 316 3 -2 8 -107 13 -233 23 -599 21 -573 40 -573 16 0 19 15 24 128
15 280 36 546 45 555 8 8 16 -43 24 -156 3 -47 21 -49 25 -2 2 19 7 35 13 35
5 0 9 -81 9 -198 0 -227 9 -384 21 -376 5 3 9 16 9 30 0 15 6 24 15 24 13 0
15 21 15 131 0 103 3 134 15 145 9 10 16 37 17 72 l1 57 6 -58 c3 -31 10 -56
15 -55 5 2 14 -8 20 -22 9 -22 11 -16 16 45 l5 70 8 -94 c4 -52 7 -127 7 -168
0 -40 4 -73 9 -73 12 0 21 130 21 308 0 133 2 153 14 143 12 -10 17 -6 25 26
6 21 11 63 11 93 0 54 9 82 26 82 15 -1 23 -35 23 -102 1 -82 18 -227 28 -243
4 -7 13 22 19 68 7 52 12 67 13 43 0 -21 5 -38 10 -38 12 0 21 61 22 155 1
111 17 155 18 53 1 -62 4 -78 16 -78 12 0 15 13 15 55 0 53 11 72 24 39 3 -9
6 -36 6 -60 0 -43 15 -61 22 -26 2 9 7 -102 11 -247 7 -243 10 -282 21 -270 2
2 7 76 11 164 4 88 10 162 15 165 4 3 9 32 12 64 3 33 10 62 16 64 8 2 12 39
12 112 0 62 4 111 10 115 7 4 10 -83 10 -253 0 -291 9 -532 21 -532 9 0 18
150 27 470 l8 245 7 -190 c8 -208 13 -255 27 -255 5 0 12 26 15 58 4 31 11 75
15 97 8 39 8 39 9 8 1 -18 5 -33 10 -33 6 0 13 -31 17 -70 3 -38 11 -70 15
-70 5 0 10 53 11 118 l1 117 7 -110 c4 -60 8 -131 9 -157 2 -83 21 -53 21 32
0 47 4 80 10 80 6 0 10 -27 10 -60 0 -33 4 -60 8 -60 12 0 22 158 23 365 1 94
4 211 8 260 l8 90 2 -85 c2 -98 16 -228 25 -237 13 -13 15 8 22 175 4 95 11
172 16 172 4 0 8 -5 8 -11 0 -6 6 -9 14 -6 12 5 15 -40 21 -264 6 -223 10
-269 21 -265 8 3 14 -1 14 -9 0 -8 4 -15 9 -15 11 0 21 84 22 205 2 140 18 61
18 -92 1 -72 5 -113 12 -115 7 -2 13 -53 17 -136 2 -73 8 -132 12 -132 13 0
20 42 20 124 0 118 14 82 20 -51 3 -81 9 -118 18 -121 9 -3 12 19 12 90 0 51
3 171 7 267 5 149 8 171 20 155 10 -13 13 -63 13 -196 0 -152 2 -178 15 -178
12 0 15 16 17 78 1 42 5 -5 8 -106 7 -258 24 -243 28 26 2 179 5 212 17 212
13 0 15 28 17 173 1 94 4 138 5 97 2 -41 8 -79 12 -85 5 -5 12 -28 16 -50 14
-80 43 -97 47 -27 1 20 4 -2 7 -51 6 -88 21 -117 32 -62 6 29 7 29 8 -7 1 -27
6 -38 16 -38 12 0 15 16 16 78 1 42 4 118 8 167 6 85 7 87 14 45 8 -42 9 -44
23 -26 8 11 14 29 15 40 0 19 1 18 11 -4 5 -14 13 -84 17 -157 6 -119 13 -155
25 -142 2 2 8 92 12 199 l8 195 9 -105 c4 -59 13 -107 19 -111 7 -4 14 -43 17
-86 4 -43 9 -73 13 -67 4 6 10 91 14 189 7 177 17 201 29 73 13 -138 30 -147
40 -20 11 155 19 141 30 -53 6 -116 14 -189 20 -188 6 2 11 26 13 54 2 28 10
58 18 66 8 8 14 22 14 30 0 9 3 13 7 10 15 -16 33 19 34 67 1 28 5 65 9 81 7
26 8 24 9 -20 1 -27 8 -203 16 -390 8 -187 15 -368 15 -402 0 -49 3 -63 15
-63 13 0 15 41 15 310 0 190 4 310 10 310 10 0 15 26 27 135 7 68 7 69 13 26
3 -25 11 -46 18 -49 9 -3 12 27 13 125 1 229 14 249 22 34 4 -107 9 -197 12
-199 10 -10 14 6 23 93 l9 90 3 -105 c8 -298 16 -435 25 -433 6 2 13 64 16
145 4 79 12 163 18 188 6 25 11 101 12 170 2 173 9 124 17 -135 5 -161 10
-219 20 -223 9 -3 12 31 14 145 l2 148 6 -170 c4 -93 8 -171 9 -173 0 -2 5 -1
10 2 5 3 12 47 16 97 4 50 13 103 21 117 12 24 14 14 16 -96 2 -73 7 -122 13
-122 9 0 17 114 24 345 2 44 5 55 11 40 5 -11 9 -34 9 -51 1 -25 6 -33 25 -38
31 -8 36 -40 36 -231 0 -151 5 -195 21 -195 5 0 9 64 9 143 0 179 10 308 23
300 5 -3 13 0 17 7 8 14 16 -103 26 -400 3 -102 8 -187 10 -189 22 -23 32 106
33 437 1 167 5 262 11 262 6 0 10 -19 10 -42 0 -93 13 -179 25 -174 8 3 14
-10 18 -40 2 -25 8 -48 12 -52 15 -15 35 34 35 85 0 29 4 53 9 53 5 0 12 -65
16 -145 4 -80 10 -145 15 -145 8 0 20 147 20 247 0 34 4 63 9 63 4 0 12 33 17
73 7 64 9 51 16 -132 4 -112 10 -206 13 -209 12 -12 16 11 21 134 4 71 10 134
15 140 5 5 11 55 14 110 3 54 9 128 12 164 l7 65 7 -70 c4 -38 15 -196 24
-350 9 -154 19 -282 21 -284 14 -14 19 28 22 162 1 84 7 161 12 172 5 11 11
36 12 55 2 19 7 -25 12 -97 4 -73 12 -133 17 -133 5 0 10 21 10 48 1 26 4 61
8 77 8 35 21 -163 21 -322 0 -85 3 -103 15 -103 13 0 15 30 16 203 2 237 14
571 17 452 3 -129 14 -245 23 -245 5 0 9 19 10 43 l1 42 10 -37 c6 -21 13 -38
18 -38 8 0 19 70 21 139 2 45 2 45 9 -14 4 -33 8 -88 9 -123 1 -46 4 -63 14
-60 8 3 13 39 17 114 l5 109 5 -145 c8 -241 27 -178 40 135 3 65 5 60 15 -27
9 -83 25 -71 26 20 0 64 2 72 11 50 10 -30 23 -36 31 -15 3 6 6 -18 6 -54 1
-104 13 -219 22 -219 5 0 9 16 9 35 0 24 5 35 15 35 10 0 15 11 16 38 1 20 5
-19 10 -86 7 -116 12 -142 24 -130 3 2 8 77 11 167 4 89 10 164 14 166 8 5 20
-230 20 -402 0 -67 3 -128 6 -137 18 -47 24 23 25 282 1 158 4 298 8 312 7 24
8 24 16 -10 4 -19 11 -142 14 -273 4 -144 10 -238 16 -240 6 -1 11 31 13 78 2
44 8 82 13 86 6 3 13 65 16 137 4 93 10 132 18 132 8 0 14 -46 18 -161 6 -153
9 -180 23 -166 3 3 9 122 12 264 7 269 19 281 21 21 1 -116 3 -138 16 -138 11
0 15 -12 15 -45 0 -25 4 -45 9 -45 14 0 20 73 32 385 5 159 12 292 15 294 2 2
4 -81 4 -185 0 -212 9 -384 20 -384 4 0 9 66 12 147 2 104 7 148 16 151 7 2
12 21 12 44 0 23 3 39 6 36 3 -3 10 -205 15 -449 9 -423 12 -479 25 -466 5 5
29 500 35 717 l2 75 7 -100 c4 -55 8 -124 9 -152 1 -49 3 -53 25 -53 13 0 27
7 30 16 3 9 9 95 13 192 l8 177 10 -100 c5 -55 13 -104 16 -110 4 -5 10 -75
14 -155 3 -80 9 -147 11 -149 11 -11 17 16 25 116 5 59 13 142 17 183 l8 75 6
-130 c4 -80 10 -131 17 -133 7 -2 11 -45 11 -123 0 -99 3 -119 15 -119 13 0
15 28 16 193 0 161 3 187 13 164 18 -40 26 -23 26 51 0 46 4 68 15 76 12 9 17
60 27 253 11 217 9 268 -7 252 -2 -3 -8 -75 -11 -161 -6 -125 -10 -155 -21
-151 -10 4 -13 33 -13 123 0 107 -8 145 -26 127 -3 -2 -8 -84 -11 -180 -4
-125 -10 -177 -18 -181 -14 -5 -25 42 -25 109 0 39 -14 75 -24 64 -3 -2 -8
-72 -12 -154 -7 -172 -21 -265 -23 -155 -1 37 -5 70 -10 75 -7 8 -31 195 -31
243 0 21 -29 13 -35 -10 -3 -13 -6 -61 -8 -108 -2 -57 -4 -38 -6 60 -2 131
-14 251 -21 225 -2 -5 -6 16 -9 48 -3 31 -10 58 -16 60 -8 2 -31 -336 -46
-703 -5 -114 -21 413 -39 1258 0 12 -4 22 -9 22 -4 0 -11 -102 -15 -227 -4
-126 -12 -229 -17 -231 -5 -2 -10 -47 -11 -100 0 -53 -3 -81 -5 -62 -6 60 -14
83 -23 74 -12 -12 -30 -248 -30 -395 0 -117 -7 -179 -19 -179 -4 0 -12 113
-18 251 -7 138 -14 254 -18 257 -16 17 -23 -38 -31 -242 -5 -137 -10 -200 -14
-165 -3 31 -10 62 -17 70 -7 9 -13 54 -15 105 -2 53 -7 88 -13 87 -6 -2 -12
-103 -16 -263 -4 -144 -9 -263 -11 -266 -3 -2 -7 88 -11 202 -3 129 -9 210
-16 217 -7 7 -11 67 -11 166 0 151 -11 231 -30 231 -6 0 -10 -61 -11 -147 -1
-149 -14 -374 -17 -295 -1 23 -6 42 -11 42 -11 0 -21 -60 -21 -131 0 -38 -5
-61 -15 -69 -13 -11 -15 -6 -15 32 0 24 -7 53 -15 65 -12 16 -15 66 -17 242
-4 269 -21 301 -28 54 -5 -164 -5 -165 -10 -63 -3 63 -9 104 -15 103 -5 -2
-12 -47 -15 -100 l-6 -98 -4 84 c-3 50 -10 86 -16 88 -8 3 -13 -39 -16 -136
-3 -113 -8 -144 -21 -159 -9 -10 -17 -25 -17 -33 -1 -11 -2 -11 -9 1 -5 8 -11
78 -15 154 -3 77 -8 142 -11 144 -14 14 -20 -23 -25 -176 -4 -92 -7 -161 -8
-154 -1 6 -11 12 -21 12 -14 0 -21 -8 -24 -27 -2 -16 -5 22 -6 82 -1 61 -6
117 -11 125 -5 8 -11 11 -12 5 -1 -5 -4 24 -7 65 -3 42 -10 74 -16 73 -11 -3
-29 -160 -41 -363 -7 -108 -9 -118 -15 -75 -4 28 -8 96 -8 153 -1 84 -4 102
-16 102 -10 0 -15 -12 -17 -37 -1 -34 -2 -33 -7 11 -3 27 -11 51 -17 53 -7 2
-13 -36 -17 -117 -4 -84 -11 -127 -22 -142 -14 -21 -15 -18 -15 52 0 41 -4 92
-9 113 -5 21 -15 162 -22 313 -10 215 -15 274 -26 274 -10 0 -13 -28 -13 -128
0 -71 -3 -224 -7 -340 -5 -167 -9 -212 -20 -212 -8 0 -13 11 -13 29 0 38 -20
95 -31 84 -4 -4 -14 -50 -20 -100 -7 -51 -16 -93 -21 -93 -4 0 -9 111 -10 248
-2 156 -7 247 -13 247 -6 0 -11 -57 -13 -145 -2 -100 -6 -146 -15 -152 -8 -5
-13 -56 -17 -160 -4 -139 -5 -146 -11 -73 -3 44 -6 172 -8 284 -1 112 -4 208
-7 213 -17 27 -24 -5 -24 -112 0 -213 -17 -127 -24 122 -3 133 -9 244 -11 247
-3 2 -8 2 -11 -2 -4 -3 -9 -220 -12 -482 -3 -261 -6 -474 -8 -473 -1 2 -6 163
-9 358 -4 195 -8 361 -11 368 -2 7 -8 10 -14 7 -6 -4 -10 -63 -11 -143 -1 -75
-5 -164 -9 -197 l-7 -60 -2 66 c-3 159 -31 176 -31 19 0 -60 -3 -110 -6 -110
-4 0 -13 8 -20 18 -10 13 -13 66 -14 212 0 107 -3 205 -6 217 -14 51 -24 4
-24 -111 0 -92 -4 -127 -15 -142 -8 -10 -15 -39 -15 -64 0 -60 -18 -120 -35
-120 -9 0 -17 -24 -25 -72 -21 -136 -24 -123 -31 122 -8 280 -17 390 -30 390
-5 0 -9 -39 -10 -87 -1 -92 -16 -175 -18 -100 -1 20 -5 37 -11 37 -18 0 -30
-76 -31 -195 0 -66 -4 -140 -8 -165 l-8 -45 -6 35 c-3 19 -8 76 -12 125 -4 73
-9 93 -25 107 -17 14 -20 28 -20 112 0 77 -3 98 -15 102 -8 4 -15 12 -15 20 0
8 -4 14 -9 14 -5 0 -13 -60 -17 -132 -5 -73 -10 -116 -12 -95 -2 20 -7 37 -12
37 -8 0 -13 -30 -23 -140 -2 -19 -5 -7 -5 28 -1 34 -6 62 -11 62 -11 0 -20
-130 -23 -305 -1 -118 -3 -96 -12 135 -7 173 -15 274 -21 273 -5 -1 -16 -46
-23 -100 -21 -155 -29 -200 -31 -171 0 14 -6 28 -13 30 -6 2 -13 31 -16 66 -5
68 -21 85 -23 25 -2 -40 -12 28 -24 160 -5 48 -11 67 -21 67 -11 0 -14 -18
-15 -82 -1 -46 -4 -114 -8 -153 l-6 -70 -15 74 c-10 55 -18 75 -31 78 -16 4
-19 19 -21 97 -4 125 -22 117 -28 -14 -4 -77 -7 -92 -10 -57 -3 26 -9 47 -15
48 -14 0 -23 -69 -24 -174 -1 -49 -5 -86 -10 -83 -4 3 -12 60 -16 126 -5 85
-10 120 -18 117 -7 -2 -13 -33 -15 -78 -2 -41 -7 -78 -12 -83 -7 -7 -10 1 -10
20 0 34 -14 61 -24 46 -3 -6 -11 -65 -16 -133 -10 -116 -20 -169 -20 -102 0
17 -6 33 -14 36 -8 3 -15 29 -19 67 -10 110 -36 89 -38 -30 0 -41 -3 -68 -6
-60 -2 8 -8 24 -13 35 -5 11 -11 148 -14 304 -3 156 -7 286 -10 289 -14 13
-18 -15 -25 -155 -5 -81 -9 -131 -9 -110 -1 20 -6 37 -10 37 -9 0 -22 -173
-22 -297 0 -55 -3 -73 -14 -73 -14 0 -26 60 -26 137 0 65 -17 43 -25 -31 -5
-48 -11 -63 -21 -59 -10 4 -14 -11 -16 -59 -2 -34 -7 63 -11 217 -5 154 -10
282 -13 284 -12 13 -16 -31 -22 -295 -4 -159 -8 -268 -10 -241 -2 26 -7 47
-11 47 -5 0 -12 32 -15 70 -4 39 -11 70 -17 70 -5 0 -9 -4 -9 -10 0 -5 -7 -10
-15 -10 -11 0 -15 -11 -15 -37 0 -22 -4 -33 -9 -27 -5 5 -14 98 -19 206 -6
109 -14 202 -17 208 -12 20 -25 -1 -25 -40 0 -31 -5 -43 -24 -56 -18 -11 -26
-27 -29 -57 -2 -23 -4 21 -5 98 -2 160 -12 275 -22 275 -8 0 -11 -47 -32 -420
-7 -124 -15 -210 -18 -191 -6 38 -26 52 -33 24 -3 -10 -5 70 -6 178 -1 195 -6
259 -21 259 -5 0 -10 -99 -12 -220 -2 -158 -6 -222 -15 -232 -7 -6 -13 -27
-13 -46 0 -18 -6 -40 -14 -47 -7 -8 -17 -51 -22 -97 l-8 -83 -8 170 c-15 309
-20 375 -28 375 -17 0 -30 -106 -32 -258 -1 -140 -2 -128 -9 103 -5 143 -11
280 -15 304 -12 90 -24 19 -36 -207 -6 -128 -15 -232 -20 -232 -4 0 -9 65 -10
145 -4 180 -21 199 -28 31 -5 -112 -6 -117 -22 -99 -13 14 -18 41 -20 108 -3
96 -21 124 -26 41 -3 -50 -18 -76 -39 -69 -18 6 -31 -26 -39 -97 -7 -55 -9
-60 -14 -32 -8 53 -25 37 -31 -30 l-6 -63 -1 76 c-2 62 -6 79 -22 94 -17 15
-20 31 -20 99 0 75 -11 119 -25 105 -3 -3 -11 -90 -17 -193 -11 -169 -21 -223
-30 -163 -2 12 -9 21 -15 20 -7 -2 -13 28 -18 85 -8 112 -8 113 -20 115 -5 1
-11 -24 -13 -55 -7 -125 -32 -35 -32 113 0 44 -4 79 -9 79 -10 0 -20 -140 -22
-304 -1 -67 -4 -109 -6 -93 -14 90 -33 -42 -33 -226 0 -55 -3 -97 -7 -93 -5 4
-10 163 -13 354 -4 264 -8 346 -17 350 -10 3 -13 -18 -13 -81 0 -46 -3 -133
-7 -193 l-7 -109 -12 104 c-7 57 -15 105 -18 108 -11 12 -26 -11 -26 -41 0
-17 -5 -37 -11 -43 -10 -10 -22 -140 -38 -413 l-7 -125 -7 75 c-4 41 -12 233
-18 425 -12 383 -22 495 -44 473 -3 -2 -8 -128 -12 -279 -7 -263 -8 -269 -16
-159 -4 63 -12 119 -17 124 -13 13 -30 -37 -30 -90 0 -30 -4 -43 -12 -42 -9 2
-15 -20 -19 -72 -5 -67 -6 -62 -7 48 -2 101 -5 122 -17 122 -10 0 -16 -12 -17
-37 -1 -21 -5 38 -8 131 -4 123 -8 171 -17 174 -10 3 -13 -27 -13 -130 0 -73
-3 -170 -7 -216 -5 -74 -8 -82 -24 -77 -17 6 -19 1 -19 -37 0 -31 -3 -39 -10
-28 -5 8 -10 34 -10 58 0 23 -4 42 -10 42 -5 0 -11 -6 -11 -12 -4 -39 -17 60
-18 135 0 48 -5 87 -9 87 -5 0 -13 -35 -19 -77 l-10 -78 -1 143 c-1 78 -6 142
-11 142 -15 0 -21 -57 -23 -214 -1 -83 -4 -118 -5 -78 -3 52 -7 72 -16 69 -7
-2 -15 -17 -18 -33 -4 -16 -7 51 -8 149 -1 138 -4 178 -13 175 -12 -4 -20
-119 -27 -351 0 -27 -5 -46 -10 -43 -4 3 -11 117 -16 253 -4 137 -9 250 -11
252 -14 14 -19 -37 -28 -270 -9 -245 -10 -259 -28 -253 -14 4 -18 0 -20 -23
-1 -30 -10 37 -30 230 -8 78 -16 117 -24 117 -18 0 -24 -34 -25 -150 l-2 -105
-10 123 c-5 67 -13 122 -17 122 -8 0 -19 -181 -22 -349 l-1 -106 -7 105 c-4
58 -8 219 -9 358 -1 228 -7 284 -25 236 -3 -9 -7 -133 -8 -277 -1 -272 -3
-269 -27 42 -11 142 -14 161 -28 148 -3 -4 -8 -162 -11 -352 -3 -190 -7 -344
-9 -341 -3 2 -8 61 -11 130 -4 70 -11 127 -17 129 -6 1 -14 -36 -20 -83 -7
-61 -10 -74 -12 -45 -6 94 -15 145 -24 140 -5 -4 -9 -30 -9 -58 0 -37 -3 -48
-10 -37 -5 8 -10 27 -10 43 0 15 -4 27 -10 27 -6 0 -10 85 -10 234 0 128 -3
254 -6 280 -12 86 -24 47 -25 -81 -1 -71 -4 -153 -9 -183 l-7 -55 -2 63 c0 34
-5 62 -10 62 -8 0 -15 -80 -27 -305 -7 -144 -11 -161 -29 -119 -7 18 -16 98
-20 188 -10 211 -27 205 -40 -15 -10 -162 -10 -163 -17 -83 -4 44 -12 94 -19
110 l-12 29 -8 -40 c-4 -22 -8 -85 -9 -140 -1 -55 -5 -120 -9 -145 -7 -39 -9
-33 -10 46 0 50 -5 115 -11 145 -5 30 -16 173 -25 319 -9 146 -18 282 -22 303
-12 76 -21 32 -25 -128 -3 -108 -9 -170 -16 -177 -8 -8 -12 -54 -12 -137 0
-92 -4 -129 -14 -140 -14 -16 -36 -197 -36 -302 0 -29 -5 -61 -10 -69 -7 -11
-10 0 -10 37 0 28 -4 54 -8 57 -5 3 -12 94 -15 201 -3 108 -8 200 -12 203 -14
14 -35 -33 -35 -77 0 -67 -9 -44 -25 59 -14 92 -19 109 -32 97 -3 -4 -13 -145
-22 -314 -9 -170 -17 -281 -18 -248 -4 92 -22 245 -32 264 -5 9 -14 120 -21
246 -6 127 -14 234 -17 239 -16 25 -22 -45 -24 -270 -2 -137 -5 -265 -9 -284
-5 -34 -6 -33 -13 20 -11 77 -18 100 -28 100 -5 0 -14 -10 -19 -22 -6 -15 -9
28 -9 130 -1 94 -5 152 -11 152 -5 0 -11 -8 -12 -17 -3 -39 -16 118 -17 210
-1 98 -13 128 -25 60 -3 -21 -7 -110 -8 -198 -1 -88 -3 -141 -5 -117 -6 66
-27 47 -31 -26 -2 -34 -7 -62 -12 -62 -6 0 -10 -12 -10 -27 0 -46 -12 -103
-21 -103 -5 0 -10 83 -11 185 -4 220 -20 252 -28 53 -5 -109 -6 -87 -8 120 -2
216 -4 252 -17 252 -13 0 -15 -30 -15 -207 -1 -167 -4 -212 -15 -227 -9 -12
-15 -42 -15 -72 0 -29 -5 -54 -11 -56 -6 -2 -13 -46 -16 -106 -6 -97 -13 -122
-27 -86 -3 9 -6 122 -6 252 0 244 -6 342 -21 342 -5 0 -10 -60 -11 -132 -1
-73 -3 -110 -5 -83 -8 135 -16 195 -24 189 -5 -3 -9 -27 -9 -55 0 -34 -4 -48
-12 -47 -10 2 -15 -28 -19 -112 -8 -140 -7 -133 -20 -124 -19 12 -29 -19 -29
-93 0 -39 -4 -74 -9 -77 -5 -3 -12 93 -15 222 -4 125 -11 235 -16 244 -6 10
-10 73 -10 141 0 189 -12 487 -20 487 -4 0 -10 -48 -13 -107z"/>
<path d="M460 8641 c-22 -43 -5 -111 28 -111 27 0 42 20 42 58 0 43 -16 72
-40 72 -11 0 -24 -9 -30 -19z m48 -3 c17 -17 15 -73 -4 -89 -31 -26 -57 38
-34 82 12 22 21 24 38 7z"/>
<path d="M620 8645 c-19 -22 -16 -83 4 -104 36 -35 83 38 55 87 -18 32 -41 39
-59 17z m45 -50 c0 -43 -3 -50 -20 -50 -16 0 -21 8 -23 39 -4 49 3 68 25 64
14 -3 18 -14 18 -53z"/>
<path d="M720 8645 c-19 -22 -16 -83 4 -104 36 -35 83 38 55 87 -18 32 -41 39
-59 17z m45 -50 c0 -43 -3 -50 -20 -50 -16 0 -21 8 -23 39 -4 49 3 68 25 64
14 -3 18 -14 18 -53z"/>
<path d="M822 8648 c-21 -21 -13 -32 8 -13 19 17 22 17 36 3 15 -14 13 -19
-20 -56 -20 -21 -36 -42 -36 -46 0 -3 19 -5 43 -4 36 1 38 2 10 5 -39 5 -42
15 -9 37 14 8 27 25 31 36 12 39 -34 67 -63 38z"/>
<path d="M950 8605 c0 -12 7 -15 25 -13 14 2 26 8 26 13 0 6 -12 11 -26 13
-18 2 -25 -1 -25 -13z"/>
<path d="M560 8540 c0 -5 5 -10 10 -10 6 0 10 5 10 10 0 6 -4 10 -10 10 -5 0
-10 -4 -10 -10z"/>
<path d="M160 8121 c0 -5 19 -17 43 -26 l42 -18 -42 -14 c-24 -8 -43 -19 -43
-24 0 -13 8 -12 68 11 55 21 72 20 72 -6 0 -8 5 -14 10 -14 6 0 10 9 10 20 0
11 -1 20 -2 20 -2 0 -36 14 -77 30 -82 34 -81 33 -81 21z"/>
<path d="M460 7991 c-22 -43 -5 -111 28 -111 27 0 42 20 42 58 0 43 -16 72
-40 72 -11 0 -24 -9 -30 -19z m48 -3 c17 -17 15 -73 -4 -89 -31 -26 -57 38
-34 82 12 22 21 24 38 7z"/>
<path d="M620 7995 c-19 -22 -16 -83 4 -104 36 -35 83 38 55 87 -18 32 -41 39
-59 17z m45 -50 c0 -43 -3 -50 -20 -50 -16 0 -21 8 -23 39 -4 49 3 68 25 64
14 -3 18 -14 18 -53z"/>
<path d="M720 7995 c-19 -22 -16 -83 4 -104 36 -35 83 38 55 87 -18 32 -41 39
-59 17z m45 -50 c0 -43 -3 -50 -20 -50 -16 0 -21 8 -23 39 -4 49 3 68 25 64
14 -3 18 -14 18 -53z"/>
<path d="M820 7991 c-22 -43 -5 -111 28 -111 27 0 42 20 42 58 0 43 -16 72
-40 72 -11 0 -24 -9 -30 -19z m48 -3 c17 -17 15 -73 -4 -89 -31 -26 -57 38
-34 82 12 22 21 24 38 7z"/>
<path d="M950 7950 c0 -5 14 -10 30 -10 17 0 30 5 30 10 0 6 -13 10 -30 10
-16 0 -30 -4 -30 -10z"/>
<path d="M560 7890 c0 -5 5 -10 10 -10 6 0 10 5 10 10 0 6 -4 10 -10 10 -5 0
-10 -4 -10 -10z"/>
<path d="M460 7331 c-22 -43 -5 -111 28 -111 27 0 42 20 42 58 0 43 -16 72
-40 72 -11 0 -24 -9 -30 -19z m48 -3 c17 -17 15 -73 -4 -89 -31 -26 -57 38
-34 82 12 22 21 24 38 7z"/>
<path d="M620 7335 c-19 -22 -16 -83 4 -104 36 -35 83 38 55 87 -18 32 -41 39
-59 17z m45 -50 c0 -43 -3 -50 -20 -50 -16 0 -21 8 -23 39 -4 49 3 68 25 64
14 -3 18 -14 18 -53z"/>
<path d="M720 7335 c-19 -22 -16 -83 4 -104 36 -35 83 38 55 87 -18 32 -41 39
-59 17z m45 -50 c0 -43 -3 -50 -20 -50 -16 0 -21 8 -23 39 -4 49 3 68 25 64
14 -3 18 -14 18 -53z"/>
<path d="M822 7338 c-21 -21 -13 -32 8 -13 19 17 22 17 36 3 15 -14 13 -19
-20 -56 -20 -21 -36 -42 -36 -46 0 -3 19 -5 43 -4 36 1 38 2 10 5 -39 5 -42
15 -9 37 14 8 27 25 31 36 12 39 -34 67 -63 38z"/>
<path d="M950 7290 c0 -5 11 -10 24 -10 14 0 28 5 31 10 4 6 -7 10 -24 10 -17
0 -31 -4 -31 -10z"/>
<path d="M398 7263 c6 -2 18 -2 25 0 6 3 1 5 -13 5 -14 0 -19 -2 -12 -5z"/>
<path d="M560 7230 c0 -5 5 -10 10 -10 6 0 10 5 10 10 0 6 -4 10 -10 10 -5 0
-10 -4 -10 -10z"/>
<path d="M1790 7030 c0 -16 5 -30 10 -30 6 0 10 14 10 30 0 17 -4 30 -10 30
-5 0 -10 -13 -10 -30z"/>
<path d="M3420 7030 c0 -16 5 -30 10 -30 6 0 10 14 10 30 0 17 -4 30 -10 30
-5 0 -10 -13 -10 -30z"/>
<path d="M5050 7030 c0 -16 5 -30 10 -30 6 0 10 14 10 30 0 17 -4 30 -10 30
-5 0 -10 -13 -10 -30z"/>
<path d="M6680 7030 c0 -16 5 -30 10 -30 6 0 10 14 10 30 0 17 -4 30 -10 30
-5 0 -10 -13 -10 -30z"/>
<path d="M8310 7030 c0 -16 5 -30 10 -30 6 0 10 14 10 30 0 17 -4 30 -10 30
-5 0 -10 -13 -10 -30z"/>
<path d="M9940 7030 c0 -16 5 -30 10 -30 6 0 10 14 10 30 0 17 -4 30 -10 30
-5 0 -10 -13 -10 -30z"/>
<path d="M11577 7053 c-11 -10 -8 -53 3 -53 6 0 10 14 10 30 0 31 -2 35 -13
23z"/>
<path d="M1635 6930 c-16 -18 -16 -20 -2 -15 13 6 17 -2 20 -47 3 -51 3 -50 5
15 1 37 0 67 -1 67 -2 0 -12 -9 -22 -20z"/>
<path d="M1711 6928 c-13 -33 5 -61 35 -55 19 3 24 0 24 -15 0 -24 -26 -34
-47 -17 -14 12 -16 12 -11 -1 14 -42 78 -5 78 45 0 54 -62 87 -79 43z m54 -18
c0 -29 -32 -41 -41 -16 -9 24 4 48 23 44 12 -2 18 -12 18 -28z"/>
<path d="M1820 6935 c-18 -21 -18 -78 -1 -99 32 -38 84 1 60 45 -8 15 -18 20
-35 16 -25 -4 -30 7 -14 33 8 13 13 13 31 2 18 -11 20 -11 17 0 -7 20 -43 21
-58 3z m45 -75 c0 -29 -32 -41 -41 -16 -9 24 4 48 23 44 12 -2 18 -12 18 -28z"/>
<path d="M1920 6931 c-22 -43 -5 -111 28 -111 27 0 42 20 42 58 0 43 -16 72
-40 72 -11 0 -24 -9 -30 -19z m48 -3 c17 -17 15 -73 -4 -89 -31 -26 -57 38
-34 82 12 22 21 24 38 7z"/>
<path d="M3265 6930 c-16 -18 -16 -20 -2 -15 13 6 17 -2 20 -47 3 -51 3 -50 5
15 1 37 0 67 -1 67 -2 0 -12 -9 -22 -20z"/>
<path d="M3341 6928 c-13 -33 5 -61 35 -55 19 3 24 0 24 -15 0 -24 -26 -34
-47 -17 -14 12 -16 12 -11 -1 14 -42 78 -5 78 45 0 54 -62 87 -79 43z m54 -18
c0 -16 -6 -26 -18 -28 -19 -4 -32 20 -23 44 9 25 41 13 41 -16z"/>
<path d="M3463 6943 c27 -4 35 -21 18 -38 -12 -13 -31 -85 -22 -85 3 0 13 20
20 45 7 24 19 49 27 56 24 20 15 29 -28 28 -30 -2 -35 -3 -15 -6z"/>
<path d="M3550 6931 c-22 -43 -5 -111 28 -111 27 0 42 20 42 58 0 43 -16 72
-40 72 -11 0 -24 -9 -30 -19z m48 -3 c17 -17 15 -73 -4 -89 -31 -26 -57 38
-34 82 12 22 21 24 38 7z"/>
<path d="M4895 6930 c-16 -18 -16 -20 -2 -15 13 6 17 -2 20 -47 3 -51 3 -50 5
15 1 37 0 67 -1 67 -2 0 -12 -9 -22 -20z"/>
<path d="M4971 6928 c-13 -33 5 -61 35 -55 19 3 24 0 24 -15 0 -24 -26 -34
-47 -17 -14 12 -16 12 -11 -1 14 -42 78 -5 78 45 0 54 -62 87 -79 43z m54 -18
c0 -16 -6 -26 -18 -28 -19 -4 -32 20 -23 44 9 25 41 13 41 -16z"/>
<path d="M5085 6939 c-4 -5 -4 -21 -1 -35 4 -14 2 -24 -4 -24 -15 0 -12 -36 5
-50 32 -27 80 13 58 49 -8 13 -9 21 -1 29 8 8 8 15 -2 27 -14 17 -46 20 -55 4z
m43 -22 c2 -12 -3 -17 -17 -17 -12 0 -21 6 -21 13 0 31 32 34 38 4z m8 -48 c3
-6 -1 -18 -9 -27 -13 -12 -19 -13 -31 -3 -8 7 -12 19 -9 27 6 17 39 19 49 3z"/>
<path d="M5180 6931 c-22 -43 -5 -111 28 -111 27 0 42 20 42 58 0 43 -16 72
-40 72 -11 0 -24 -9 -30 -19z m48 -3 c17 -17 15 -73 -4 -89 -31 -26 -57 38
-34 82 12 22 21 24 38 7z"/>
<path d="M6525 6930 c-16 -18 -16 -20 -2 -15 13 6 17 -2 20 -47 3 -51 3 -50 5
15 1 37 0 67 -1 67 -2 0 -12 -9 -22 -20z"/>
<path d="M6601 6928 c-13 -33 5 -61 35 -55 19 3 24 0 24 -15 0 -24 -26 -34
-47 -17 -14 12 -16 12 -11 -1 14 -42 78 -5 78 45 0 54 -62 87 -79 43z m54 -18
c0 -29 -32 -41 -41 -16 -9 24 4 48 23 44 12 -2 18 -12 18 -28z"/>
<path d="M6710 6935 c-7 -9 -10 -25 -6 -41 6 -22 11 -25 37 -22 22 4 29 1 27
-10 -4 -22 -39 -41 -45 -24 -3 6 -9 12 -15 12 -6 0 -6 -6 2 -15 31 -38 70 -6
70 57 0 53 -41 78 -70 43z m49 -9 c15 -18 3 -46 -19 -46 -22 0 -30 19 -18 43
11 21 22 22 37 3z"/>
<path d="M6810 6931 c-22 -43 -5 -111 28 -111 27 0 42 20 42 58 0 43 -16 72
-40 72 -11 0 -24 -9 -30 -19z m48 -3 c17 -17 15 -73 -4 -89 -31 -26 -57 38
-34 82 12 22 21 24 38 7z"/>
<path d="M8137 6943 c-4 -3 -7 -13 -7 -22 1 -14 2 -13 11 2 12 21 38 22 45 2
4 -9 -8 -31 -30 -55 -20 -22 -36 -42 -36 -45 0 -3 21 -4 48 -3 36 1 39 2 15 5
-18 2 -33 7 -33 10 0 3 14 21 30 40 25 28 28 38 20 53 -10 19 -49 27 -63 13z"/>
<path d="M8240 6935 c-19 -22 -16 -83 4 -104 36 -35 83 38 55 87 -18 32 -41
39 -59 17z m45 -50 c0 -43 -3 -50 -20 -50 -16 0 -21 8 -23 39 -4 49 3 68 25
64 14 -3 18 -14 18 -53z"/>
<path d="M8340 6931 c-22 -43 -5 -111 28 -111 27 0 42 20 42 58 0 43 -16 72
-40 72 -11 0 -24 -9 -30 -19z m48 -3 c17 -17 15 -73 -4 -89 -31 -26 -57 38
-34 82 12 22 21 24 38 7z"/>
<path d="M8440 6931 c-22 -43 -5 -111 28 -111 27 0 42 20 42 58 0 43 -16 72
-40 72 -11 0 -24 -9 -30 -19z m48 -3 c17 -17 15 -73 -4 -89 -31 -26 -57 38
-34 82 12 22 21 24 38 7z"/>
<path d="M9767 6943 c-4 -3 -7 -13 -7 -22 1 -14 2 -13 11 2 12 21 38 22 45 2
4 -9 -8 -31 -30 -55 -20 -22 -36 -42 -36 -45 0 -3 21 -4 48 -3 36 1 39 2 15 5
-18 2 -33 7 -33 10 0 3 14 21 30 40 25 28 28 38 20 53 -10 19 -49 27 -63 13z"/>
<path d="M9870 6935 c-19 -22 -16 -83 4 -104 36 -35 83 38 55 87 -18 32 -41
39 -59 17z m45 -50 c0 -43 -3 -50 -20 -50 -16 0 -21 8 -23 39 -4 49 3 68 25
64 14 -3 18 -14 18 -53z"/>
<path d="M9985 6928 c-17 -18 -18 -20 -2 -15 15 6 17 0 17 -43 0 -28 5 -50 10
-50 6 0 10 28 10 65 0 36 -3 65 -7 64 -5 0 -17 -10 -28 -21z"/>
<path d="M10070 6931 c-22 -43 -5 -111 28 -111 27 0 42 20 42 58 0 43 -16 72
-40 72 -11 0 -24 -9 -30 -19z m48 -3 c17 -17 15 -73 -4 -89 -31 -26 -57 38
-34 82 12 22 21 24 38 7z"/>
<path d="M11397 6943 c-4 -3 -7 -13 -7 -22 1 -14 2 -13 11 2 12 21 38 22 45 2
4 -9 -8 -31 -30 -55 -20 -22 -36 -42 -36 -45 0 -3 21 -4 48 -3 36 1 39 2 15 5
-18 2 -33 7 -33 10 0 3 14 21 30 40 25 28 28 38 20 53 -10 19 -49 27 -63 13z"/>
<path d="M11500 6935 c-19 -22 -16 -83 4 -104 36 -35 83 38 55 87 -18 32 -41
39 -59 17z m45 -50 c0 -43 -3 -50 -20 -50 -16 0 -21 8 -23 39 -4 49 3 68 25
64 14 -3 18 -14 18 -53z"/>
<path d="M11602 6938 c-21 -21 -13 -32 8 -13 19 17 22 17 36 3 15 -14 13 -19
-20 -56 -20 -21 -36 -42 -36 -46 0 -3 19 -5 43 -4 36 1 38 2 10 5 -39 5 -42
15 -9 37 14 8 27 25 31 36 12 39 -34 67 -63 38z"/>
<path d="M11700 6931 c-22 -43 -5 -111 28 -111 27 0 42 20 42 58 0 43 -16 72
-40 72 -11 0 -24 -9 -30 -19z m48 -3 c17 -17 15 -73 -4 -89 -31 -26 -57 38
-34 82 12 22 21 24 38 7z"/>
<path d="M6200 6710 c0 -5 11 -10 25 -10 24 0 25 -2 25 -70 0 -40 4 -70 10
-70 6 0 10 30 10 70 0 68 1 70 24 70 14 0 28 5 31 10 4 6 -18 10 -59 10 -37 0
-66 -4 -66 -10z"/>
<path d="M6350 6709 c0 -5 5 -7 10 -4 6 3 10 8 10 11 0 2 -4 4 -10 4 -5 0 -10
-5 -10 -11z"/>
<path d="M6350 6621 c0 -34 4 -61 10 -61 6 0 10 24 10 54 0 30 -4 58 -10 61
-6 4 -10 -17 -10 -54z"/>
<path d="M6400 6618 c0 -32 4 -58 10 -58 6 0 10 20 10 45 0 33 5 47 16 52 21
8 34 -14 34 -59 0 -21 5 -38 10 -38 6 0 10 23 10 50 0 42 3 50 19 50 22 0 31
-19 31 -66 0 -19 5 -34 10 -34 13 0 13 76 0 101 -11 20 -45 26 -55 9 -5 -8
-11 -8 -19 -1 -7 6 -27 9 -44 8 -32 -2 -32 -2 -32 -59z"/>
<path d="M6596 6664 c-34 -33 -10 -104 34 -104 29 0 50 11 50 26 0 18 -8 18
-26 -1 -12 -11 -20 -12 -35 -5 -31 17 -22 30 20 30 48 0 58 13 37 45 -19 29
-57 33 -80 9z m64 -19 c0 -10 -10 -15 -30 -15 -29 0 -38 9 -23 23 13 13 53 7
53 -8z"/>
<path d="M11632 6208 c-28 -28 -7 -78 33 -78 27 0 45 18 45 45 0 27 -18 45
-45 45 -12 0 -26 -5 -33 -12z"/>
<path d="M11408 6199 c-21 -12 -24 -59 -6 -77 7 -7 21 -12 33 -12 43 0 61 53
29 84 -18 18 -32 20 -56 5z"/>
<path d="M2820 5970 c0 -196 -1 -210 -19 -220 -23 -12 -161 -174 -204 -241
l-32 -49 -62 0 -63 0 -1 -97 -1 -98 -52 -85 c-51 -83 -53 -85 -94 -88 l-42 -3
0 -65 c0 -64 -2 -67 -74 -182 -41 -64 -84 -127 -95 -139 -12 -12 -21 -25 -21
-29 0 -12 -103 -144 -184 -236 l-77 -88 -59 0 c-33 0 -60 -4 -60 -10 0 -6 -38
-10 -95 -10 l-94 0 -3 -101 -3 -102 -74 -29 c-121 -48 -256 -79 -373 -85 -97
-5 -108 -8 -108 -24 0 -18 57 -19 1980 -19 1973 0 1980 0 1980 20 0 19 -7 20
-90 20 l-90 0 0 30 0 29 43 -15 c136 -49 342 -79 614 -90 206 -8 283 -1 283
27 0 18 -9 19 -189 19 -132 0 -190 -3 -193 -11 -8 -25 -335 21 -480 67 -78 25
-78 25 -78 59 l0 35 -73 0 c-72 0 -75 1 -146 50 -125 86 -160 121 -161 158 0
29 -3 32 -32 32 -28 1 -42 11 -95 73 l-62 72 -1 153 0 152 -95 0 -95 0 0 50 0
50 -42 0 -43 0 -95 157 c-132 218 -277 436 -338 510 l-52 62 0 91 0 90 -95 0
-95 0 0 110 0 110 -95 0 -95 0 0 50 0 50 -90 0 -90 0 0 -210z m0 -450 l0 -210
-95 0 -95 0 0 74 c0 66 -2 75 -19 78 -17 3 -12 14 40 83 50 67 156 185 166
185 2 0 3 -94 3 -210z m654 5 c24 -33 51 -72 61 -87 l17 -28 -86 0 -86 0 0
118 1 117 25 -30 c14 -16 45 -57 68 -90z m269 -417 l97 -158 -135 0 -135 0 0
218 0 217 39 -60 c21 -33 81 -131 134 -217z m-1306 -15 c-3 -2 -21 -3 -41 -1
l-36 3 38 63 37 63 3 -61 c2 -34 1 -64 -1 -67z m-187 -293 l0 -110 -71 0 c-39
0 -69 4 -67 8 5 12 133 212 136 212 1 0 2 -49 2 -110z m-190 -280 l0 -100 -80
0 c-44 0 -80 4 -80 8 0 5 9 17 20 27 12 11 46 52 77 92 31 40 57 73 59 73 2 0
4 -45 4 -100z m2159 -102 c12 -17 10 -18 -33 -18 l-46 0 0 55 0 55 33 -37 c18
-21 39 -46 46 -55z m-2349 -48 c0 -14 -7 -20 -22 -20 -20 0 -21 1 -3 20 10 11
20 20 22 20 1 0 3 -9 3 -20z m2530 -121 c25 -20 63 -49 84 -63 l39 -26 -97 0
-96 0 0 71 c0 78 -2 78 70 18z m-2910 -194 l0 -45 -137 1 -138 0 85 25 c46 14
102 33 125 44 60 28 65 26 65 -25z"/>
<path d="M11280 6130 c-6 -11 -21 -20 -35 -20 -24 0 -55 -23 -55 -41 0 -47 68
-68 92 -29 7 11 23 20 35 20 22 0 53 24 53 41 0 47 -69 69 -90 29z"/>
<path d="M6460 6111 c-22 -43 -5 -111 28 -111 27 0 42 20 42 58 0 43 -16 72
-40 72 -11 0 -24 -9 -30 -19z m48 -3 c17 -17 15 -73 -4 -89 -31 -26 -57 38
-34 82 12 22 21 24 38 7z"/>
<path d="M6620 6115 c-19 -22 -16 -83 4 -104 36 -35 83 38 55 87 -18 32 -41
39 -59 17z m45 -50 c0 -43 -3 -50 -20 -50 -16 0 -21 8 -23 39 -4 49 3 68 25
64 14 -3 18 -14 18 -53z"/>
<path d="M6720 6115 c-19 -22 -16 -83 4 -104 36 -35 83 38 55 87 -18 32 -41
39 -59 17z m45 -50 c0 -43 -3 -50 -20 -50 -16 0 -21 8 -23 39 -4 49 3 68 25
64 14 -3 18 -14 18 -53z"/>
<path d="M6820 6115 c-14 -17 0 -21 17 -4 6 6 16 8 22 5 17 -11 13 -33 -6 -41
-16 -6 -15 -8 5 -16 26 -10 28 -22 7 -39 -12 -10 -19 -10 -27 -2 -18 18 -32
14 -18 -3 27 -33 82 2 65 41 -4 11 -8 30 -9 44 -1 30 -36 39 -56 15z"/>
<path d="M6950 6070 c0 -5 11 -10 24 -10 14 0 28 5 31 10 4 6 -7 10 -24 10
-17 0 -31 -4 -31 -10z"/>
<path d="M6560 6010 c0 -5 5 -10 10 -10 6 0 10 5 10 10 0 6 -4 10 -10 10 -5 0
-10 -4 -10 -10z"/>
<path d="M11446 5864 c-115 -52 -210 -94 -212 -94 -2 0 -4 8 -4 18 0 22 -30
52 -52 52 -9 0 -21 -7 -28 -15 -7 -8 -17 -15 -22 -15 -5 0 -21 -8 -34 -19 -13
-10 -45 -22 -70 -26 -26 -4 -54 -10 -63 -15 -9 -5 -30 -14 -47 -20 -18 -6 -41
-20 -53 -31 -11 -11 -41 -23 -66 -28 -49 -9 -75 -26 -75 -47 0 -8 -6 -14 -13
-14 -8 0 -34 -11 -58 -25 -24 -14 -60 -32 -79 -40 -19 -9 -42 -20 -51 -25 -9
-4 -36 -14 -60 -20 -100 -27 -359 -145 -407 -185 -34 -28 -83 -58 -142 -86
-25 -12 -81 -39 -125 -59 -44 -21 -109 -50 -145 -65 -36 -15 -69 -31 -75 -35
-11 -9 -190 -80 -201 -80 -4 0 -34 -13 -68 -29 -33 -16 -82 -37 -108 -46 -26
-10 -84 -39 -130 -66 -46 -27 -132 -69 -193 -94 -117 -48 -275 -126 -340 -167
-22 -14 -58 -34 -80 -45 -22 -10 -76 -40 -121 -66 -44 -26 -100 -53 -124 -62
-24 -8 -48 -19 -54 -24 -6 -5 -40 -21 -76 -36 -36 -14 -83 -35 -105 -45 -22
-10 -71 -22 -110 -26 -52 -5 -77 -13 -98 -30 -16 -13 -37 -24 -48 -24 -12 0
-27 -13 -37 -30 -10 -17 -34 -36 -57 -45 -22 -9 -61 -28 -86 -41 -26 -13 -58
-24 -72 -24 -13 0 -30 -7 -38 -16 -10 -12 -131 -74 -144 -74 -2 0 -1 8 2 19 6
23 -22 51 -51 51 -52 0 -63 -57 -17 -89 l29 -21 82 36 c75 33 83 34 99 20 10
-9 27 -16 39 -16 26 0 55 40 46 64 -9 23 18 20 34 -4 15 -24 45 -26 67 -3 10
9 31 17 49 17 26 1 33 6 42 36 7 19 13 33 15 31 8 -7 79 18 95 33 10 11 34 16
74 16 38 0 75 8 107 21 26 12 74 30 107 40 32 10 75 29 95 43 20 13 56 30 81
36 25 7 54 20 65 31 12 10 41 29 65 42 107 56 186 100 200 111 8 7 31 19 50
26 19 7 42 19 50 25 19 15 65 36 165 75 87 35 231 104 255 124 19 16 125 66
139 66 6 0 39 13 73 30 35 16 95 41 133 55 39 15 122 50 185 80 63 29 126 56
140 60 14 4 41 18 60 30 20 12 49 25 65 29 28 6 81 38 216 127 75 49 312 151
477 204 24 8 57 26 74 40 16 14 42 28 56 31 15 4 34 12 42 19 8 7 78 41 155
75 77 34 165 74 195 87 30 14 161 72 290 130 129 58 239 108 243 113 30 28
-34 6 -217 -76z"/>
<path d="M418 5823 c17 -2 32 -5 32 -7 0 -1 -9 -21 -20 -44 -11 -22 -20 -49
-19 -59 0 -14 3 -12 11 7 6 14 19 42 30 63 10 21 18 40 18 42 0 3 -19 4 -42 3
-37 -1 -39 -2 -10 -5z"/>
<path d="M506 5808 c-10 -38 -7 -44 22 -43 21 0 28 -5 30 -23 4 -27 -22 -40
-45 -21 -14 12 -16 12 -11 -1 8 -24 55 -25 68 0 17 32 4 60 -30 60 -23 0 -27
4 -23 19 3 12 16 22 32 24 24 4 23 4 -5 6 -25 1 -33 -4 -38 -21z"/>
<path d="M635 5770 c-4 -6 7 -10 24 -10 17 0 31 5 31 10 0 6 -11 10 -24 10
-14 0 -28 -4 -31 -10z"/>
<path d="M6460 5731 c-22 -43 -5 -111 28 -111 27 0 42 20 42 58 0 43 -16 72
-40 72 -11 0 -24 -9 -30 -19z m48 -3 c17 -17 15 -73 -4 -89 -31 -26 -57 38
-34 82 12 22 21 24 38 7z"/>
<path d="M6620 5735 c-19 -22 -16 -83 4 -104 36 -35 83 38 55 87 -18 32 -41
39 -59 17z m45 -50 c0 -43 -3 -50 -20 -50 -16 0 -21 8 -23 39 -4 49 3 68 25
64 14 -3 18 -14 18 -53z"/>
<path d="M6720 5735 c-19 -22 -16 -83 4 -104 36 -35 83 38 55 87 -18 32 -41
39 -59 17z m45 -50 c0 -43 -3 -50 -20 -50 -16 0 -21 8 -23 39 -4 49 3 68 25
64 14 -3 18 -14 18 -53z"/>
<path d="M6822 5738 c-21 -21 -13 -32 8 -13 19 17 22 17 36 3 15 -14 13 -19
-20 -56 -20 -21 -36 -42 -36 -46 0 -3 19 -5 43 -4 36 1 38 2 10 5 -39 5 -42
15 -9 37 14 8 27 25 31 36 12 39 -34 67 -63 38z"/>
<path d="M6950 5700 c0 -5 14 -10 31 -10 17 0 28 4 24 10 -3 6 -17 10 -31 10
-13 0 -24 -4 -24 -10z"/>
<path d="M6560 5630 c0 -5 5 -10 10 -10 6 0 10 5 10 10 0 6 -4 10 -10 10 -5 0
-10 -4 -10 -10z"/>
<path d="M160 5364 c-12 -31 4 -67 28 -62 9 2 23 18 31 36 8 17 21 32 28 32
15 0 18 -36 3 -45 -13 -8 -13 -25 0 -25 19 0 33 41 21 66 -16 37 -49 31 -67
-12 -12 -28 -18 -34 -27 -25 -9 9 -9 16 1 31 15 24 15 30 2 30 -6 0 -15 -12
-20 -26z"/>
<path d="M6460 5361 c-22 -43 -5 -111 28 -111 27 0 42 20 42 58 0 43 -16 72
-40 72 -11 0 -24 -9 -30 -19z m48 -3 c17 -17 15 -73 -4 -89 -31 -26 -57 38
-34 82 12 22 21 24 38 7z"/>
<path d="M6620 5365 c-19 -22 -16 -83 4 -104 36 -35 83 38 55 87 -18 32 -41
39 -59 17z m45 -50 c0 -43 -3 -50 -20 -50 -16 0 -21 8 -23 39 -4 49 3 68 25
64 14 -3 18 -14 18 -53z"/>
<path d="M6720 5365 c-19 -22 -16 -83 4 -104 36 -35 83 38 55 87 -18 32 -41
39 -59 17z m45 -50 c0 -43 -3 -50 -20 -50 -16 0 -21 8 -23 39 -4 49 3 68 25
64 14 -3 18 -14 18 -53z"/>
<path d="M6835 5358 c-17 -18 -18 -20 -2 -15 15 6 17 0 17 -43 0 -28 5 -50 10
-50 6 0 10 28 10 65 0 36 -3 65 -7 64 -5 0 -17 -10 -28 -21z"/>
<path d="M6950 5320 c0 -5 14 -10 30 -10 17 0 30 5 30 10 0 6 -13 10 -30 10
-16 0 -30 -4 -30 -10z"/>
<path d="M161 5283 c-1 -7 -10 -13 -21 -13 -11 0 -20 -4 -20 -10 0 -5 9 -10
19 -10 11 0 22 -6 24 -12 4 -10 6 -10 6 0 1 8 18 12 50 12 36 0 51 4 55 16 4
9 3 20 0 23 -4 3 -9 0 -11 -6 -3 -8 -22 -13 -48 -13 -25 0 -45 5 -48 13 -4 10
-6 10 -6 0z"/>
<path d="M6560 5260 c0 -5 5 -10 10 -10 6 0 10 5 10 10 0 6 -4 10 -10 10 -5 0
-10 -4 -10 -10z"/>
<path d="M400 5211 c0 -11 -3 -26 -6 -35 -5 -13 -1 -15 24 -10 21 4 31 2 35
-10 13 -33 -21 -64 -38 -36 -3 6 -11 10 -17 10 -7 0 -6 -6 2 -15 26 -31 70
-11 70 32 0 24 -26 43 -48 35 -9 -3 -13 2 -10 14 2 11 15 21 33 25 29 6 29 7
-7 8 -31 1 -38 -2 -38 -18z"/>
<path d="M510 5215 c-19 -22 -16 -83 4 -104 36 -35 83 38 55 87 -18 32 -41 39
-59 17z m45 -50 c0 -43 -3 -50 -20 -50 -16 0 -21 8 -23 39 -4 49 3 68 25 64
14 -3 18 -14 18 -53z"/>
<path d="M160 5190 c-7 -14 -7 -26 -1 -39 6 -10 7 -21 4 -25 -3 -3 19 -6 50
-6 69 0 76 18 10 22 -40 3 -48 6 -48 23 0 17 8 21 45 23 68 5 74 22 7 22 -46
0 -58 -4 -67 -20z"/>
<path d="M635 5170 c-4 -6 7 -10 24 -10 17 0 31 5 31 10 0 6 -11 10 -24 10
-14 0 -28 -4 -31 -10z"/>
<path d="M6160 5111 c0 -5 19 -17 43 -26 l42 -18 -42 -14 c-24 -8 -43 -19 -43
-24 0 -13 8 -12 68 11 55 21 72 20 72 -6 0 -8 5 -14 10 -14 6 0 10 9 10 20 0
11 -1 20 -2 20 -2 0 -36 14 -77 30 -82 34 -81 33 -81 21z"/>
<path d="M160 5071 c0 -6 21 -11 48 -13 39 -2 48 -7 50 -24 3 -23 -19 -34 -70
-34 -16 0 -28 -4 -28 -10 0 -11 33 -13 78 -4 33 7 52 38 34 56 -6 6 -8 17 -5
24 4 11 -7 14 -51 14 -31 0 -56 -4 -56 -9z"/>
<path d="M6460 4981 c-22 -43 -5 -111 28 -111 27 0 42 20 42 58 0 43 -16 72
-40 72 -11 0 -24 -9 -30 -19z m48 -3 c17 -17 15 -73 -4 -89 -31 -26 -57 38
-34 82 12 22 21 24 38 7z"/>
<path d="M6620 4985 c-19 -22 -16 -83 4 -104 36 -35 83 38 55 87 -18 32 -41
39 -59 17z m45 -50 c0 -43 -3 -50 -20 -50 -16 0 -21 8 -23 39 -4 49 3 68 25
64 14 -3 18 -14 18 -53z"/>
<path d="M6720 4985 c-19 -22 -16 -83 4 -104 36 -35 83 38 55 87 -18 32 -41
39 -59 17z m45 -50 c0 -43 -3 -50 -20 -50 -16 0 -21 8 -23 39 -4 49 3 68 25
64 14 -3 18 -14 18 -53z"/>
<path d="M6820 4981 c-22 -43 -5 -111 28 -111 27 0 42 20 42 58 0 43 -16 72
-40 72 -11 0 -24 -9 -30 -19z m48 -3 c17 -17 15 -73 -4 -89 -31 -26 -57 38
-34 82 12 22 21 24 38 7z"/>
<path d="M182 4953 c-25 -10 -34 -53 -17 -79 36 -55 129 -13 106 48 -13 34
-50 47 -89 31z m69 -29 c18 -22 -1 -49 -36 -49 -35 0 -54 27 -36 49 8 9 24 16
36 16 12 0 28 -7 36 -16z"/>
<path d="M6950 4940 c0 -5 11 -10 24 -10 14 0 28 5 31 10 4 6 -7 10 -24 10
-17 0 -31 -4 -31 -10z"/>
<path d="M6560 4880 c0 -5 5 -10 10 -10 6 0 10 5 10 10 0 6 -4 10 -10 10 -5 0
-10 -4 -10 -10z"/>
<path d="M171 4831 c-20 -12 -17 -62 5 -78 10 -7 30 -13 46 -13 50 0 76 77 31
94 -23 9 -31 -4 -10 -15 21 -12 22 -45 1 -53 -47 -18 -87 10 -65 46 14 23 11
31 -8 19z"/>
<path d="M402 4618 c-21 -21 -13 -32 8 -13 19 17 22 17 36 3 15 -14 13 -19
-20 -56 -20 -21 -36 -42 -36 -46 0 -3 19 -5 43 -4 36 1 38 2 10 5 -39 5 -42
15 -9 37 14 8 27 25 31 36 12 39 -34 67 -63 38z"/>
<path d="M506 4608 c-10 -38 -7 -44 22 -43 21 0 28 -5 30 -23 4 -27 -22 -40
-45 -21 -14 12 -16 12 -11 -1 8 -24 55 -25 68 0 17 32 4 60 -30 60 -23 0 -27
4 -23 19 3 12 16 22 32 24 24 4 23 4 -5 6 -25 1 -33 -4 -38 -21z"/>
<path d="M6460 4611 c-22 -43 -5 -111 28 -111 27 0 42 20 42 58 0 43 -16 72
-40 72 -11 0 -24 -9 -30 -19z m48 -3 c17 -17 15 -73 -4 -89 -31 -26 -57 38
-34 82 12 22 21 24 38 7z"/>
<path d="M6620 4615 c-19 -22 -16 -83 4 -104 36 -35 83 38 55 87 -18 32 -41
39 -59 17z m45 -50 c0 -43 -3 -50 -20 -50 -16 0 -21 8 -23 39 -4 49 3 68 25
64 14 -3 18 -14 18 -53z"/>
<path d="M6720 4615 c-19 -22 -16 -83 4 -104 36 -35 83 38 55 87 -18 32 -41
39 -59 17z m45 -50 c0 -43 -3 -50 -20 -50 -16 0 -21 8 -23 39 -4 49 3 68 25
64 14 -3 18 -14 18 -53z"/>
<path d="M6835 4608 c-17 -18 -18 -20 -2 -15 15 6 17 0 17 -43 0 -28 5 -50 10
-50 6 0 10 28 10 65 0 36 -3 65 -7 64 -5 0 -17 -10 -28 -21z"/>
<path d="M635 4570 c-4 -6 7 -10 24 -10 17 0 31 5 31 10 0 6 -11 10 -24 10
-14 0 -28 -4 -31 -10z"/>
<path d="M6950 4570 c0 -5 14 -10 31 -10 17 0 28 4 24 10 -3 6 -17 10 -31 10
-13 0 -24 -4 -24 -10z"/>
<path d="M6398 4543 c6 -2 18 -2 25 0 6 3 1 5 -13 5 -14 0 -19 -2 -12 -5z"/>
<path d="M6560 4510 c0 -5 5 -10 10 -10 6 0 10 5 10 10 0 6 -4 10 -10 10 -5 0
-10 -4 -10 -10z"/>
<path d="M6460 4231 c-22 -43 -5 -111 28 -111 27 0 42 20 42 58 0 43 -16 72
-40 72 -11 0 -24 -9 -30 -19z m48 -3 c17 -17 15 -73 -4 -89 -31 -26 -57 38
-34 82 12 22 21 24 38 7z"/>
<path d="M6620 4235 c-19 -22 -16 -83 4 -104 36 -35 83 38 55 87 -18 32 -41
39 -59 17z m45 -50 c0 -43 -3 -50 -20 -50 -16 0 -21 8 -23 39 -4 49 3 68 25
64 14 -3 18 -14 18 -53z"/>
<path d="M6720 4235 c-19 -22 -16 -83 4 -104 36 -35 83 38 55 87 -18 32 -41
39 -59 17z m45 -50 c0 -43 -3 -50 -20 -50 -16 0 -21 8 -23 39 -4 49 3 68 25
64 14 -3 18 -14 18 -53z"/>
<path d="M6822 4238 c-21 -21 -13 -32 8 -13 19 17 22 17 36 3 15 -14 13 -19
-20 -56 -20 -21 -36 -42 -36 -46 0 -3 19 -5 43 -4 36 1 38 2 10 5 -39 5 -42
15 -9 37 14 8 27 25 31 36 12 39 -34 67 -63 38z"/>
<path d="M6950 4190 c0 -5 14 -10 30 -10 17 0 30 5 30 10 0 6 -13 10 -30 10
-16 0 -30 -4 -30 -10z"/>
<path d="M6398 4163 c6 -2 18 -2 25 0 6 3 1 5 -13 5 -14 0 -19 -2 -12 -5z"/>
<path d="M6560 4130 c0 -5 5 -10 10 -10 6 0 10 5 10 10 0 6 -4 10 -10 10 -5 0
-10 -4 -10 -10z"/>
<path d="M510 4015 c-19 -22 -16 -83 4 -104 36 -35 83 38 55 87 -18 32 -41 39
-59 17z m45 -50 c0 -43 -3 -50 -20 -50 -16 0 -21 8 -23 39 -4 49 3 68 25 64
14 -3 18 -14 18 -53z"/>
<path d="M635 3970 c-4 -6 7 -10 24 -10 17 0 31 5 31 10 0 6 -11 10 -24 10
-14 0 -28 -4 -31 -10z"/>
<path d="M1410 3830 c0 -16 5 -30 10 -30 6 0 10 14 10 30 0 17 -4 30 -10 30
-5 0 -10 -13 -10 -30z"/>
<path d="M2997 3853 c-11 -10 -8 -53 3 -53 6 0 10 14 10 30 0 31 -2 35 -13 23z"/>
<path d="M4580 3830 c0 -16 5 -30 10 -30 6 0 10 14 10 30 0 17 -4 30 -10 30
-5 0 -10 -13 -10 -30z"/>
<path d="M8050 3830 c0 -16 5 -30 10 -30 6 0 10 14 10 30 0 17 -4 30 -10 30
-5 0 -10 -13 -10 -30z"/>
<path d="M9440 3831 c0 -17 5 -31 10 -31 6 0 10 11 10 24 0 14 -4 28 -10 31
-6 4 -10 -7 -10 -24z"/>
<path d="M10827 3853 c-11 -10 -8 -53 3 -53 6 0 10 14 10 30 0 31 -2 35 -13
23z"/>
<path d="M1240 3735 c-19 -22 -16 -83 4 -104 36 -35 83 38 55 87 -18 32 -41
39 -59 17z m45 -50 c0 -43 -3 -50 -20 -50 -16 0 -21 8 -23 39 -4 49 3 68 25
64 14 -3 18 -14 18 -53z"/>
<path d="M1390 3731 c-22 -43 -5 -111 28 -111 27 0 42 20 42 58 0 43 -16 72
-40 72 -11 0 -24 -9 -30 -19z m48 -3 c17 -17 15 -73 -4 -89 -31 -26 -57 38
-34 82 12 22 21 24 38 7z"/>
<path d="M1490 3731 c-22 -43 -5 -111 28 -111 27 0 42 20 42 58 0 43 -16 72
-40 72 -11 0 -24 -9 -30 -19z m48 -3 c17 -17 15 -73 -4 -89 -31 -26 -57 38
-34 82 12 22 21 24 38 7z"/>
<path d="M1597 3743 c-4 -3 -7 -13 -7 -22 1 -14 2 -13 11 2 12 21 38 22 45 2
4 -9 -8 -31 -30 -55 -20 -22 -36 -42 -36 -45 0 -3 21 -4 48 -3 36 1 39 2 15 5
-18 2 -33 7 -33 10 0 3 14 21 30 40 25 28 28 38 20 53 -10 19 -49 27 -63 13z"/>
<path d="M2800 3735 c-19 -22 -16 -83 4 -104 36 -35 83 38 55 87 -18 32 -41
39 -59 17z m45 -50 c0 -43 -3 -50 -20 -50 -16 0 -21 8 -23 39 -4 49 3 68 25
64 14 -3 18 -14 18 -53z"/>
<path d="M2950 3735 c-19 -22 -16 -83 4 -104 36 -35 83 38 55 87 -18 32 -41
39 -59 17z m45 -50 c0 -43 -3 -50 -20 -50 -16 0 -21 8 -23 39 -4 49 3 68 25
64 14 -3 18 -14 18 -53z"/>
<path d="M3050 3731 c-22 -43 -5 -111 28 -111 27 0 42 20 42 58 0 43 -16 72
-40 72 -11 0 -24 -9 -30 -19z m48 -3 c17 -17 15 -73 -4 -89 -31 -26 -57 38
-34 82 12 22 21 24 38 7z"/>
<path d="M3150 3731 c-22 -43 -5 -111 28 -111 27 0 42 20 42 58 0 43 -16 72
-40 72 -11 0 -24 -9 -30 -19z m48 -3 c17 -17 15 -73 -4 -89 -31 -26 -57 38
-34 82 12 22 21 24 38 7z"/>
<path d="M4380 3731 c-22 -43 -5 -111 28 -111 27 0 42 20 42 58 0 43 -16 72
-40 72 -11 0 -24 -9 -30 -19z m48 -3 c17 -17 15 -73 -4 -89 -31 -26 -57 38
-34 82 12 22 21 24 38 7z"/>
<path d="M4530 3731 c-22 -43 -5 -111 28 -111 27 0 42 20 42 58 0 43 -16 72
-40 72 -11 0 -24 -9 -30 -19z m48 -3 c17 -17 15 -73 -4 -89 -31 -26 -57 38
-34 82 12 22 21 24 38 7z"/>
<path d="M4640 3735 c-19 -22 -16 -83 4 -104 36 -35 83 38 55 87 -18 32 -41
39 -59 17z m45 -50 c0 -43 -3 -50 -20 -50 -16 0 -21 8 -23 39 -4 49 3 68 25
64 14 -3 18 -14 18 -53z"/>
<path d="M4737 3743 c-4 -3 -7 -13 -7 -22 1 -14 2 -13 11 2 12 21 38 22 45 2
4 -9 -8 -31 -30 -55 -20 -22 -36 -42 -36 -45 0 -3 21 -4 48 -3 36 1 39 2 15 5
-18 2 -33 7 -33 10 0 3 14 21 30 40 25 28 28 38 20 53 -10 19 -49 27 -63 13z"/>
<path d="M8057 3743 c-4 -3 -7 -13 -7 -22 1 -14 2 -13 11 2 12 21 38 22 45 2
4 -9 -8 -31 -30 -55 -20 -22 -36 -42 -36 -45 0 -3 21 -4 48 -3 36 1 39 2 15 5
-18 2 -33 7 -33 10 0 3 14 21 30 40 25 28 28 38 20 53 -10 19 -49 27 -63 13z"/>
<path d="M9410 3731 c-22 -43 -5 -111 28 -111 27 0 42 20 42 58 0 43 -16 72
-40 72 -11 0 -24 -9 -30 -19z m48 -3 c17 -17 15 -73 -4 -89 -31 -26 -57 38
-34 82 12 22 21 24 38 7z"/>
<path d="M10802 3738 c-21 -21 -13 -32 8 -13 19 17 22 17 36 3 15 -14 13 -19
-20 -56 -20 -21 -36 -42 -36 -46 0 -3 19 -5 43 -4 36 1 38 2 10 5 -39 5 -42
15 -9 37 14 8 27 25 31 36 12 39 -34 67 -63 38z"/>
<path d="M1173 3663 c9 -2 23 -2 30 0 6 3 -1 5 -18 5 -16 0 -22 -2 -12 -5z"/>
<path d="M7993 3663 c9 -2 23 -2 30 0 6 3 -1 5 -18 5 -16 0 -22 -2 -12 -5z"/>
<path d="M2890 3630 c0 -5 5 -10 10 -10 6 0 10 5 10 10 0 6 -4 10 -10 10 -5 0
-10 -4 -10 -10z"/>
<path d="M3240 3470 c0 -5 9 -32 20 -59 21 -54 18 -81 -8 -81 -13 0 -13 -3 -4
-12 18 -18 36 5 66 86 30 78 29 76 17 76 -5 0 -15 -17 -21 -37 -18 -57 -26
-59 -40 -9 -11 41 -30 63 -30 36z"/>
<path d="M9410 3450 l21 -30 -20 -27 c-12 -14 -19 -29 -15 -32 3 -3 15 5 26
19 l20 24 18 -24 c25 -33 37 -19 14 15 -16 25 -16 28 0 56 20 33 5 40 -18 8
l-14 -21 -14 21 c-7 11 -19 21 -26 21 -9 0 -7 -9 8 -30z"/>
<path d="M6910 2975 c0 -11 11 -15 40 -15 29 0 40 4 40 15 0 11 -11 15 -40 15
-29 0 -40 -4 -40 -15z"/>
<path d="M7087 2983 c-13 -12 -7 -23 13 -23 20 0 20 -7 20 -460 l0 -460 -107
-1 c-60 -1 -120 0 -135 1 -16 1 -28 -3 -28 -9 0 -7 73 -12 218 -13 l217 -3 3
-112 c4 -150 22 -148 22 2 l0 115 70 0 71 0 -1 -472 c-1 -822 -2 -778 15 -778
13 0 15 23 15 150 l0 150 25 0 c14 0 25 5 25 10 0 6 -11 10 -25 10 l-25 0 0
465 0 465 70 0 70 0 0 -425 c0 -378 2 -425 16 -425 13 0 15 16 14 103 -1 56
-1 247 -1 425 l1 323 153 -3 152 -3 3 -277 c1 -174 6 -278 12 -278 6 0 10 103
10 280 l0 281 73 -3 72 -3 3 -302 c1 -191 6 -303 12 -303 6 0 10 111 10 305
l0 305 70 0 69 0 3 -147 c2 -90 7 -148 13 -148 6 0 11 58 13 148 l3 147 154 0
155 0 0 -360 c0 -230 4 -360 10 -360 6 0 11 131 12 358 l3 357 70 0 70 0 3
-52 c4 -70 22 -68 22 2 l0 55 323 -2 322 -3 3 -97 c4 -130 22 -128 22 2 l0
100 70 0 70 0 1 -157 c1 -353 4 -416 17 -420 9 -4 12 58 12 286 l0 291 70 0
70 0 2 -387 c2 -250 7 -388 13 -388 6 0 11 138 13 388 l2 387 70 0 70 0 0
-164 c0 -96 4 -167 10 -171 6 -4 11 56 12 162 l3 168 70 0 70 0 3 -462 c2
-458 2 -463 -18 -463 -11 0 -20 -4 -20 -10 0 -5 9 -10 20 -10 18 0 20 -7 20
-55 0 -30 5 -55 10 -55 6 0 10 25 10 55 0 42 3 55 15 55 8 0 15 5 15 10 0 6
-7 10 -15 10 -13 0 -15 58 -15 465 l0 466 73 -3 72 -3 3 -273 c1 -176 6 -271
12 -267 6 4 10 110 10 276 l0 269 70 0 70 0 2 -267 c2 -202 6 -267 16 -271 9
-3 12 55 12 267 l0 271 155 0 155 0 0 -135 c0 -178 18 -180 22 -2 l3 132 70 0
70 0 3 -182 c1 -111 6 -183 12 -183 6 0 10 71 10 185 l0 185 155 0 155 0 2
-220 c2 -138 7 -220 13 -220 6 0 11 82 13 220 l2 221 153 -3 152 -3 3 -317 c1
-201 6 -318 12 -318 6 0 10 116 10 320 l0 320 105 0 c63 0 105 4 105 10 0 6
-70 10 -190 10 l-190 0 0 60 c0 33 -4 60 -10 60 -6 0 -10 -27 -10 -60 l0 -60
-155 0 -155 0 0 460 0 460 45 0 c33 0 45 4 45 15 0 11 -11 15 -38 15 -21 0
-42 -3 -46 -7 -4 -5 -13 -8 -19 -8 -13 0 -15 -84 -16 -617 l-1 -318 -239 0
c-182 0 -241 3 -245 13 -5 9 -7 9 -12 0 -4 -10 -147 -13 -665 -13 l-659 0 0
190 c0 120 -4 190 -10 190 -6 0 -10 -70 -10 -190 l0 -190 -70 0 -70 0 0 153
c-1 83 -1 257 -1 385 0 197 -2 232 -14 232 -13 0 -15 -54 -15 -385 l0 -385
-70 0 -69 0 -3 125 c-2 75 -7 125 -13 125 -6 0 -11 -50 -13 -125 l-3 -125
-239 0 -240 0 0 235 c0 150 -4 235 -10 235 -6 0 -10 -85 -10 -235 l0 -235
-325 0 -325 0 0 50 c0 28 -4 50 -10 50 -5 0 -10 -22 -10 -50 l0 -50 -325 0
-325 0 0 460 c0 402 2 460 15 460 8 0 15 7 15 15 0 11 -11 15 -38 15 -21 0
-42 -3 -45 -7z"/>
<path d="M7260 2976 c0 -12 11 -16 46 -16 59 0 55 24 -4 28 -33 2 -42 0 -42
-12z"/>
<path d="M7440 2975 c0 -13 9 -16 43 -13 23 2 42 8 42 13 0 6 -19 11 -42 13
-34 3 -43 0 -43 -13z"/>
<path d="M7620 2975 c0 -11 11 -15 40 -15 29 0 40 4 40 15 0 11 -11 15 -40 15
-29 0 -40 -4 -40 -15z"/>
<path d="M7797 2983 c-16 -16 -4 -23 38 -23 33 0 45 4 45 15 0 11 -11 15 -38
15 -21 0 -42 -3 -45 -7z"/>
<path d="M7977 2983 c-16 -16 -4 -23 38 -23 33 0 45 4 45 15 0 11 -11 15 -38
15 -21 0 -42 -3 -45 -7z"/>
<path d="M8150 2976 c0 -12 11 -16 46 -16 59 0 55 24 -4 28 -33 2 -42 0 -42
-12z"/>
<path d="M8330 2975 c0 -13 9 -16 43 -13 23 2 42 8 42 13 0 6 -19 11 -42 13
-34 3 -43 0 -43 -13z"/>
<path d="M8507 2984 c-13 -14 6 -24 44 -24 28 0 39 4 39 15 0 11 -11 15 -38
15 -21 0 -42 -3 -45 -6z"/>
<path d="M8687 2983 c-16 -16 -4 -23 38 -23 33 0 45 4 45 15 0 11 -11 15 -38
15 -21 0 -42 -3 -45 -7z"/>
<path d="M8867 2984 c-16 -17 -4 -24 39 -24 32 0 44 4 42 13 -5 13 -69 22 -81
11z"/>
<path d="M9040 2976 c0 -12 11 -16 46 -16 59 0 55 24 -4 28 -33 2 -42 0 -42
-12z"/>
<path d="M9220 2975 c0 -11 11 -15 40 -15 29 0 40 4 40 15 0 11 -11 15 -40 15
-29 0 -40 -4 -40 -15z"/>
<path d="M9397 2984 c-13 -14 6 -24 44 -24 28 0 39 4 39 15 0 11 -11 15 -38
15 -21 0 -42 -3 -45 -6z"/>
<path d="M9577 2983 c-16 -16 -4 -23 38 -23 33 0 45 4 45 15 0 11 -11 15 -38
15 -21 0 -42 -3 -45 -7z"/>
<path d="M9750 2976 c0 -12 11 -16 46 -16 59 0 55 24 -4 28 -33 2 -42 0 -42
-12z"/>
<path d="M9930 2974 c0 -12 9 -14 43 -12 52 4 51 19 -3 24 -31 3 -40 0 -40
-12z"/>
<path d="M10107 2984 c-13 -14 6 -24 44 -24 28 0 39 4 39 15 0 11 -11 15 -38
15 -21 0 -42 -3 -45 -6z"/>
<path d="M10287 2983 c-16 -16 -4 -23 38 -23 33 0 45 4 45 15 0 11 -11 15 -38
15 -21 0 -42 -3 -45 -7z"/>
<path d="M10467 2984 c-16 -17 -4 -24 39 -24 32 0 44 4 42 13 -5 13 -69 22
-81 11z"/>
<path d="M10640 2976 c0 -12 11 -16 46 -16 59 0 55 24 -4 28 -33 2 -42 0 -42
-12z"/>
<path d="M10820 2975 c0 -13 9 -16 43 -13 23 2 42 8 42 13 0 6 -19 11 -42 13
-34 3 -43 0 -43 -13z"/>
<path d="M10997 2984 c-13 -14 6 -24 44 -24 28 0 39 4 39 15 0 11 -11 15 -38
15 -21 0 -42 -3 -45 -6z"/>
<path d="M11350 2976 c0 -12 11 -16 46 -16 59 0 55 24 -4 28 -33 2 -42 0 -42
-12z"/>
<path d="M11530 2975 c0 -13 9 -16 43 -13 23 2 42 8 42 13 0 6 -19 11 -42 13
-34 3 -43 0 -43 -13z"/>
<path d="M11710 2975 c0 -11 11 -15 40 -15 29 0 40 4 40 15 0 11 -11 15 -40
15 -29 0 -40 -4 -40 -15z"/>
<path d="M5146 2972 c-3 -5 -5 -85 -5 -178 0 -93 -1 -307 -1 -476 l0 -308
-155 0 -155 0 0 55 c0 30 -4 55 -10 55 -5 0 -10 -25 -10 -55 l0 -55 -75 0 -75
0 0 150 c0 93 -4 150 -10 150 -6 0 -10 -57 -10 -150 l0 -150 -660 0 -660 0 0
300 c0 193 -4 300 -10 300 -6 0 -10 -107 -10 -300 l0 -300 -70 0 -70 0 -1 148
c0 81 0 265 0 410 1 225 -1 262 -14 262 -13 0 -15 -54 -15 -410 l0 -410 -70 0
-70 0 0 101 c0 76 -3 100 -12 97 -9 -3 -14 -35 -16 -101 l-3 -97 -239 0 -240
0 0 250 c0 160 -4 250 -10 250 -6 0 -10 -90 -10 -250 l0 -250 -660 0 -660 0 0
440 c0 384 2 440 15 440 8 0 15 7 15 15 0 11 -12 15 -45 15 -46 0 -62 -17 -25
-27 20 -5 20 -14 20 -444 l0 -439 -135 0 c-82 0 -135 -4 -135 -10 0 -6 84 -11
218 -12 l217 -3 3 -77 c4 -103 22 -101 22 2 l0 80 70 0 71 0 -1 -452 c-1 -806
-2 -768 15 -768 13 0 15 24 15 155 l0 155 25 0 c14 0 25 5 25 10 0 6 -11 10
-25 10 l-25 0 0 445 0 445 70 0 70 0 0 -491 c0 -388 3 -490 13 -487 6 3 13 19
15 36 3 26 8 32 28 32 13 0 24 5 24 10 0 6 -11 10 -25 10 l-25 0 0 133 c-1 72
-1 206 -1 297 1 91 1 231 1 313 l0 148 153 -3 152 -3 3 -187 c1 -114 6 -188
12 -188 6 0 10 73 10 190 l0 191 73 -3 72 -3 3 -227 c1 -141 6 -228 12 -228 6
0 10 86 10 230 l0 230 70 0 70 0 0 -140 c0 -118 2 -140 15 -140 13 0 15 22 15
140 l0 140 155 0 155 0 0 -215 c0 -137 4 -215 10 -215 6 0 10 78 10 215 l0
216 73 -3 c66 -3 72 -5 75 -25 5 -31 22 -29 22 2 l0 25 323 -2 322 -3 3 -87
c4 -116 22 -114 22 2 l0 90 70 0 70 0 0 -152 c1 -84 1 -255 1 -380 0 -193 2
-228 14 -228 13 0 15 55 15 380 l0 380 70 0 70 0 0 -445 0 -445 -25 0 c-14 0
-25 -4 -25 -10 0 -5 11 -10 25 -10 23 0 25 -4 25 -40 0 -29 4 -40 15 -40 11 0
15 12 15 43 0 23 0 246 0 495 l-1 452 71 0 70 0 0 -195 c0 -120 4 -195 10
-195 6 0 11 76 12 193 l3 192 73 3 72 3 0 -446 c0 -438 0 -445 -20 -445 -11 0
-20 -4 -20 -10 0 -5 9 -10 20 -10 13 0 20 -7 20 -20 0 -11 5 -20 10 -20 6 0
10 9 10 20 0 11 7 20 15 20 8 0 15 5 15 10 0 6 -7 10 -15 10 -13 0 -15 56 -15
445 l0 446 73 -3 72 -3 3 -212 c1 -131 6 -213 12 -213 6 0 10 81 10 215 l0
215 70 0 70 0 2 -182 c2 -134 6 -182 16 -186 9 -3 12 38 12 182 l0 186 238 -2
237 -3 3 -67 c4 -90 22 -88 22 2 l0 70 155 0 155 0 0 -75 c0 -60 3 -75 15 -75
12 0 15 15 15 75 l0 76 153 -3 152 -3 3 -347 c1 -221 6 -348 12 -348 6 0 10
126 10 350 l0 350 105 0 c63 0 105 4 105 10 0 6 -70 10 -190 10 l-190 0 0 160
c0 100 -4 160 -10 160 -6 0 -10 -60 -10 -160 l0 -160 -155 0 -155 0 0 443 0
442 45 -3 c36 -3 45 -1 45 12 0 12 -10 16 -45 16 -41 0 -45 2 -45 24 0 26 -15
43 -24 28z"/>
<path d="M910 2905 c0 -11 11 -15 40 -15 29 0 40 4 40 15 0 11 -11 15 -40 15
-29 0 -40 -4 -40 -15z"/>
<path d="M1260 2905 c0 -11 12 -15 45 -15 33 0 45 4 45 15 0 11 -12 15 -45 15
-33 0 -45 -4 -45 -15z"/>
<path d="M1440 2905 c0 -13 9 -16 43 -13 23 2 42 8 42 13 0 6 -19 11 -42 13
-34 3 -43 0 -43 -13z"/>
<path d="M1620 2905 c0 -11 11 -15 40 -15 29 0 40 4 40 15 0 11 -11 15 -40 15
-29 0 -40 -4 -40 -15z"/>
<path d="M1797 2914 c-13 -14 6 -24 44 -24 28 0 39 4 39 15 0 11 -11 15 -38
15 -21 0 -42 -3 -45 -6z"/>
<path d="M1972 2908 c3 -7 23 -14 46 -16 33 -2 42 0 42 12 0 12 -11 16 -46 16
-32 0 -44 -4 -42 -12z"/>
<path d="M2150 2904 c0 -12 9 -14 42 -12 59 4 63 28 4 28 -35 0 -46 -4 -46
-16z"/>
<path d="M2330 2905 c0 -13 9 -16 43 -13 23 2 42 8 42 13 0 6 -19 11 -42 13
-34 3 -43 0 -43 -13z"/>
<path d="M2507 2914 c-13 -14 6 -24 44 -24 28 0 39 4 39 15 0 11 -11 15 -38
15 -21 0 -42 -3 -45 -6z"/>
<path d="M2682 2908 c3 -7 23 -14 46 -16 33 -2 42 0 42 12 0 12 -11 16 -46 16
-32 0 -44 -4 -42 -12z"/>
<path d="M2860 2905 c0 -11 12 -15 45 -15 33 0 45 4 45 15 0 11 -12 15 -45 15
-33 0 -45 -4 -45 -15z"/>
<path d="M3040 2905 c0 -13 9 -16 43 -13 23 2 42 8 42 13 0 6 -19 11 -42 13
-34 3 -43 0 -43 -13z"/>
<path d="M3220 2905 c0 -11 11 -15 40 -15 29 0 40 4 40 15 0 11 -11 15 -40 15
-29 0 -40 -4 -40 -15z"/>
<path d="M3397 2914 c-13 -14 6 -24 44 -24 28 0 39 4 39 15 0 11 -11 15 -38
15 -21 0 -42 -3 -45 -6z"/>
<path d="M3572 2908 c3 -7 23 -14 46 -16 33 -2 42 0 42 12 0 12 -11 16 -46 16
-32 0 -44 -4 -42 -12z"/>
<path d="M3750 2904 c0 -12 9 -14 42 -12 59 4 63 28 4 28 -35 0 -46 -4 -46
-16z"/>
<path d="M3930 2905 c0 -13 9 -16 43 -13 23 2 42 8 42 13 0 6 -19 11 -42 13
-34 3 -43 0 -43 -13z"/>
<path d="M4107 2914 c-13 -14 6 -24 44 -24 28 0 39 4 39 15 0 11 -11 15 -38
15 -21 0 -42 -3 -45 -6z"/>
<path d="M4287 2914 c-13 -14 6 -24 44 -24 28 0 39 4 39 15 0 11 -11 15 -38
15 -21 0 -42 -3 -45 -6z"/>
<path d="M4460 2905 c0 -11 12 -15 45 -15 33 0 45 4 45 15 0 11 -12 15 -45 15
-33 0 -45 -4 -45 -15z"/>
<path d="M4640 2904 c0 -12 9 -14 42 -12 59 4 63 28 4 28 -35 0 -46 -4 -46
-16z"/>
<path d="M4820 2905 c0 -13 9 -16 43 -13 23 2 42 8 42 13 0 6 -19 11 -42 13
-34 3 -43 0 -43 -13z"/>
<path d="M4997 2914 c-13 -14 6 -24 44 -24 28 0 39 4 39 15 0 11 -11 15 -38
15 -21 0 -42 -3 -45 -6z"/>
<path d="M5350 2905 c0 -11 12 -15 45 -15 33 0 45 4 45 15 0 11 -12 15 -45 15
-33 0 -45 -4 -45 -15z"/>
<path d="M5530 2905 c0 -13 9 -16 43 -13 23 2 42 8 42 13 0 6 -19 11 -42 13
-34 3 -43 0 -43 -13z"/>
<path d="M5710 2905 c0 -11 11 -15 40 -15 29 0 40 4 40 15 0 11 -11 15 -40 15
-29 0 -40 -4 -40 -15z"/>
<path d="M6460 2721 c-22 -43 -5 -111 28 -111 27 0 42 20 42 58 0 43 -16 72
-40 72 -11 0 -24 -9 -30 -19z m48 -3 c17 -17 15 -73 -4 -89 -31 -26 -57 38
-34 82 12 22 21 24 38 7z"/>
<path d="M6620 2725 c-19 -22 -16 -83 4 -104 36 -35 83 38 55 87 -18 32 -41
39 -59 17z m45 -50 c0 -43 -3 -50 -20 -50 -16 0 -21 8 -23 39 -4 49 3 68 25
64 14 -3 18 -14 18 -53z"/>
<path d="M6716 2718 c-10 -38 -7 -44 22 -43 21 0 28 -5 30 -23 4 -27 -22 -40
-45 -21 -14 12 -16 12 -11 -1 8 -24 55 -25 68 0 17 32 4 60 -30 60 -23 0 -27
4 -23 19 3 12 16 22 32 24 24 4 23 4 -5 6 -25 1 -33 -4 -38 -21z"/>
<path d="M6850 2680 c0 -5 11 -10 25 -10 14 0 25 5 25 10 0 6 -11 10 -25 10
-14 0 -25 -4 -25 -10z"/>
<path d="M460 2661 c-22 -43 -5 -111 28 -111 27 0 42 20 42 58 0 43 -16 72
-40 72 -11 0 -24 -9 -30 -19z m48 -3 c17 -17 15 -73 -4 -89 -31 -26 -57 38
-34 82 12 22 21 24 38 7z"/>
<path d="M620 2665 c-19 -22 -16 -83 4 -104 36 -35 83 38 55 87 -18 32 -41 39
-59 17z m45 -50 c0 -43 -3 -50 -20 -50 -16 0 -21 8 -23 39 -4 49 3 68 25 64
14 -3 18 -14 18 -53z"/>
<path d="M716 2658 c-10 -38 -7 -44 22 -43 21 0 28 -5 30 -23 4 -27 -22 -40
-45 -21 -14 12 -16 12 -11 -1 8 -24 55 -25 68 0 17 32 4 60 -30 60 -23 0 -27
4 -23 19 3 12 16 22 32 24 24 4 23 4 -5 6 -25 1 -33 -4 -38 -21z"/>
<path d="M850 2620 c0 -5 11 -10 25 -10 14 0 25 5 25 10 0 6 -11 10 -25 10
-14 0 -25 -4 -25 -10z"/>
<path d="M6560 2620 c0 -5 5 -10 10 -10 6 0 10 5 10 10 0 6 -4 10 -10 10 -5 0
-10 -4 -10 -10z"/>
<path d="M560 2560 c0 -5 5 -10 10 -10 6 0 10 5 10 10 0 6 -4 10 -10 10 -5 0
-10 -4 -10 -10z"/>
<path d="M6110 2105 l0 -55 80 0 c47 0 80 4 80 10 0 6 -16 10 -35 10 -34 0
-35 1 -35 40 0 22 -4 40 -10 40 -5 0 -10 -18 -10 -40 0 -36 -2 -40 -25 -40
-23 0 -25 4 -25 45 0 25 -4 45 -10 45 -5 0 -10 -25 -10 -55z"/>
<path d="M110 2035 l0 -55 80 0 c47 0 80 4 80 10 0 6 -16 10 -35 10 -34 0 -35
1 -35 40 0 22 -4 40 -10 40 -5 0 -10 -18 -10 -40 0 -36 -2 -40 -25 -40 -23 0
-25 4 -25 45 0 25 -4 45 -10 45 -5 0 -10 -25 -10 -55z"/>
<path d="M6460 2071 c-22 -43 -5 -111 28 -111 27 0 42 20 42 58 0 43 -16 72
-40 72 -11 0 -24 -9 -30 -19z m48 -3 c17 -17 15 -73 -4 -89 -31 -26 -57 38
-34 82 12 22 21 24 38 7z"/>
<path d="M6620 2075 c-19 -22 -16 -83 4 -104 36 -35 83 38 55 87 -18 32 -41
39 -59 17z m45 -50 c0 -43 -3 -50 -20 -50 -16 0 -21 8 -23 39 -4 49 3 68 25
64 14 -3 18 -14 18 -53z"/>
<path d="M6720 2075 c-19 -22 -16 -83 4 -104 36 -35 83 38 55 87 -18 32 -41
39 -59 17z m45 -50 c0 -43 -3 -50 -20 -50 -16 0 -21 8 -23 39 -4 49 3 68 25
64 14 -3 18 -14 18 -53z"/>
<path d="M460 2041 c-22 -43 -5 -111 28 -111 27 0 42 20 42 58 0 43 -16 72
-40 72 -11 0 -24 -9 -30 -19z m48 -3 c17 -17 15 -73 -4 -89 -31 -26 -57 38
-34 82 12 22 21 24 38 7z"/>
<path d="M620 2045 c-19 -22 -16 -83 4 -104 36 -35 83 38 55 87 -18 32 -41 39
-59 17z m45 -50 c0 -43 -3 -50 -20 -50 -16 0 -21 8 -23 39 -4 49 3 68 25 64
14 -3 18 -14 18 -53z"/>
<path d="M720 2045 c-19 -22 -16 -83 4 -104 36 -35 83 38 55 87 -18 32 -41 39
-59 17z m45 -50 c0 -43 -3 -50 -20 -50 -16 0 -21 8 -23 39 -4 49 3 68 25 64
14 -3 18 -14 18 -53z"/>
<path d="M6127 2002 c-24 -27 -21 -69 8 -97 65 -66 180 15 131 90 -9 14 -23
25 -31 25 -21 0 -19 -9 7 -29 49 -41 -19 -108 -81 -78 -31 14 -40 57 -17 77
17 14 21 30 8 30 -5 0 -16 -8 -25 -18z"/>
<path d="M6560 1970 c0 -5 5 -10 10 -10 6 0 10 5 10 10 0 6 -4 10 -10 10 -5 0
-10 -4 -10 -10z"/>
<path d="M560 1940 c0 -5 5 -10 10 -10 6 0 10 5 10 10 0 6 -4 10 -10 10 -5 0
-10 -4 -10 -10z"/>
<path d="M127 1922 c-24 -27 -21 -69 8 -97 65 -66 180 15 131 90 -9 14 -23 25
-31 25 -21 0 -19 -9 7 -29 49 -41 -19 -108 -81 -78 -31 14 -40 57 -17 77 17
14 21 30 8 30 -5 0 -16 -8 -25 -18z"/>
<path d="M6183 1827 c-40 -17 -73 -36 -73 -43 0 -14 158 -75 166 -63 3 5 -6
13 -20 19 -21 8 -26 16 -26 45 0 29 5 37 25 45 26 10 35 31 13 29 -7 -1 -46
-15 -85 -32z m27 -42 c0 -29 2 -28 -41 -13 l-34 12 30 12 c42 18 45 17 45 -11z"/>
<path d="M183 1757 c-40 -17 -73 -36 -73 -43 0 -14 158 -75 166 -63 3 5 -6 13
-20 19 -21 8 -26 16 -26 45 0 29 5 37 25 45 26 10 35 31 13 29 -7 -1 -46 -15
-85 -32z m27 -42 c0 -29 2 -28 -41 -13 l-34 12 30 12 c42 18 45 17 45 -11z"/>
<path d="M6120 1681 c-5 -11 -10 -38 -10 -60 l0 -41 80 0 c47 0 80 4 80 10 0
6 -13 10 -30 10 -27 0 -30 3 -30 31 0 46 -16 69 -50 69 -19 0 -33 -7 -40 -19z
m64 -17 c3 -9 6 -27 6 -40 0 -20 -5 -24 -30 -24 -27 0 -30 3 -30 33 0 19 3 37
7 40 12 13 41 7 47 -9z"/>
<path d="M460 1411 c-22 -43 -5 -111 28 -111 27 0 42 20 42 58 0 43 -16 72
-40 72 -11 0 -24 -9 -30 -19z m48 -3 c17 -17 15 -73 -4 -89 -31 -26 -57 38
-34 82 12 22 21 24 38 7z"/>
<path d="M620 1415 c-19 -22 -16 -83 4 -104 36 -35 83 38 55 87 -18 32 -41 39
-59 17z m45 -50 c0 -43 -3 -50 -20 -50 -16 0 -21 8 -23 39 -4 49 3 68 25 64
14 -3 18 -14 18 -53z"/>
<path d="M716 1408 c-10 -38 -7 -44 22 -43 21 0 28 -5 30 -23 4 -27 -22 -40
-45 -21 -14 12 -16 12 -11 -1 8 -24 55 -25 68 0 17 32 4 60 -30 60 -23 0 -27
4 -23 19 3 12 16 22 32 24 24 4 23 4 -5 6 -25 1 -33 -4 -38 -21z"/>
<path d="M6460 1411 c-22 -43 -5 -111 28 -111 27 0 42 20 42 58 0 43 -16 72
-40 72 -11 0 -24 -9 -30 -19z m48 -3 c17 -17 15 -73 -4 -89 -31 -26 -57 38
-34 82 12 22 21 24 38 7z"/>
<path d="M6620 1415 c-19 -22 -16 -83 4 -104 36 -35 83 38 55 87 -18 32 -41
39 -59 17z m45 -50 c0 -43 -3 -50 -20 -50 -16 0 -21 8 -23 39 -4 49 3 68 25
64 14 -3 18 -14 18 -53z"/>
<path d="M6716 1408 c-10 -38 -7 -44 22 -43 21 0 28 -5 30 -23 4 -27 -22 -40
-45 -21 -14 12 -16 12 -11 -1 8 -24 55 -25 68 0 17 32 4 60 -30 60 -23 0 -27
4 -23 19 3 12 16 22 32 24 24 4 23 4 -5 6 -25 1 -33 -4 -38 -21z"/>
<path d="M6850 1375 c0 -9 9 -15 25 -15 16 0 25 6 25 15 0 9 -9 15 -25 15 -16
0 -25 -6 -25 -15z"/>
<path d="M850 1370 c0 -5 11 -10 25 -10 14 0 25 5 25 10 0 6 -11 10 -25 10
-14 0 -25 -4 -25 -10z"/>
<path d="M398 1343 c6 -2 18 -2 25 0 6 3 1 5 -13 5 -14 0 -19 -2 -12 -5z"/>
<path d="M6398 1343 c6 -2 18 -2 25 0 6 3 1 5 -13 5 -14 0 -19 -2 -12 -5z"/>
<path d="M560 1310 c0 -5 5 -10 10 -10 6 0 10 5 10 10 0 6 -4 10 -10 10 -5 0
-10 -4 -10 -10z"/>
<path d="M6560 1310 c0 -5 5 -10 10 -10 6 0 10 5 10 10 0 6 -4 10 -10 10 -5 0
-10 -4 -10 -10z"/>
<path d="M910 1090 c0 -5 18 -10 40 -10 22 0 40 5 40 10 0 6 -18 10 -40 10
-22 0 -40 -4 -40 -10z"/>
<path d="M1080 1090 c0 -5 20 -10 45 -10 25 0 45 5 45 10 0 6 -20 10 -45 10
-25 0 -45 -4 -45 -10z"/>
<path d="M1260 1090 c0 -5 20 -10 45 -10 25 0 45 5 45 10 0 6 -20 10 -45 10
-25 0 -45 -4 -45 -10z"/>
<path d="M1790 1090 c0 -5 20 -10 45 -10 25 0 45 5 45 10 0 6 -20 10 -45 10
-25 0 -45 -4 -45 -10z"/>
<path d="M1970 1090 c0 -5 20 -10 45 -10 25 0 45 5 45 10 0 6 -20 10 -45 10
-25 0 -45 -4 -45 -10z"/>
<path d="M2150 1090 c0 -5 20 -10 45 -10 25 0 45 5 45 10 0 6 -20 10 -45 10
-25 0 -45 -4 -45 -10z"/>
<path d="M2330 1090 c0 -5 20 -10 45 -10 25 0 45 5 45 10 0 6 -20 10 -45 10
-25 0 -45 -4 -45 -10z"/>
<path d="M2500 1090 c0 -5 20 -10 45 -10 25 0 45 5 45 10 0 6 -20 10 -45 10
-25 0 -45 -4 -45 -10z"/>
<path d="M2680 1090 c0 -5 20 -10 45 -10 25 0 45 5 45 10 0 6 -20 10 -45 10
-25 0 -45 -4 -45 -10z"/>
<path d="M2860 1090 c0 -5 20 -10 45 -10 25 0 45 5 45 10 0 6 -20 10 -45 10
-25 0 -45 -4 -45 -10z"/>
<path d="M3040 1090 c0 -5 20 -10 45 -10 25 0 45 5 45 10 0 6 -20 10 -45 10
-25 0 -45 -4 -45 -10z"/>
<path d="M3220 1090 c0 -5 18 -10 40 -10 22 0 40 5 40 10 0 6 -18 10 -40 10
-22 0 -40 -4 -40 -10z"/>
<path d="M3390 1090 c0 -5 20 -10 45 -10 25 0 45 5 45 10 0 6 -20 10 -45 10
-25 0 -45 -4 -45 -10z"/>
<path d="M3570 1090 c0 -5 20 -10 45 -10 25 0 45 5 45 10 0 6 -20 10 -45 10
-25 0 -45 -4 -45 -10z"/>
<path d="M3930 1090 c0 -5 20 -10 45 -10 25 0 45 5 45 10 0 6 -20 10 -45 10
-25 0 -45 -4 -45 -10z"/>
<path d="M4280 1090 c0 -5 20 -10 45 -10 25 0 45 5 45 10 0 6 -20 10 -45 10
-25 0 -45 -4 -45 -10z"/>
<path d="M4460 1090 c0 -5 20 -10 45 -10 25 0 45 5 45 10 0 6 -20 10 -45 10
-25 0 -45 -4 -45 -10z"/>
<path d="M4640 1090 c0 -5 20 -10 45 -10 25 0 45 5 45 10 0 6 -20 10 -45 10
-25 0 -45 -4 -45 -10z"/>
<path d="M4820 1090 c0 -5 20 -10 45 -10 25 0 45 5 45 10 0 6 -20 10 -45 10
-25 0 -45 -4 -45 -10z"/>
<path d="M4990 1090 c0 -5 20 -10 45 -10 25 0 45 5 45 10 0 6 -20 10 -45 10
-25 0 -45 -4 -45 -10z"/>
<path d="M5170 1090 c0 -5 20 -10 45 -10 25 0 45 5 45 10 0 6 -20 10 -45 10
-25 0 -45 -4 -45 -10z"/>
<path d="M5350 1090 c0 -5 20 -10 45 -10 25 0 45 5 45 10 0 6 -20 10 -45 10
-25 0 -45 -4 -45 -10z"/>
<path d="M5530 1090 c0 -5 20 -10 45 -10 25 0 45 5 45 10 0 6 -20 10 -45 10
-25 0 -45 -4 -45 -10z"/>
<path d="M5710 1090 c0 -5 18 -10 40 -10 22 0 40 5 40 10 0 6 -18 10 -40 10
-22 0 -40 -4 -40 -10z"/>
<path d="M6910 1080 c0 -5 18 -10 40 -10 22 0 40 5 40 10 0 6 -18 10 -40 10
-22 0 -40 -4 -40 -10z"/>
<path d="M7080 1080 c0 -5 20 -10 45 -10 25 0 45 5 45 10 0 6 -20 10 -45 10
-25 0 -45 -4 -45 -10z"/>
<path d="M7260 1080 c0 -5 20 -10 45 -10 25 0 45 5 45 10 0 6 -20 10 -45 10
-25 0 -45 -4 -45 -10z"/>
<path d="M7620 1080 c0 -5 18 -10 40 -10 22 0 40 5 40 10 0 6 -18 10 -40 10
-22 0 -40 -4 -40 -10z"/>
<path d="M7790 1080 c0 -5 20 -10 45 -10 25 0 45 5 45 10 0 6 -20 10 -45 10
-25 0 -45 -4 -45 -10z"/>
<path d="M7970 1080 c0 -5 20 -10 45 -10 25 0 45 5 45 10 0 6 -20 10 -45 10
-25 0 -45 -4 -45 -10z"/>
<path d="M8150 1080 c0 -5 20 -10 45 -10 25 0 45 5 45 10 0 6 -20 10 -45 10
-25 0 -45 -4 -45 -10z"/>
<path d="M8330 1080 c0 -5 20 -10 45 -10 25 0 45 5 45 10 0 6 -20 10 -45 10
-25 0 -45 -4 -45 -10z"/>
<path d="M8500 1080 c0 -5 20 -10 45 -10 25 0 45 5 45 10 0 6 -20 10 -45 10
-25 0 -45 -4 -45 -10z"/>
<path d="M8680 1080 c0 -5 20 -10 45 -10 25 0 45 5 45 10 0 6 -20 10 -45 10
-25 0 -45 -4 -45 -10z"/>
<path d="M8860 1080 c0 -5 20 -10 45 -10 25 0 45 5 45 10 0 6 -20 10 -45 10
-25 0 -45 -4 -45 -10z"/>
<path d="M9040 1080 c0 -5 20 -10 45 -10 25 0 45 5 45 10 0 6 -20 10 -45 10
-25 0 -45 -4 -45 -10z"/>
<path d="M9220 1080 c0 -5 18 -10 40 -10 22 0 40 5 40 10 0 6 -18 10 -40 10
-22 0 -40 -4 -40 -10z"/>
<path d="M9390 1080 c0 -5 20 -10 45 -10 25 0 45 5 45 10 0 6 -20 10 -45 10
-25 0 -45 -4 -45 -10z"/>
<path d="M9570 1080 c0 -5 20 -10 45 -10 25 0 45 5 45 10 0 6 -20 10 -45 10
-25 0 -45 -4 -45 -10z"/>
<path d="M9750 1080 c0 -5 20 -10 45 -10 25 0 45 5 45 10 0 6 -20 10 -45 10
-25 0 -45 -4 -45 -10z"/>
<path d="M9930 1080 c0 -5 20 -10 45 -10 25 0 45 5 45 10 0 6 -20 10 -45 10
-25 0 -45 -4 -45 -10z"/>
<path d="M10280 1080 c0 -5 20 -10 45 -10 25 0 45 5 45 10 0 6 -20 10 -45 10
-25 0 -45 -4 -45 -10z"/>
<path d="M10460 1080 c0 -5 20 -10 45 -10 25 0 45 5 45 10 0 6 -20 10 -45 10
-25 0 -45 -4 -45 -10z"/>
<path d="M10640 1080 c0 -5 20 -10 45 -10 25 0 45 5 45 10 0 6 -20 10 -45 10
-25 0 -45 -4 -45 -10z"/>
<path d="M10820 1080 c0 -5 20 -10 45 -10 25 0 45 5 45 10 0 6 -20 10 -45 10
-25 0 -45 -4 -45 -10z"/>
<path d="M10990 1080 c0 -5 20 -10 45 -10 25 0 45 5 45 10 0 6 -20 10 -45 10
-25 0 -45 -4 -45 -10z"/>
<path d="M11170 1080 c0 -5 20 -10 45 -10 25 0 45 5 45 10 0 6 -20 10 -45 10
-25 0 -45 -4 -45 -10z"/>
<path d="M11350 1080 c0 -5 20 -10 45 -10 25 0 45 5 45 10 0 6 -20 10 -45 10
-25 0 -45 -4 -45 -10z"/>
<path d="M11530 1080 c0 -5 20 -10 45 -10 25 0 45 5 45 10 0 6 -20 10 -45 10
-25 0 -45 -4 -45 -10z"/>
<path d="M11710 1080 c0 -5 18 -10 40 -10 22 0 40 5 40 10 0 6 -18 10 -40 10
-22 0 -40 -4 -40 -10z"/>
<path d="M460 791 c-22 -43 -5 -111 28 -111 27 0 42 20 42 58 0 43 -16 72 -40
72 -11 0 -24 -9 -30 -19z m48 -3 c17 -17 15 -73 -4 -89 -31 -26 -57 38 -34 82
12 22 21 24 38 7z"/>
<path d="M635 790 c-16 -18 -16 -20 -2 -15 13 6 17 -2 20 -47 3 -51 3 -50 5
15 1 37 0 67 -1 67 -2 0 -12 -9 -22 -20z"/>
<path d="M720 795 c-19 -22 -16 -83 4 -104 36 -35 83 38 55 87 -18 32 -41 39
-59 17z m45 -50 c0 -43 -3 -50 -20 -50 -16 0 -21 8 -23 39 -4 49 3 68 25 64
14 -3 18 -14 18 -53z"/>
<path d="M6460 761 c-32 -62 15 -142 58 -99 15 15 16 72 2 99 -14 25 -46 25
-60 0z m48 -3 c17 -17 15 -73 -4 -89 -31 -26 -57 38 -34 82 12 22 21 24 38 7z"/>
<path d="M6635 760 c-16 -18 -16 -20 -2 -15 13 6 17 -2 20 -47 3 -51 3 -50 5
15 1 37 0 67 -1 67 -2 0 -12 -9 -22 -20z"/>
<path d="M6720 765 c-19 -22 -16 -83 4 -104 36 -35 83 38 55 87 -18 32 -41 39
-59 17z m45 -50 c0 -43 -3 -50 -20 -50 -16 0 -21 8 -23 39 -4 49 3 68 25 64
14 -3 18 -14 18 -53z"/>
<path d="M850 750 c0 -5 11 -10 25 -10 14 0 25 5 25 10 0 6 -11 10 -25 10 -14
0 -25 -4 -25 -10z"/>
<path d="M398 723 c6 -2 18 -2 25 0 6 3 1 5 -13 5 -14 0 -19 -2 -12 -5z"/>
<path d="M6850 720 c0 -5 11 -10 25 -10 14 0 25 5 25 10 0 6 -11 10 -25 10
-14 0 -25 -4 -25 -10z"/>
<path d="M560 690 c0 -5 5 -10 10 -10 6 0 10 5 10 10 0 6 -4 10 -10 10 -5 0
-10 -4 -10 -10z"/>
<path d="M6398 693 c6 -2 18 -2 25 0 6 3 1 5 -13 5 -14 0 -19 -2 -12 -5z"/>
<path d="M6560 660 c0 -5 5 -10 10 -10 6 0 10 5 10 10 0 6 -4 10 -10 10 -5 0
-10 -4 -10 -10z"/>
<path d="M1960 630 c0 -16 5 -30 10 -30 6 0 10 14 10 30 0 17 -4 30 -10 30 -5
0 -10 -13 -10 -30z"/>
<path d="M2970 631 c0 -17 5 -31 10 -31 6 0 10 11 10 24 0 14 -4 28 -10 31 -6
4 -10 -7 -10 -24z"/>
<path d="M3977 653 c-11 -10 -8 -53 3 -53 6 0 10 14 10 30 0 31 -2 35 -13 23z"/>
<path d="M4980 631 c0 -17 5 -31 10 -31 6 0 10 11 10 24 0 14 -4 28 -10 31 -6
4 -10 -7 -10 -24z"/>
<path d="M7960 630 c0 -16 5 -30 10 -30 6 0 10 14 10 30 0 17 -4 30 -10 30 -5
0 -10 -13 -10 -30z"/>
<path d="M8970 631 c0 -17 5 -31 10 -31 6 0 10 11 10 24 0 14 -4 28 -10 31 -6
4 -10 -7 -10 -24z"/>
<path d="M9977 653 c-11 -10 -8 -53 3 -53 6 0 10 14 10 30 0 31 -2 35 -13 23z"/>
<path d="M10980 631 c0 -17 5 -31 10 -31 6 0 10 11 10 24 0 14 -4 28 -10 31
-6 4 -10 -7 -10 -24z"/>
<path d="M1940 535 c-18 -21 -18 -78 -1 -99 32 -38 84 1 60 45 -8 15 -18 20
-35 16 -25 -4 -30 7 -14 33 8 13 13 13 31 2 18 -11 20 -11 17 0 -7 20 -43 21
-58 3z m45 -75 c0 -16 -6 -26 -18 -28 -19 -4 -32 20 -23 44 9 25 41 13 41 -16z"/>
<path d="M2905 528 c-17 -18 -18 -20 -2 -15 15 6 17 0 17 -43 0 -28 5 -50 10
-50 6 0 10 28 10 65 0 36 -3 65 -7 64 -5 0 -17 -10 -28 -21z"/>
<path d="M2997 543 c-4 -3 -7 -13 -7 -22 1 -14 2 -13 11 2 12 21 38 22 45 2 4
-9 -8 -31 -30 -55 -20 -22 -36 -42 -36 -45 0 -3 21 -4 48 -3 36 1 39 2 15 5
-18 2 -33 7 -33 10 0 3 14 21 30 40 25 28 28 38 20 53 -10 19 -49 27 -63 13z"/>
<path d="M3915 528 c-17 -18 -18 -20 -2 -15 15 6 17 0 17 -43 0 -28 5 -50 10
-50 6 0 10 28 10 65 0 36 -3 65 -7 64 -5 0 -17 -10 -28 -21z"/>
<path d="M4005 539 c-4 -5 -4 -21 -1 -35 4 -14 2 -24 -4 -24 -15 0 -12 -36 5
-50 32 -27 80 13 58 49 -8 13 -9 21 -1 29 8 8 8 15 -2 27 -14 17 -46 20 -55 4z
m43 -22 c2 -12 -3 -17 -17 -17 -12 0 -21 6 -21 13 0 31 32 34 38 4z m8 -48 c3
-6 -1 -18 -9 -27 -13 -12 -19 -13 -31 -3 -8 7 -12 19 -9 27 6 17 39 19 49 3z"/>
<path d="M4907 543 c-4 -3 -7 -13 -7 -22 1 -14 2 -13 11 2 12 21 38 22 45 2 4
-9 -8 -31 -30 -55 -20 -22 -36 -42 -36 -45 0 -3 21 -4 48 -3 36 1 39 2 15 5
-18 2 -33 7 -33 10 0 3 14 21 30 40 25 28 28 38 20 53 -10 19 -49 27 -63 13z"/>
<path d="M5018 506 c-16 -24 -28 -46 -28 -50 0 -3 14 -6 30 -6 22 0 30 -5 31
-17 0 -14 2 -15 6 -3 3 8 11 18 17 22 8 5 7 8 -1 8 -9 0 -13 16 -13 45 0 25
-3 45 -7 45 -5 0 -20 -20 -35 -44z m28 -32 c-6 -17 -36 -19 -36 -2 0 6 8 20
18 31 15 17 17 17 20 3 2 -10 1 -24 -2 -32z"/>
<path d="M7940 535 c-18 -21 -18 -78 -1 -99 32 -38 84 1 60 45 -8 15 -18 20
-35 16 -25 -4 -30 7 -14 33 8 13 13 13 31 2 18 -11 20 -11 17 0 -7 20 -43 21
-58 3z m45 -75 c0 -29 -32 -41 -41 -16 -9 24 4 48 23 44 12 -2 18 -12 18 -28z"/>
<path d="M8905 528 c-17 -18 -18 -20 -2 -15 15 6 17 0 17 -43 0 -28 5 -50 10
-50 6 0 10 28 10 65 0 36 -3 65 -7 64 -5 0 -17 -10 -28 -21z"/>
<path d="M8997 543 c-4 -3 -7 -13 -7 -22 1 -14 2 -13 11 2 12 21 38 22 45 2 4
-9 -8 -31 -30 -55 -20 -22 -36 -42 -36 -45 0 -3 21 -4 48 -3 36 1 39 2 15 5
-18 2 -33 7 -33 10 0 3 14 21 30 40 25 28 28 38 20 53 -10 19 -49 27 -63 13z"/>
<path d="M9915 528 c-17 -18 -18 -20 -2 -15 15 6 17 0 17 -43 0 -28 5 -50 10
-50 6 0 10 28 10 65 0 36 -3 65 -7 64 -5 0 -17 -10 -28 -21z"/>
<path d="M10005 539 c-4 -5 -4 -21 -1 -35 4 -14 2 -24 -4 -24 -15 0 -12 -36 5
-50 32 -27 80 13 58 49 -8 13 -9 21 -1 29 8 8 8 15 -2 27 -14 17 -46 20 -55 4z
m43 -22 c2 -12 -3 -17 -17 -17 -12 0 -21 6 -21 13 0 31 32 34 38 4z m8 -48 c3
-6 -1 -18 -9 -27 -13 -12 -19 -13 -31 -3 -8 7 -12 19 -9 27 6 17 39 19 49 3z"/>
<path d="M10907 543 c-4 -3 -7 -13 -7 -22 1 -14 2 -13 11 2 12 21 38 22 45 2
4 -9 -8 -31 -30 -55 -20 -22 -36 -42 -36 -45 0 -3 21 -4 48 -3 36 1 39 2 15 5
-18 2 -33 7 -33 10 0 3 14 21 30 40 25 28 28 38 20 53 -10 19 -49 27 -63 13z"/>
<path d="M11018 506 c-16 -24 -28 -46 -28 -50 0 -3 14 -6 30 -6 22 0 30 -5 31
-17 0 -14 2 -15 6 -3 3 8 11 18 17 22 8 5 7 8 -1 8 -9 0 -13 16 -13 45 0 25
-3 45 -7 45 -5 0 -20 -20 -35 -44z m28 -32 c-6 -17 -36 -19 -36 -2 0 6 8 20
18 31 15 17 17 17 20 3 2 -10 1 -24 -2 -32z"/>
<path d="M3220 240 l0 -80 50 0 c28 0 50 5 50 10 0 6 -18 10 -40 10 l-40 0 0
70 c0 40 -4 70 -10 70 -6 0 -10 -33 -10 -80z"/>
<path d="M9220 240 l0 -80 50 0 c28 0 50 5 50 10 0 6 -18 10 -40 10 l-40 0 0
70 c0 40 -4 70 -10 70 -6 0 -10 -33 -10 -80z"/>
<path d="M3363 273 c-7 -2 -13 -12 -13 -21 0 -12 3 -13 12 -4 17 17 58 15 58
-3 0 -9 -9 -15 -23 -15 -32 0 -60 -23 -55 -46 3 -16 12 -19 53 -20 l50 -1 -4
51 c-2 28 -8 54 -15 58 -12 9 -44 9 -63 1z m57 -68 c0 -17 -29 -34 -47 -28
-20 7 -15 23 10 33 31 13 37 12 37 -5z"/>
<path d="M3482 267 c-21 -26 -24 -58 -7 -84 14 -20 22 -24 46 -19 31 6 37 -2
17 -22 -16 -16 -45 -15 -51 1 -2 6 -8 9 -12 5 -12 -11 14 -38 36 -38 39 0 59
35 59 103 l0 64 -39 1 c-21 1 -43 -4 -49 -11z m63 -27 c9 -29 -4 -60 -25 -60
-24 0 -43 34 -35 60 9 27 52 27 60 0z"/>
<path d="M9363 273 c-7 -2 -13 -12 -13 -21 0 -12 3 -13 12 -4 17 17 58 15 58
-3 0 -9 -9 -15 -23 -15 -32 0 -60 -23 -55 -46 3 -16 12 -19 53 -20 l50 -1 -4
51 c-2 28 -8 54 -15 58 -12 9 -44 9 -63 1z m57 -68 c0 -17 -29 -34 -47 -28
-20 7 -15 23 10 33 31 13 37 12 37 -5z"/>
<path d="M9482 267 c-21 -26 -24 -58 -7 -84 14 -20 22 -24 46 -19 31 6 37 -2
17 -22 -16 -16 -45 -15 -51 1 -2 6 -8 9 -12 5 -12 -11 14 -38 36 -38 39 0 59
35 59 103 l0 64 -39 1 c-21 1 -43 -4 -49 -11z m63 -27 c9 -29 -4 -60 -25 -60
-24 0 -43 34 -35 60 9 27 52 27 60 0z"/>
</g>
</svg>
