<?xml version="1.0" standalone="no"?>
<!DOCTYPE svg PUBLIC "-//W3C//DTD SVG 20010904//EN"
 "http://www.w3.org/TR/2001/REC-SVG-20010904/DTD/svg10.dtd">
<svg version="1.0" xmlns="http://www.w3.org/2000/svg"
 width="2400.000000pt" height="1920.000000pt" viewBox="0 0 2400.000000 1920.000000"
 preserveAspectRatio="xMidYMid meet">

<g transform="translate(0.000000,1920.000000) scale(0.100000,-0.100000)"
fill="#000000" stroke="none">
<path d="M4154 18951 c-76 -35 -110 -103 -101 -208 8 -105 58 -162 152 -176
56 -9 105 7 142 45 32 34 54 88 35 88 -6 0 -17 3 -26 6 -11 4 -16 1 -16 -11 0
-9 -15 -32 -34 -51 -27 -27 -42 -34 -72 -34 -56 0 -86 19 -111 70 -36 70 -26
165 21 209 51 48 144 43 174 -9 19 -34 62 -42 62 -12 0 47 -80 102 -150 102
-19 0 -53 -9 -76 -19z"/>
<path d="M1630 18765 l0 -195 25 0 c25 0 25 1 25 90 l0 90 90 0 c89 0 90 0 90
25 0 25 -1 25 -90 25 l-90 0 0 60 0 60 105 0 c98 0 105 1 105 20 0 19 -7 20
-130 20 l-130 0 0 -195z"/>
<path d="M4950 18765 c0 -188 1 -195 20 -195 12 0 20 7 20 17 0 14 2 14 20 -2
25 -23 91 -23 126 -1 76 50 69 228 -11 264 -35 16 -77 15 -101 -3 -31 -23 -34
-19 -34 50 0 58 -2 65 -20 65 -19 0 -20 -7 -20 -195z m169 29 c30 -38 29 -124
-1 -158 -33 -35 -60 -40 -91 -16 -30 24 -43 72 -33 125 14 72 85 99 125 49z"/>
<path d="M6020 18765 l0 -195 95 0 c124 0 166 16 202 78 22 38 27 58 28 116 0
85 -23 140 -74 173 -30 20 -46 23 -142 23 l-109 0 0 -195z m205 141 c45 -19
65 -61 65 -136 0 -72 -20 -122 -56 -139 -14 -6 -56 -11 -94 -11 l-70 0 0 143
c0 79 3 147 7 150 12 12 113 7 148 -7z"/>
<path d="M6420 18935 c0 -18 5 -25 20 -25 15 0 20 7 20 25 0 18 -5 25 -20 25
-15 0 -20 -7 -20 -25z"/>
<path d="M7120 18935 c0 -18 5 -25 20 -25 15 0 20 7 20 25 0 18 -5 25 -20 25
-15 0 -20 -7 -20 -25z"/>
<path d="M7420 18895 c0 -69 -3 -73 -34 -50 -28 22 -79 18 -111 -7 -74 -58
-73 -205 3 -254 34 -22 97 -22 122 1 18 16 20 16 20 2 0 -11 8 -17 25 -17 l25
0 0 195 0 195 -25 0 c-24 0 -25 -2 -25 -65z m-45 -81 c47 -18 61 -134 22 -180
-51 -59 -127 -15 -127 72 0 86 44 131 105 108z"/>
<path d="M8010 18765 l0 -195 126 0 c124 0 125 0 122 23 -3 21 -8 22 -100 25
l-98 3 0 169 0 170 -25 0 -25 0 0 -195z"/>
<path d="M9200 18765 c0 -188 1 -195 20 -195 19 0 20 7 20 195 0 188 -1 195
-20 195 -19 0 -20 -7 -20 -195z"/>
<path d="M10360 18766 l0 -196 25 0 25 0 2 162 3 163 55 -163 c52 -154 56
-163 79 -160 22 3 30 19 80 163 l56 160 3 -162 2 -163 25 0 25 0 0 195 0 195
-37 0 -38 0 -55 -159 c-30 -88 -57 -157 -60 -155 -3 3 -28 74 -56 157 l-51
152 -41 3 -42 3 0 -195z"/>
<path d="M12200 18765 l0 -195 126 0 c124 0 125 0 122 23 -3 21 -8 22 -100 25
l-98 3 0 169 0 170 -25 0 -25 0 0 -195z"/>
<path d="M3638 18939 c-12 -7 -18 -22 -18 -44 0 -28 -4 -35 -20 -35 -13 0 -20
-7 -20 -19 0 -10 9 -21 20 -24 18 -5 20 -14 20 -114 0 -71 4 -113 12 -121 13
-13 88 -17 88 -4 0 12 -14 26 -35 38 -18 10 -20 23 -23 108 l-3 96 26 0 c18 0
25 5 25 20 0 15 -7 20 -24 20 -22 0 -25 5 -28 44 -3 39 -5 44 -20 35z"/>
<path d="M10088 18939 c-12 -7 -18 -22 -18 -44 0 -28 -4 -35 -20 -35 -13 0
-20 -7 -20 -19 0 -10 9 -21 20 -24 18 -5 20 -14 20 -114 0 -71 4 -113 12 -121
13 -13 88 -17 88 -4 0 12 -14 26 -35 38 -18 10 -20 23 -23 108 l-3 96 26 0
c18 0 25 5 25 20 0 15 -7 20 -24 20 -22 0 -25 5 -28 44 -3 39 -5 44 -20 35z"/>
<path d="M2003 18840 c-42 -25 -63 -68 -63 -125 0 -95 49 -149 134 -148 54 1
93 23 114 67 19 39 17 129 -4 166 -35 58 -121 77 -181 40z m116 -37 c27 -22
40 -76 30 -122 -24 -114 -159 -92 -159 25 0 71 30 113 81 114 15 0 37 -8 48
-17z"/>
<path d="M2260 18715 c0 -135 1 -145 19 -145 16 0 19 11 23 100 6 111 19 140
68 140 17 0 30 7 34 17 14 34 -51 46 -83 14 -19 -19 -19 -19 -24 0 -3 10 -12
19 -21 19 -14 0 -16 -19 -16 -145z"/>
<path d="M2482 18840 c-58 -36 -78 -122 -47 -197 18 -42 37 -59 85 -73 49 -13
102 3 134 41 32 38 33 49 1 49 -14 0 -29 -8 -35 -20 -26 -49 -108 -43 -135 11
-8 15 -15 33 -15 39 0 6 39 10 106 10 l107 0 -6 46 c-7 65 -48 105 -114 111
-36 3 -56 -1 -81 -17z m127 -46 c37 -47 29 -54 -59 -54 l-80 0 11 27 c22 58
92 73 128 27z"/>
<path d="M2789 18837 c-55 -37 -74 -120 -43 -196 24 -62 80 -89 145 -71 39 11
73 43 84 78 5 18 3 22 -18 22 -16 0 -28 -8 -35 -25 -28 -62 -107 -50 -131 21
-26 76 9 154 70 154 27 0 59 -22 59 -41 0 -5 11 -9 25 -9 42 0 25 49 -25 75
-42 22 -92 19 -131 -8z"/>
<path d="M3073 18845 c-30 -13 -53 -41 -53 -64 0 -21 42 -11 62 14 36 46 128
26 128 -27 0 -16 -71 -38 -121 -38 -28 0 -79 -53 -79 -82 0 -60 72 -98 139
-74 20 7 44 17 54 21 12 5 17 3 17 -9 0 -10 9 -16 23 -16 22 0 22 2 19 107 -3
122 -13 156 -48 172 -34 15 -102 13 -141 -4z m137 -161 c0 -36 -50 -84 -88
-84 -36 0 -66 31 -57 59 6 19 22 26 100 44 39 9 45 7 45 -19z"/>
<path d="M3370 18853 c-34 -12 -50 -37 -50 -74 0 -46 20 -62 107 -88 50 -15
58 -21 58 -41 0 -51 -98 -61 -120 -12 -11 25 -55 31 -55 8 0 -27 44 -67 83
-75 79 -18 147 19 147 82 0 44 -24 64 -101 87 -41 12 -70 27 -74 37 -15 41 83
61 107 23 13 -20 58 -28 58 -11 0 52 -92 89 -160 64z"/>
<path d="M3770 18830 c0 -25 4 -30 25 -30 21 0 25 5 25 30 0 25 -4 30 -25 30
-21 0 -25 -5 -25 -30z"/>
<path d="M4503 18845 c-30 -13 -53 -41 -53 -64 0 -21 42 -11 62 14 36 46 128
26 128 -27 0 -16 -71 -38 -121 -38 -28 0 -79 -53 -79 -82 0 -60 72 -98 139
-74 20 7 44 17 54 21 12 5 17 3 17 -9 0 -10 9 -16 23 -16 22 0 22 2 19 107 -3
122 -13 156 -48 172 -34 15 -102 13 -141 -4z m137 -161 c0 -36 -50 -84 -88
-84 -36 0 -66 31 -57 59 6 19 22 26 100 44 39 9 45 7 45 -19z"/>
<path d="M4770 18715 c0 -135 1 -145 19 -145 16 0 19 11 23 100 6 111 19 140
68 140 17 0 30 7 34 17 14 34 -51 46 -83 14 -19 -19 -19 -19 -24 0 -3 10 -12
19 -21 19 -14 0 -16 -19 -16 -145z"/>
<path d="M5303 18840 c-42 -25 -63 -68 -63 -125 0 -95 49 -149 134 -148 54 1
93 23 114 67 19 39 17 129 -4 166 -35 58 -121 77 -181 40z m116 -37 c27 -22
40 -76 30 -122 -24 -114 -159 -92 -159 25 0 71 30 113 81 114 15 0 37 -8 48
-17z"/>
<path d="M5560 18715 c0 -138 1 -145 20 -145 18 0 20 7 20 73 1 126 22 176 78
177 12 0 31 -9 42 -20 17 -17 20 -33 20 -125 l0 -105 26 0 26 0 -4 121 c-3
118 -4 121 -31 145 -36 31 -94 32 -131 3 l-26 -20 0 20 c0 14 -6 21 -20 21
-19 0 -20 -7 -20 -145z"/>
<path d="M6420 18715 c0 -138 1 -145 20 -145 19 0 20 7 20 145 0 138 -1 145
-20 145 -19 0 -20 -7 -20 -145z"/>
<path d="M6583 18840 c-42 -25 -63 -68 -63 -125 0 -95 49 -149 134 -148 54 1
93 23 114 67 19 39 17 129 -4 166 -35 58 -121 77 -181 40z m116 -37 c27 -22
40 -76 30 -122 -24 -114 -159 -92 -159 25 0 71 30 113 81 114 15 0 37 -8 48
-17z"/>
<path d="M6830 18852 c0 -4 20 -36 44 -71 l45 -63 -50 -69 c-27 -38 -49 -71
-49 -74 0 -3 12 -5 28 -5 22 0 34 11 63 57 l37 56 37 -57 c32 -47 43 -56 67
-56 l30 0 -46 64 c-25 36 -49 71 -52 79 -2 7 16 41 41 75 25 34 45 64 45 67 0
3 -11 5 -25 5 -19 0 -34 -13 -61 -50 -20 -27 -37 -50 -38 -50 -2 0 -17 23 -34
50 -24 39 -37 50 -57 50 -14 0 -25 -4 -25 -8z"/>
<path d="M7120 18715 c0 -138 1 -145 20 -145 19 0 20 7 20 145 0 138 -1 145
-20 145 -19 0 -20 -7 -20 -145z"/>
<path d="M7592 18840 c-58 -36 -78 -122 -47 -197 18 -42 37 -59 85 -73 49 -13
102 3 134 41 32 38 33 49 1 49 -14 0 -29 -8 -35 -20 -26 -49 -108 -43 -135 11
-8 15 -15 33 -15 39 0 6 39 10 106 10 l107 0 -6 46 c-7 65 -48 105 -114 111
-36 3 -56 -1 -81 -17z m127 -46 c37 -47 29 -54 -59 -54 l-80 0 11 27 c22 58
92 73 128 27z"/>
<path d="M8352 18840 c-58 -36 -78 -122 -47 -197 18 -42 37 -59 85 -73 49 -13
102 3 134 41 32 38 33 49 1 49 -14 0 -29 -8 -35 -20 -26 -49 -108 -43 -135 11
-8 15 -15 33 -15 39 0 6 39 10 106 10 l107 0 -6 46 c-7 65 -48 105 -114 111
-36 3 -56 -1 -81 -17z m127 -46 c37 -47 29 -54 -59 -54 l-80 0 11 27 c22 58
92 73 128 27z"/>
<path d="M8592 18847 c2 -7 25 -72 53 -145 46 -123 52 -133 74 -130 21 3 30
20 72 132 27 70 49 135 49 142 0 8 -9 14 -19 14 -20 0 -23 -8 -78 -160 -9 -25
-19 -48 -22 -52 -4 -4 -22 36 -40 90 -19 53 -38 103 -44 110 -12 16 -49 16
-45 -1z"/>
<path d="M8932 18840 c-58 -36 -78 -122 -47 -197 18 -42 37 -59 85 -73 49 -13
102 3 134 41 32 38 33 49 1 49 -14 0 -29 -8 -35 -20 -26 -49 -108 -43 -135 11
-8 15 -15 33 -15 39 0 6 39 10 106 10 l107 0 -6 46 c-7 65 -48 105 -114 111
-36 3 -56 -1 -81 -17z m127 -46 c37 -47 29 -54 -59 -54 l-80 0 11 27 c22 58
92 73 128 27z"/>
<path d="M9360 18853 c-34 -12 -50 -37 -50 -74 0 -46 20 -62 107 -88 50 -15
58 -21 58 -41 0 -51 -98 -61 -120 -12 -11 25 -55 31 -55 8 0 -27 44 -67 83
-75 79 -18 147 19 147 82 0 44 -24 64 -101 87 -41 12 -70 27 -74 37 -15 41 83
61 107 23 13 -20 58 -28 58 -11 0 52 -92 89 -160 64z"/>
<path d="M9793 18845 c-30 -13 -53 -41 -53 -64 0 -21 42 -11 62 14 36 46 128
26 128 -27 0 -16 -71 -38 -121 -38 -28 0 -79 -53 -79 -82 0 -60 72 -98 139
-74 20 7 44 17 54 21 12 5 17 3 17 -9 0 -10 9 -16 23 -16 22 0 22 2 19 107 -3
122 -13 156 -48 172 -34 15 -102 13 -141 -4z m137 -161 c0 -36 -50 -84 -88
-84 -36 0 -66 31 -57 59 6 19 22 26 100 44 39 9 45 7 45 -19z"/>
<path d="M10863 18845 c-30 -13 -53 -41 -53 -64 0 -21 42 -11 62 14 36 46 128
26 128 -27 0 -16 -71 -38 -121 -38 -28 0 -79 -53 -79 -82 0 -60 72 -98 139
-74 20 7 44 17 54 21 12 5 17 3 17 -9 0 -10 9 -16 23 -16 22 0 22 2 19 107 -3
122 -13 156 -48 172 -34 15 -102 13 -141 -4z m137 -161 c0 -36 -50 -84 -88
-84 -36 0 -66 31 -57 59 6 19 22 26 100 44 39 9 45 7 45 -19z"/>
<path d="M11130 18741 c0 -110 2 -122 23 -145 31 -35 74 -41 120 -17 29 15 37
16 37 5 0 -8 10 -14 25 -14 l26 0 -3 143 c-3 137 -4 142 -25 145 -20 3 -21 -1
-25 -101 -4 -124 -17 -150 -77 -145 -50 4 -61 31 -61 151 0 90 -1 97 -20 97
-19 0 -20 -7 -20 -119z"/>
<path d="M11430 18715 c0 -138 1 -145 20 -145 18 0 20 7 20 73 1 126 22 176
78 177 12 0 31 -9 42 -20 17 -17 20 -33 20 -125 l0 -105 26 0 26 0 -4 121 c-3
118 -4 121 -31 145 -36 31 -94 32 -131 3 l-26 -20 0 20 c0 14 -6 21 -20 21
-19 0 -20 -7 -20 -145z"/>
<path d="M11783 18845 c-30 -13 -53 -41 -53 -64 0 -21 42 -11 62 14 36 46 128
26 128 -27 0 -16 -71 -38 -121 -38 -28 0 -79 -53 -79 -82 0 -60 72 -98 139
-74 20 7 44 17 54 21 12 5 17 3 17 -9 0 -10 9 -16 23 -16 22 0 22 2 19 107 -3
122 -13 156 -48 172 -34 15 -102 13 -141 -4z m137 -161 c0 -36 -50 -84 -88
-84 -36 0 -66 31 -57 59 6 19 22 26 100 44 39 9 45 7 45 -19z"/>
<path d="M12543 18840 c-42 -25 -63 -68 -63 -125 0 -95 49 -149 134 -148 54 1
93 23 114 67 19 39 17 129 -4 166 -35 58 -121 77 -181 40z m116 -37 c27 -22
40 -76 30 -122 -24 -114 -159 -92 -159 25 0 71 30 113 81 114 15 0 37 -8 48
-17z"/>
<path d="M12853 18845 c-30 -13 -53 -41 -53 -64 0 -21 42 -11 62 14 36 46 128
26 128 -27 0 -16 -71 -38 -121 -38 -28 0 -79 -53 -79 -82 0 -60 72 -98 139
-74 20 7 44 17 54 21 12 5 17 3 17 -9 0 -10 9 -16 23 -16 22 0 22 2 19 107 -3
122 -13 156 -48 172 -34 15 -102 13 -141 -4z m137 -161 c0 -36 -50 -84 -88
-84 -36 0 -66 31 -57 59 6 19 22 26 100 44 39 9 45 7 45 -19z"/>
<path d="M3770 18600 c0 -25 4 -30 25 -30 21 0 25 5 25 30 0 25 -4 30 -25 30
-21 0 -25 -5 -25 -30z"/>
<path d="M826 17388 c-73 -107 -73 -118 -1 -118 54 0 55 0 55 -30 0 -20 5 -30
15 -30 10 0 15 10 15 30 0 20 5 30 15 30 8 0 15 7 15 15 0 8 -7 15 -15 15 -12
0 -15 16 -15 85 0 65 -3 85 -13 85 -8 0 -39 -37 -71 -82z m54 -28 l0 -60 -40
0 c-22 0 -40 3 -40 6 0 5 73 113 78 114 1 0 2 -27 2 -60z"/>
<path d="M1073 17457 c-4 -8 -20 -22 -35 -32 -16 -9 -28 -24 -28 -31 0 -12 5
-12 30 1 16 8 31 15 35 15 3 0 5 -45 5 -100 0 -82 3 -100 15 -100 13 0 15 21
15 130 0 107 -3 130 -15 130 -7 0 -18 -6 -22 -13z"/>
<path d="M1215 17448 c-27 -121 -25 -129 25 -103 67 34 113 -38 62 -97 -21
-25 -47 -22 -70 7 -22 27 -42 33 -42 12 0 -28 40 -57 79 -57 65 0 103 61 77
124 -16 38 -48 53 -91 42 -27 -7 -30 0 -19 42 6 19 13 22 61 22 79 0 66 24
-15 28 -57 3 -62 1 -67 -20z"/>
<path d="M1470 17350 c0 -18 7 -20 55 -20 48 0 55 2 55 20 0 18 -7 20 -55 20
-48 0 -55 -2 -55 -20z"/>
<path d="M21653 17199 c-11 -19 -52 -95 -91 -169 l-70 -135 -91 -405 c-79
-352 -103 -441 -185 -685 -57 -170 -127 -356 -180 -474 -79 -179 -94 -221
-176 -527 -77 -286 -90 -344 -90 -411 0 -43 -6 -102 -13 -130 -12 -44 -12 -53
0 -57 10 -4 13 -33 13 -113 l1 -108 87 285 c83 270 92 293 176 450 62 116 115
234 178 400 79 209 99 277 183 618 l94 383 88 139 c48 77 91 140 94 140 4 0
47 -102 96 -227 l90 -228 96 -505 c53 -278 135 -734 182 -1015 68 -407 104
-586 175 -889 50 -209 91 -380 93 -382 1 -1 42 34 90 79 l88 82 89 408 90 408
0 223 c0 122 5 248 11 280 7 40 7 61 0 70 -7 8 -12 108 -13 266 l-3 254 -84
-409 -85 -410 -90 -108 c-49 -59 -93 -104 -97 -100 -4 4 -46 163 -94 353 -71
283 -104 444 -185 900 -55 305 -137 742 -184 970 l-84 416 -82 184 c-105 236
-93 219 -117 179z"/>
<path d="M19472 15313 c-5 -10 -44 -124 -87 -253 -43 -129 -123 -347 -178
-485 -61 -153 -134 -362 -188 -539 -49 -159 -89 -290 -89 -292 0 -1 -42 -48
-93 -103 l-93 -100 -92 -319 c-80 -275 -106 -383 -187 -793 -96 -486 -259
-1228 -273 -1239 -45 -39 -133 -102 -136 -99 -10 10 -192 995 -266 1439 -44
267 -124 712 -176 990 l-95 505 -96 233 c-74 180 -99 232 -112 230 -9 -2 -55
-77 -109 -183 l-94 -179 -89 -490 -90 -491 -91 -207 -91 -207 -93 -81 c-52
-45 -94 -85 -94 -89 0 -5 -40 -216 -90 -468 l-89 -459 -91 -245 -90 -244 -91
-530 -91 -530 -72 -117 c-39 -65 -74 -118 -77 -118 -3 0 -43 135 -88 300 -82
299 -83 303 -176 898 -51 328 -132 881 -179 1227 l-87 630 -66 180 c-115 314
-124 335 -140 335 -24 0 -203 -150 -208 -174 -2 -11 -43 -325 -90 -696 l-86
-675 -94 -215 -94 -215 -90 -420 -90 -420 -90 -190 -91 -191 -94 -479 c-52
-264 -134 -698 -182 -965 l-87 -485 -74 -149 c-41 -81 -76 -147 -78 -145 -2 2
-40 145 -85 317 -87 338 -77 280 -215 1267 -70 499 -188 1016 -396 1728 -15
49 -24 67 -37 67 -12 0 -44 -53 -110 -187 l-94 -187 -89 -465 c-69 -358 -111
-547 -182 -814 l-92 -349 -86 -76 c-48 -42 -92 -88 -98 -102 -6 -14 -49 -149
-96 -300 -75 -240 -98 -331 -176 -714 -58 -284 -122 -557 -180 -775 -88 -327
-92 -341 -166 -486 l-76 -150 -84 410 c-83 408 -181 991 -357 2121 l-92 591
-94 152 c-56 88 -101 151 -110 150 -16 0 -170 -179 -195 -226 -18 -34 -172
-773 -286 -1379 l-84 -442 -91 -45 -91 -45 -92 -282 c-88 -270 -96 -301 -186
-748 -51 -257 -125 -604 -164 -772 -38 -168 -77 -337 -86 -377 l-16 -72 -75
-56 c-41 -30 -74 -53 -74 -49 0 3 -38 206 -85 450 -47 244 -128 710 -180 1036
l-94 593 -100 380 c-120 455 -257 935 -271 949 -7 7 -14 6 -21 -1 -6 -6 -53
-181 -104 -390 -127 -513 -233 -826 -363 -1069 l-90 -169 -72 -270 c-39 -148
-119 -441 -177 -650 -205 -746 -284 -1085 -383 -1654 -49 -282 -91 -516 -94
-518 -3 -3 -36 0 -73 7 l-69 11 -92 352 c-69 269 -102 417 -137 627 -120 714
-134 788 -229 1165 -107 424 -260 910 -286 910 -9 0 -55 -66 -109 -155 l-94
-155 -92 -485 -91 -486 -90 -144 c-57 -91 -124 -221 -182 -348 -87 -193 -96
-218 -182 -540 -49 -186 -130 -529 -180 -763 -81 -385 -252 -1082 -271 -1103
-6 -7 -134 16 -144 26 -2 2 -43 125 -90 273 l-87 270 -93 655 -93 655 -91 333
-91 332 -92 125 c-67 90 -98 124 -112 122 -15 -2 -37 -55 -110 -262 -73 -204
-112 -298 -183 -435 -50 -96 -131 -263 -179 -370 -58 -128 -120 -246 -181
-342 l-93 -148 -91 -417 c-68 -315 -114 -495 -183 -728 -54 -180 -130 -470
-181 -690 l-89 -380 -70 -82 c-38 -46 -72 -83 -76 -83 -3 0 -44 171 -90 380
-46 209 -89 380 -95 380 -35 -1 -32 -20 58 -425 79 -351 95 -410 110 -410 10
0 57 47 111 109 l93 110 88 375 c50 214 128 512 181 691 71 238 117 417 185
734 l92 419 92 146 c60 96 120 209 175 331 45 102 127 271 181 375 75 147 116
242 179 420 44 126 82 231 84 233 4 3 128 -161 150 -196 4 -7 48 -160 97 -340
l89 -326 90 -646 91 -645 93 -290 92 -290 80 -22 c43 -12 93 -22 109 -22 l31
-1 92 352 c51 194 133 544 182 778 50 234 132 580 182 770 88 333 95 352 183
547 54 118 127 258 178 340 47 76 88 145 92 153 3 8 45 227 94 487 l88 471 74
126 c41 69 77 126 80 126 16 0 179 -548 259 -870 79 -317 103 -435 181 -895
82 -485 98 -560 181 -880 50 -192 94 -353 97 -357 12 -13 201 -42 211 -32 5 5
50 244 100 529 96 557 182 935 347 1530 41 149 123 450 183 670 l107 400 91
170 c72 134 105 211 156 360 35 105 75 222 89 260 13 39 59 214 102 390 43
176 81 323 84 328 9 9 140 -451 255 -893 82 -314 88 -346 181 -930 115 -727
264 -1513 286 -1518 11 -2 175 111 205 140 10 11 207 907 279 1268 83 418 90
446 177 709 l90 273 92 44 91 43 89 468 c49 257 131 670 182 916 l93 449 72
86 c40 48 75 91 79 95 4 5 44 -50 89 -121 l81 -129 90 -579 c179 -1146 281
-1752 369 -2179 79 -388 89 -430 107 -430 15 0 40 41 111 178 l93 178 95 357
c62 234 124 502 180 777 75 368 97 456 176 710 99 323 76 279 221 411 25 24
49 47 52 52 3 5 46 161 95 348 70 263 111 445 181 809 l90 470 75 154 c42 84
78 152 80 149 18 -18 183 -638 256 -963 85 -380 94 -433 184 -1065 l95 -665
89 -340 c75 -290 91 -340 107 -343 16 -2 36 31 112 184 l94 187 99 551 c54
303 136 738 182 966 l83 415 92 195 91 195 90 420 90 420 90 202 91 202 80
618 c43 340 85 654 91 698 l11 80 71 57 c40 32 75 54 79 50 3 -4 43 -104 88
-224 l81 -216 65 -469 c35 -257 78 -562 94 -678 16 -115 63 -426 105 -690 41
-264 80 -511 86 -550 14 -96 189 -737 205 -755 19 -20 23 -14 128 157 l88 143
89 527 90 528 91 245 92 245 90 466 91 467 90 79 90 79 92 208 93 208 91 493
90 492 78 153 c43 84 81 148 84 144 3 -5 40 -92 82 -194 l76 -185 89 -465 c49
-256 130 -708 180 -1005 71 -426 247 -1390 275 -1512 3 -13 11 -23 19 -23 20
0 196 139 207 164 18 42 183 801 274 1261 80 403 106 513 182 772 l88 302 91
98 91 98 92 300 c56 182 129 390 185 530 52 126 128 336 171 465 43 129 80
239 82 243 3 4 39 -38 80 -95 l76 -102 93 -575 c51 -317 134 -785 184 -1041
101 -517 260 -1234 278 -1252 17 -17 32 1 132 150 l82 123 89 532 c49 293 89
539 89 548 0 16 -28 35 -37 25 -3 -2 -45 -248 -94 -546 l-89 -541 -71 -105
c-40 -58 -75 -102 -79 -97 -14 16 -181 784 -269 1243 -50 256 -129 706 -176
1000 -47 294 -88 541 -91 549 -10 30 -189 261 -201 261 -7 0 -16 -8 -21 -17z"/>
<path d="M826 14678 c-73 -107 -73 -118 -1 -118 54 0 55 0 55 -30 0 -20 5 -30
15 -30 10 0 15 10 15 30 0 20 5 30 15 30 8 0 15 7 15 15 0 8 -7 15 -15 15 -12
0 -15 16 -15 85 0 65 -3 85 -13 85 -8 0 -39 -37 -71 -82z m54 -28 l0 -60 -40
0 c-22 0 -40 3 -40 6 0 5 73 113 78 114 1 0 2 -27 2 -60z"/>
<path d="M1073 14747 c-4 -8 -20 -22 -35 -32 -16 -9 -28 -24 -28 -31 0 -12 5
-12 30 1 16 8 31 15 35 15 3 0 5 -45 5 -100 0 -82 3 -100 15 -100 13 0 15 21
15 130 0 107 -3 130 -15 130 -7 0 -18 -6 -22 -13z"/>
<path d="M1232 14753 c-58 -23 -55 -224 3 -247 33 -12 66 -5 90 19 22 21 25
33 25 95 0 74 -16 123 -45 134 -19 7 -54 7 -73 -1z m68 -33 c27 -27 29 -153 3
-182 -44 -48 -83 -4 -83 94 0 55 4 72 20 88 11 11 25 20 30 20 6 0 19 -9 30
-20z"/>
<path d="M1470 14640 c0 -18 7 -20 55 -20 48 0 55 2 55 20 0 18 -7 20 -55 20
-48 0 -55 -2 -55 -20z"/>
<path d="M826 11968 c-73 -107 -73 -118 -1 -118 54 0 55 0 55 -30 0 -20 5 -30
15 -30 10 0 15 10 15 30 0 20 5 30 15 30 8 0 15 7 15 15 0 8 -7 15 -15 15 -12
0 -15 16 -15 85 0 65 -3 85 -13 85 -8 0 -39 -37 -71 -82z m54 -28 l0 -60 -40
0 c-22 0 -40 3 -40 6 0 5 73 113 78 114 1 0 2 -27 2 -60z"/>
<path d="M1032 12043 c-58 -23 -55 -224 3 -247 33 -12 66 -5 90 19 22 21 25
33 25 95 0 74 -16 123 -45 134 -19 7 -54 7 -73 -1z m68 -33 c27 -27 29 -153 3
-182 -44 -48 -83 -4 -83 94 0 55 4 72 20 88 11 11 25 20 30 20 6 0 19 -9 30
-20z"/>
<path d="M1215 12028 c-27 -121 -25 -129 25 -103 67 34 113 -38 62 -97 -21
-25 -47 -22 -70 7 -22 27 -42 33 -42 12 0 -28 40 -57 79 -57 65 0 103 61 77
124 -16 38 -48 53 -91 42 -27 -7 -30 0 -19 42 6 19 13 22 61 22 79 0 66 24
-15 28 -57 3 -62 1 -67 -20z"/>
<path d="M1470 11925 c0 -24 3 -25 55 -25 52 0 55 1 55 25 0 24 -3 25 -55 25
-52 0 -55 -1 -55 -25z"/>
<path d="M378 10879 c-58 -9 -152 -58 -156 -81 -3 -15 5 -14 55 10 51 24 70
27 158 27 89 0 106 -3 153 -27 62 -33 62 -32 62 -14 0 20 -134 83 -185 88 -22
3 -61 1 -87 -3z"/>
<path d="M332 10704 c-27 -18 -30 -78 -6 -105 15 -16 15 -20 0 -41 -20 -29
-21 -82 0 -99 14 -11 14 -13 0 -21 -9 -5 -16 -16 -16 -23 0 -12 22 -15 120
-15 113 0 120 1 120 20 0 18 -7 20 -74 20 -91 0 -123 11 -132 45 -11 45 8 55
112 55 87 0 94 1 94 20 0 18 -7 20 -74 20 -41 0 -86 4 -99 9 -30 12 -42 43
-27 71 10 18 20 20 105 20 88 0 95 1 95 20 0 19 -7 20 -98 20 -72 0 -103 -4
-120 -16z"/>
<path d="M383 10339 c-59 -17 -91 -87 -63 -140 7 -13 7 -19 0 -19 -5 0 -10 -9
-10 -20 0 -19 7 -20 165 -20 158 0 165 1 165 20 0 18 -7 20 -57 20 -44 0 -54
3 -45 12 19 19 14 82 -8 111 -12 15 -38 31 -58 37 -43 11 -46 11 -89 -1z m115
-55 c14 -10 22 -26 22 -44 0 -38 -32 -60 -86 -60 -77 0 -124 68 -72 104 12 9
43 16 68 16 25 0 56 -7 68 -16z"/>
<path d="M383 10089 c-59 -17 -91 -87 -63 -140 7 -13 7 -19 0 -19 -5 0 -10 -9
-10 -20 0 -19 7 -20 165 -20 158 0 165 1 165 20 0 18 -7 20 -57 20 -44 0 -54
3 -45 12 19 19 14 82 -8 111 -12 15 -38 31 -58 37 -43 11 -46 11 -89 -1z m115
-55 c14 -10 22 -26 22 -44 0 -38 -32 -60 -86 -60 -77 0 -124 68 -72 104 12 9
43 16 68 16 25 0 56 -7 68 -16z"/>
<path d="M220 9818 c0 -17 56 -53 114 -72 93 -32 218 -11 291 48 44 35 26 40
-40 10 -85 -37 -174 -42 -263 -15 -39 12 -74 26 -77 31 -9 14 -25 12 -25 -2z"/>
<path d="M255 9526 c-51 -51 -41 -141 17 -169 18 -9 36 -13 40 -11 17 11 7 35
-17 44 -32 12 -45 46 -33 82 22 63 80 45 166 -51 34 -38 75 -74 92 -79 l30
-11 0 110 c0 102 -1 109 -20 109 -18 0 -20 -7 -20 -82 l0 -83 -61 68 c-91 100
-146 121 -194 73z"/>
<path d="M826 9258 c-73 -107 -73 -118 -1 -118 54 0 55 0 55 -30 0 -20 5 -30
15 -30 10 0 15 10 15 30 0 20 5 30 15 30 8 0 15 7 15 15 0 8 -7 15 -15 15 -12
0 -15 16 -15 85 0 65 -3 85 -13 85 -8 0 -39 -37 -71 -82z m54 -28 l0 -60 -40
0 c-22 0 -40 3 -40 6 0 5 73 113 78 114 1 0 2 -27 2 -60z"/>
<path d="M1032 9333 c-58 -23 -55 -224 3 -247 33 -12 66 -5 90 19 22 21 25 33
25 95 0 74 -16 123 -45 134 -19 7 -54 7 -73 -1z m68 -33 c27 -27 29 -153 3
-182 -44 -48 -83 -4 -83 94 0 55 4 72 20 88 11 11 25 20 30 20 6 0 19 -9 30
-20z"/>
<path d="M1232 9333 c-58 -23 -55 -224 3 -247 33 -12 66 -5 90 19 22 21 25 33
25 95 0 74 -16 123 -45 134 -19 7 -54 7 -73 -1z m68 -33 c27 -27 29 -153 3
-182 -44 -48 -83 -4 -83 94 0 55 4 72 20 88 11 11 25 20 30 20 6 0 19 -9 30
-20z"/>
<path d="M348 9300 c-77 -14 -128 -73 -128 -148 0 -99 61 -157 165 -157 102 0
167 59 167 150 0 109 -89 176 -204 155z m108 -56 c58 -28 78 -88 49 -144 -20
-39 -63 -60 -120 -60 -80 0 -128 42 -128 110 0 89 105 138 199 94z"/>
<path d="M1470 9215 c0 -24 3 -25 55 -25 52 0 55 1 55 25 0 24 -3 25 -55 25
-52 0 -55 -1 -55 -25z"/>
<path d="M440 8920 c0 -11 12 -26 29 -34 56 -30 64 -110 15 -157 -19 -18 -39
-24 -87 -27 -78 -4 -121 19 -136 74 -12 45 6 99 38 109 25 8 28 33 4 42 -11 4
-27 -5 -50 -30 -27 -31 -33 -44 -33 -83 0 -120 98 -186 223 -150 78 23 109 64
109 143 0 49 -18 85 -55 111 -41 27 -57 28 -57 2z"/>
<path d="M800 6603 c-14 -18 -17 -30 -11 -36 7 -7 17 -2 31 16 34 43 80 30 80
-21 0 -17 -8 -27 -30 -35 -38 -14 -38 -21 2 -32 35 -10 44 -30 34 -70 -11 -42
-78 -45 -91 -4 -7 21 -35 26 -35 6 0 -26 45 -57 81 -57 69 0 112 94 60 129
-18 11 -19 15 -6 28 8 8 15 27 15 43 0 60 -91 83 -130 33z"/>
<path d="M1011 6604 c-58 -73 24 -188 91 -127 10 9 20 14 23 12 10 -11 -17
-79 -36 -89 -23 -13 -55 -5 -63 15 -3 8 -12 15 -21 15 -13 0 -14 -4 -4 -22 16
-30 28 -38 62 -38 39 0 62 14 75 47 29 75 20 164 -19 196 -33 26 -83 22 -108
-9z m91 -11 c20 -18 24 -73 6 -91 -7 -7 -24 -12 -38 -12 -35 0 -50 17 -50 56
0 23 7 38 22 48 28 20 37 20 60 -1z"/>
<path d="M1215 6608 c-27 -121 -25 -129 25 -103 67 34 113 -38 62 -97 -21 -25
-47 -22 -70 7 -22 27 -42 33 -42 12 0 -28 40 -57 79 -57 65 0 103 61 77 124
-16 38 -48 53 -91 42 -27 -7 -30 0 -19 42 6 19 13 22 61 22 79 0 66 24 -15 28
-57 3 -62 1 -67 -20z"/>
<path d="M1470 6500 c0 -18 7 -20 55 -20 48 0 55 2 55 20 0 18 -7 20 -55 20
-48 0 -55 -2 -55 -20z"/>
<path d="M800 3883 c-14 -18 -17 -30 -11 -36 7 -7 17 -2 31 16 34 43 80 30 80
-21 0 -17 -8 -27 -30 -35 -38 -14 -38 -21 2 -32 35 -10 44 -30 34 -70 -11 -42
-78 -45 -91 -4 -7 21 -35 26 -35 6 0 -26 45 -57 81 -57 69 0 112 94 60 129
-18 11 -19 15 -6 28 8 8 15 27 15 43 0 60 -91 83 -130 33z"/>
<path d="M1011 3884 c-58 -73 24 -188 91 -127 10 9 20 14 23 12 10 -11 -17
-79 -36 -89 -23 -13 -55 -5 -63 15 -3 8 -12 15 -21 15 -13 0 -14 -4 -4 -22 16
-30 28 -38 62 -38 39 0 62 14 75 47 29 75 20 164 -19 196 -33 26 -83 22 -108
-9z m91 -11 c20 -18 24 -73 6 -91 -7 -7 -24 -12 -38 -12 -35 0 -50 17 -50 56
0 23 7 38 22 48 28 20 37 20 60 -1z"/>
<path d="M1232 3903 c-58 -23 -55 -224 3 -247 33 -12 66 -5 90 19 22 21 25 33
25 95 0 74 -16 123 -45 134 -19 7 -54 7 -73 -1z m68 -33 c27 -27 29 -153 3
-182 -44 -48 -83 -4 -83 94 0 55 4 72 20 88 11 11 25 20 30 20 6 0 19 -9 30
-20z"/>
<path d="M1470 3790 c0 -18 7 -20 55 -20 48 0 55 2 55 20 0 18 -7 20 -55 20
-48 0 -55 -2 -55 -20z"/>
<path d="M6750 1255 c0 -48 2 -55 20 -55 18 0 20 7 20 55 0 48 -2 55 -20 55
-18 0 -20 -7 -20 -55z"/>
<path d="M12200 1255 c0 -52 1 -55 25 -55 24 0 25 3 25 55 0 52 -1 55 -25 55
-24 0 -25 -3 -25 -55z"/>
<path d="M17650 1255 c0 -52 1 -55 25 -55 24 0 25 3 25 55 0 52 -1 55 -25 55
-24 0 -25 -3 -25 -55z"/>
<path d="M23110 1255 c0 -48 2 -55 20 -55 18 0 20 7 20 55 0 48 -2 55 -20 55
-18 0 -20 -7 -20 -55z"/>
<path d="M6251 1074 c-38 -49 -17 -63 23 -17 21 24 27 26 52 18 21 -8 30 -18
32 -38 3 -22 -8 -40 -59 -92 -35 -35 -67 -73 -71 -85 -7 -19 -4 -20 77 -20 68
0 85 3 85 15 0 10 -16 15 -61 17 l-61 3 61 61 c68 68 79 106 41 144 -31 31
-93 27 -119 -6z"/>
<path d="M6472 1093 c-58 -23 -55 -224 3 -247 33 -12 66 -5 90 19 22 21 25 33
25 95 0 74 -16 123 -45 134 -19 7 -54 7 -73 -1z m68 -33 c27 -27 29 -153 3
-182 -44 -48 -83 -4 -83 94 0 55 4 72 20 88 11 11 25 20 30 20 6 0 19 -9 30
-20z"/>
<path d="M6713 1087 c-4 -8 -20 -22 -35 -32 -16 -9 -28 -24 -28 -31 0 -12 5
-12 30 1 16 8 31 15 35 15 3 0 5 -45 5 -100 0 -82 3 -100 15 -100 13 0 15 21
15 130 0 107 -3 130 -15 130 -7 0 -18 -6 -22 -13z"/>
<path d="M6861 1074 c-38 -49 -17 -63 23 -17 21 24 27 26 52 18 21 -8 30 -18
32 -38 3 -22 -8 -40 -59 -92 -35 -35 -67 -73 -71 -85 -7 -19 -4 -20 77 -20 68
0 85 3 85 15 0 10 -16 15 -61 17 l-61 3 61 61 c68 68 79 106 41 144 -31 31
-93 27 -119 -6z"/>
<path d="M7165 1078 c-27 -121 -25 -129 25 -103 67 34 113 -38 62 -97 -21 -25
-47 -22 -70 7 -22 27 -42 33 -42 12 0 -28 40 -57 79 -57 65 0 103 61 77 124
-16 38 -48 53 -91 42 -27 -7 -30 0 -19 42 6 19 13 22 61 22 79 0 66 24 -15 28
-57 3 -62 1 -67 -20z"/>
<path d="M11701 1074 c-38 -49 -17 -63 23 -17 21 24 27 26 52 18 21 -8 30 -18
32 -38 3 -22 -8 -40 -59 -92 -35 -35 -67 -73 -71 -85 -7 -19 -4 -20 77 -20 68
0 85 3 85 15 0 10 -16 15 -61 17 l-61 3 61 61 c68 68 79 106 41 144 -31 31
-93 27 -119 -6z"/>
<path d="M11922 1093 c-58 -23 -55 -224 3 -247 33 -12 66 -5 90 19 22 21 25
33 25 95 0 74 -16 123 -45 134 -19 7 -54 7 -73 -1z m68 -33 c27 -27 29 -153 3
-182 -44 -48 -83 -4 -83 94 0 55 4 72 20 88 11 11 25 20 30 20 6 0 19 -9 30
-20z"/>
<path d="M12173 1087 c-4 -8 -20 -22 -35 -32 -16 -9 -28 -24 -28 -31 0 -12 5
-12 30 1 16 8 31 15 35 15 3 0 5 -45 5 -100 0 -82 3 -100 15 -100 13 0 15 21
15 130 0 107 -3 130 -15 130 -7 0 -18 -6 -22 -13z"/>
<path d="M12315 1078 c-27 -121 -25 -129 25 -103 67 34 113 -38 62 -97 -21
-25 -47 -22 -70 7 -22 27 -42 33 -42 12 0 -28 40 -57 79 -57 65 0 103 61 77
124 -16 38 -48 53 -91 42 -27 -7 -30 0 -19 42 6 19 13 22 61 22 79 0 66 24
-15 28 -57 3 -62 1 -67 -20z"/>
<path d="M12642 1093 c-58 -23 -55 -224 3 -247 33 -12 66 -5 90 19 22 21 25
33 25 95 0 74 -16 123 -45 134 -19 7 -54 7 -73 -1z m68 -33 c27 -27 29 -153 3
-182 -44 -48 -83 -4 -83 94 0 55 4 72 20 88 11 11 25 20 30 20 6 0 19 -9 30
-20z"/>
<path d="M17151 1074 c-38 -49 -17 -63 23 -17 21 24 27 26 52 18 21 -8 30 -18
32 -38 3 -22 -8 -40 -59 -92 -35 -35 -67 -73 -71 -85 -7 -19 -4 -20 77 -20 68
0 85 3 85 15 0 10 -16 15 -61 17 l-61 3 61 61 c68 68 79 106 41 144 -31 31
-93 27 -119 -6z"/>
<path d="M17372 1093 c-58 -23 -55 -224 3 -247 33 -12 66 -5 90 19 22 21 25
33 25 95 0 74 -16 123 -45 134 -19 7 -54 7 -73 -1z m68 -33 c27 -27 29 -153 3
-182 -44 -48 -83 -4 -83 94 0 55 4 72 20 88 11 11 25 20 30 20 6 0 19 -9 30
-20z"/>
<path d="M17623 1087 c-4 -8 -20 -22 -35 -32 -16 -9 -28 -24 -28 -31 0 -12 5
-12 30 1 16 8 31 15 35 15 3 0 5 -45 5 -100 0 -82 3 -100 15 -100 13 0 15 21
15 130 0 107 -3 130 -15 130 -7 0 -18 -6 -22 -13z"/>
<path d="M17740 1085 c0 -12 13 -15 60 -15 33 0 60 -3 60 -6 0 -3 -9 -19 -21
-35 -25 -36 -59 -129 -59 -164 0 -16 6 -25 15 -25 8 0 15 8 15 18 0 39 32 123
65 172 19 29 35 56 35 61 0 5 -38 9 -85 9 -69 0 -85 -3 -85 -15z"/>
<path d="M18075 1078 c-27 -121 -25 -129 25 -103 67 34 113 -38 62 -97 -21
-25 -47 -22 -70 7 -22 27 -42 33 -42 12 0 -28 40 -57 79 -57 65 0 103 61 77
124 -16 38 -48 53 -91 42 -27 -7 -30 0 -19 42 6 19 13 22 61 22 79 0 66 24
-15 28 -57 3 -62 1 -67 -20z"/>
<path d="M22601 1074 c-38 -49 -17 -63 23 -17 21 24 27 26 52 18 21 -8 30 -18
32 -38 3 -22 -8 -40 -59 -92 -35 -35 -67 -73 -71 -85 -7 -19 -4 -20 77 -20 68
0 85 3 85 15 0 10 -16 15 -61 17 l-61 3 61 61 c68 68 79 106 41 144 -31 31
-93 27 -119 -6z"/>
<path d="M22822 1093 c-58 -23 -55 -224 3 -247 33 -12 66 -5 90 19 22 21 25
33 25 95 0 74 -16 123 -45 134 -19 7 -54 7 -73 -1z m68 -33 c27 -27 29 -153 3
-182 -44 -48 -83 -4 -83 94 0 55 4 72 20 88 11 11 25 20 30 20 6 0 19 -9 30
-20z"/>
<path d="M23011 1074 c-38 -49 -17 -63 23 -17 21 24 27 26 52 18 21 -8 30 -18
32 -38 3 -22 -8 -40 -59 -92 -35 -35 -67 -73 -71 -85 -7 -19 -4 -20 77 -20 68
0 85 3 85 15 0 10 -16 15 -61 17 l-61 3 61 61 c68 68 79 106 41 144 -31 31
-93 27 -119 -6z"/>
<path d="M23232 1093 c-58 -23 -55 -224 3 -247 33 -12 66 -5 90 19 22 21 25
33 25 95 0 74 -16 123 -45 134 -19 7 -54 7 -73 -1z m68 -33 c27 -27 29 -153 3
-182 -44 -48 -83 -4 -83 94 0 55 4 72 20 88 11 11 25 20 30 20 6 0 19 -9 30
-20z"/>
<path d="M23542 1093 c-58 -23 -55 -224 3 -247 33 -12 66 -5 90 19 22 21 25
33 25 95 0 74 -16 123 -45 134 -19 7 -54 7 -73 -1z m68 -33 c27 -27 29 -153 3
-182 -44 -48 -83 -4 -83 94 0 55 4 72 20 88 11 11 25 20 30 20 6 0 19 -9 30
-20z"/>
<path d="M7057 873 c-14 -13 -6 -33 13 -33 13 0 20 7 20 20 0 19 -20 27 -33
13z"/>
<path d="M12507 873 c-14 -13 -6 -33 13 -33 13 0 20 7 20 20 0 19 -20 27 -33
13z"/>
<path d="M17967 873 c-14 -13 -6 -33 13 -33 13 0 20 7 20 20 0 19 -20 27 -33
13z"/>
<path d="M23417 873 c-14 -13 -6 -33 13 -33 13 0 20 7 20 20 0 19 -20 27 -33
13z"/>
<path d="M12125 538 c4 -13 25 -67 46 -121 32 -83 36 -102 27 -123 -6 -13 -22
-27 -35 -30 -26 -7 -31 -29 -7 -38 20 -8 50 9 64 35 15 27 110 279 110 290 0
5 -8 9 -18 9 -13 0 -26 -23 -52 -97 l-34 -97 -31 95 c-26 78 -35 95 -54 97
-20 3 -22 1 -16 -20z"/>
<path d="M12404 542 c-31 -25 -44 -55 -44 -102 0 -47 21 -95 49 -110 11 -5 40
-10 66 -10 35 0 51 6 70 25 29 28 31 40 9 49 -10 4 -23 -3 -36 -19 -27 -34
-70 -33 -97 1 -38 48 -30 54 70 54 79 0 90 2 85 16 -3 9 -6 24 -6 34 0 10 -13
32 -29 49 -24 26 -37 31 -73 31 -26 0 -52 -7 -64 -18z m106 -32 c38 -38 27
-50 -45 -50 -36 0 -65 4 -65 9 0 4 9 20 21 35 25 31 61 34 89 6z"/>
<path d="M12656 539 c-29 -22 -35 -49 -11 -49 8 0 24 9 35 20 33 33 100 20
100 -20 0 -20 -10 -25 -79 -35 -24 -4 -52 -16 -62 -26 -24 -24 -24 -71 -1 -92
24 -22 100 -22 130 -1 20 14 22 14 22 0 0 -10 9 -16 21 -16 17 0 20 4 15 23
-3 12 -6 57 -6 100 0 64 -3 80 -20 97 -28 28 -108 28 -144 -1z m108 -170 c-35
-39 -124 -12 -97 29 5 10 32 22 59 28 48 10 49 10 52 -14 2 -13 -4 -32 -14
-43z"/>
<path d="M12880 440 c0 -113 1 -120 20 -120 18 0 20 7 20 78 0 87 16 122 54
122 23 0 41 22 29 34 -11 10 -61 7 -69 -5 -4 -8 -9 -8 -17 0 -6 6 -17 11 -24
11 -10 0 -13 -28 -13 -120z"/>
<path d="M13045 535 c-47 -46 -24 -86 62 -111 30 -9 57 -22 60 -30 17 -45 -72
-61 -104 -19 -13 18 -22 22 -33 15 -12 -7 -12 -12 0 -34 36 -69 180 -42 180
34 0 35 -24 56 -82 70 -57 15 -76 33 -58 55 19 22 66 19 84 -6 9 -13 21 -19
30 -16 21 8 20 23 -4 47 -30 30 -103 28 -135 -5z"/>
</g>
</svg>
